<svg width="54" height="54" viewBox="0 0 54 54" fill="none" xmlns="http://www.w3.org/2000/svg">
<circle cx="27" cy="27" r="26" fill="#A3218E" stroke="white" stroke-width="2"/>
<path d="M17.7419 14.9125L17.7412 14.9129C16.8527 15.4206 16.5467 16.5713 17.0545 17.451C17.9233 18.9503 18.1567 20.5935 17.3804 21.9406C16.6041 23.2878 15.0655 23.9091 13.336 23.9091C12.3078 23.9091 11.4688 24.756 11.4688 25.7763V28.6348C11.4688 29.6551 12.3078 30.502 13.336 30.502C15.0655 30.502 16.6041 31.1233 17.3804 32.4705C18.1567 33.8175 17.9233 35.4606 17.0547 36.9598M17.7419 14.9125L29.1718 40.8812L30.2265 40.2706L30.2277 40.2726C29.3668 38.7722 28.0613 37.75 26.5061 37.75C24.9519 37.75 23.6426 38.7711 22.7738 40.27L22.7735 40.2706L22.599 40.572M17.7419 14.9125L20.5517 13.3046L20.5695 13.2942M17.7419 14.9125L20.5695 13.2942M17.0547 36.9598C17.0545 36.9601 17.0543 36.9605 17.0541 36.9609L16.0001 36.35L17.0549 36.9594C17.0548 36.9596 17.0548 36.9597 17.0547 36.9598ZM17.0547 36.9598C16.5466 37.8396 16.8526 38.9904 17.7412 39.4982L17.7419 39.4986L20.5517 41.1065L20.5695 41.1169C21.2492 41.5213 22.1644 41.296 22.599 40.572M22.599 40.572L22.5948 40.5792L23.6496 41.1898L22.6021 40.5667C22.6011 40.5685 22.6 40.5702 22.599 40.572ZM20.5695 13.2942C21.2492 12.8898 22.1644 13.1151 22.599 13.8391L20.5695 13.2942Z" fill="#EBE7E7" stroke="#EBE7E7" stroke-width="2.4375" stroke-miterlimit="10" stroke-linecap="round" stroke-linejoin="round"/>
<rect x="21.2617" y="21.9693" width="10.4724" height="10.4724" rx="5.23622" stroke="#A3218E" stroke-width="2.4375"/>
</svg>
