<svg width="733" height="733" viewBox="0 0 733 733" fill="none" xmlns="http://www.w3.org/2000/svg">
<circle cx="366.5" cy="366.5" r="357.5" fill="url(#paint0_linear_1393_332)" stroke="white" stroke-width="18"/>
<path d="M414.452 478.63C402.754 480.565 391.467 481.527 380.291 481.554C343.884 481.645 306.858 471.822 258.85 450.254V316.434L383.065 360.067L411.658 350.003L381.008 338.949L381.009 338.946L233.673 288.255L380.2 281.282C385.391 281.035 389.399 276.63 389.152 271.443C388.904 266.255 384.496 262.251 379.305 262.498L234.305 269.398L383.065 217.928L555.032 278.962L554.975 278.982L584.059 288.661L611.401 279.011L383.144 198L149 279.011L165.054 284.535V414.784H183.873V291.009L240.031 310.331V462.305C308.84 494.589 358.852 506.163 414.452 497.671V478.63Z" fill="white"/>
<path d="M173.679 473.068C164.925 473.068 157.828 465.976 157.828 457.227C157.828 448.479 164.925 441.387 173.679 441.387C182.433 441.387 189.53 448.479 189.53 457.227C189.53 465.976 182.433 473.068 173.679 473.068Z" fill="white"/>
<path d="M163.716 485.74C171.59 488.567 176.126 488.479 184.548 485.74C192.485 512.771 195.192 527.842 195.871 554.531C178.088 560.561 168.533 560.916 152.393 554.531C152.839 526.61 155.846 511.687 163.716 485.74Z" fill="white"/>
<path fill-rule="evenodd" clip-rule="evenodd" d="M550.812 282.741L565.954 288.18L565.884 288.204L574.889 291.438L500.09 317.318V434H494.09V434H484L484 322.886L419.142 345.326L404 339.887L404.069 339.863L396.296 337.071L396.027 336.295L550.812 282.741Z" fill="white"/>
<defs>
<linearGradient id="paint0_linear_1393_332" x1="570.214" y1="-70.2748" x2="-35.8047" y2="696.85" gradientUnits="userSpaceOnUse">
<stop stop-color="#0465B2"/>
<stop offset="0.340545" stop-color="#4B2395"/>
<stop offset="1" stop-color="#A3218E"/>
</linearGradient>
</defs>
</svg>
