<svg width="52" height="46" viewBox="0 0 52 46" fill="none" xmlns="http://www.w3.org/2000/svg">
<rect x="0.136719" width="51.5945" height="46" rx="5.43858" fill="#EBE7E7"/>
<path d="M25.9119 8.87143C22.408 8.87143 19.5676 11.9974 19.5676 15.8536C19.5676 19.7097 22.408 22.8357 25.9119 22.8357C29.4157 22.8357 32.2561 19.7097 32.2561 15.8536C32.2561 11.9974 29.4157 8.87143 25.9119 8.87143Z" fill="#4B2395"/>
<path d="M20.8365 25.6286C17.3326 25.6286 14.4922 28.7546 14.4922 32.6107V34.0071C14.4922 35.5496 15.6284 36.8 17.0299 36.8H34.7938C36.1954 36.8 37.3315 35.5496 37.3315 34.0071V32.6107C37.3315 28.7546 34.4911 25.6286 30.9873 25.6286H20.8365Z" fill="#4B2395"/>
</svg>
