<svg width="41" height="47" viewBox="0 0 41 47" fill="none" xmlns="http://www.w3.org/2000/svg">
<path fill-rule="evenodd" clip-rule="evenodd" d="M9.41746 16.2457C10.944 21.4205 12.0012 23.6713 13.9563 27.4467L10.7921 31.1866C10.7403 31.2478 10.6821 31.3042 10.6182 31.355L5.52703 35.4052L1.43896 38.6848C0.7545 39.2339 0.89161 40.237 1.70307 40.617L9.78434 44.4021C10.327 44.6562 10.9912 44.5319 11.3793 44.1035L19.7919 34.8157L31.1723 45.7219C31.5209 46.056 32.0919 46.0939 32.4902 45.8094L39.5044 40.7987C40.1845 40.3128 40.1608 39.3693 39.4569 38.9122L34.0568 35.4052L29.2776 31.3497C29.2219 31.3024 29.1708 31.2507 29.125 31.1952L25.3034 26.5624C27.1408 23.737 27.9831 21.918 29.1938 18.3091C29.6075 16.8891 29.8117 15.8727 30.1496 13.982C30.1607 13.9196 30.1664 13.8559 30.1664 13.7927V9.46618C30.0402 7.45744 29.5206 5.79512 28.7226 4.45528C24.9793 0.0362896 18.171 0.331049 12.6595 2.6867C10.7738 5.47783 9.84485 7.15491 9.41746 11.2348C9.17858 13.1916 9.07996 14.2889 9.41746 16.2457ZM14.9291 8.58461L16.5501 13.173L19.7921 18.3117L22.0615 15.6589L23.3583 13.8903L24.6552 11.827L26.2762 8.58461L24.9794 7.40557L23.3583 6.81604L21.4131 6.52128H19.4679L16.8743 7.1108L15.9017 7.70033L14.9291 8.58461Z" fill="#4B2395"/>
<path d="M13.9563 27.4467L14.338 27.7696L14.5542 27.514L14.4003 27.2168L13.9563 27.4467ZM9.41746 16.2457L8.92473 16.3307L8.92967 16.3593L8.93789 16.3872L9.41746 16.2457ZM10.7921 31.1866L10.4104 30.8636L10.4104 30.8636L10.7921 31.1866ZM10.6182 31.355L10.3069 30.9637L10.3069 30.9637L10.6182 31.355ZM5.52703 35.4052L5.21574 35.014L5.21415 35.0152L5.52703 35.4052ZM1.43896 38.6848L1.12608 38.2948H1.12608L1.43896 38.6848ZM1.70307 40.617L1.91515 40.1642H1.91515L1.70307 40.617ZM9.78434 44.4021L9.57226 44.8549H9.57226L9.78434 44.4021ZM11.3793 44.1035L11.7498 44.4391H11.7498L11.3793 44.1035ZM19.7919 34.8157L20.1379 34.4547L19.7666 34.0989L19.4214 34.4801L19.7919 34.8157ZM31.1723 45.7219L30.8263 46.0829L31.1723 45.7219ZM32.4902 45.8094L32.7809 46.2162L32.4902 45.8094ZM39.5044 40.7987L39.795 41.2056L39.5044 40.7987ZM39.4569 38.9122L39.1846 39.3315L39.4569 38.9122ZM34.0568 35.4052L33.7333 35.7865L33.7577 35.8072L33.7845 35.8246L34.0568 35.4052ZM29.2776 31.3497L29.6011 30.9685L29.6011 30.9685L29.2776 31.3497ZM29.125 31.1952L29.5107 30.877L29.5107 30.877L29.125 31.1952ZM25.3034 26.5624L24.8842 26.2898L24.6841 26.5975L24.9177 26.8806L25.3034 26.5624ZM29.1938 18.3091L29.6678 18.4681L29.671 18.4586L29.6739 18.4489L29.1938 18.3091ZM30.1496 13.982L30.6418 14.07L30.6418 14.07L30.1496 13.982ZM30.1664 9.46618H30.6664V9.45049L30.6654 9.43482L30.1664 9.46618ZM28.7226 4.45528L29.1522 4.19943L29.1309 4.16377L29.1041 4.1321L28.7226 4.45528ZM12.6595 2.6867L12.463 2.22693L12.3276 2.2848L12.2452 2.40679L12.6595 2.6867ZM9.41746 11.2348L9.91385 11.2954L9.91474 11.2869L9.41746 11.2348ZM16.5501 13.173L16.0786 13.3395L16.0973 13.3924L16.1272 13.4398L16.5501 13.173ZM14.9291 8.58461L14.5927 8.21466L14.347 8.43805L14.4576 8.75117L14.9291 8.58461ZM19.7921 18.3117L19.3692 18.5785L19.7311 19.1522L20.1721 18.6368L19.7921 18.3117ZM22.0615 15.6589L22.4415 15.9839L22.4537 15.9697L22.4647 15.9546L22.0615 15.6589ZM23.3583 13.8903L23.7616 14.186L23.7721 14.1715L23.7817 14.1564L23.3583 13.8903ZM24.6552 11.827L25.0785 12.0931L25.0915 12.0724L25.1024 12.0506L24.6552 11.827ZM26.2762 8.58461L26.7234 8.8082L26.8927 8.46944L26.6125 8.21466L26.2762 8.58461ZM24.9794 7.40557L25.3157 7.03561L25.2428 6.96934L25.1502 6.93567L24.9794 7.40557ZM23.3583 6.81604L23.5292 6.34615L23.4825 6.32914L23.4333 6.32169L23.3583 6.81604ZM21.4131 6.52128L21.488 6.02692L21.4508 6.02128H21.4131V6.52128ZM19.4679 6.52128V6.02128H19.4118L19.3571 6.03372L19.4679 6.52128ZM16.8743 7.1108L16.7635 6.62324L16.6844 6.6412L16.6151 6.68322L16.8743 7.1108ZM15.9017 7.70033L15.6425 7.27274L15.6011 7.29782L15.5653 7.33038L15.9017 7.70033ZM19.7919 18.8986L19.3702 19.1671L19.3778 19.1791L19.386 19.1905L19.7919 18.8986ZM16.2981 13.4118L16.7199 13.1432L16.7199 13.1432L16.2981 13.4118ZM16.1826 13.1727L15.7098 13.3353L16.1826 13.1727ZM14.6047 8.58194L14.1298 8.73862L14.1318 8.74446L14.6047 8.58194ZM14.4003 27.2168C12.456 23.4622 11.4125 21.2413 9.89703 16.1043L8.93789 16.3872C10.4756 21.5997 11.5465 23.8805 13.5123 27.6766L14.4003 27.2168ZM11.1738 31.5095L14.338 27.7696L13.5746 27.1237L10.4104 30.8636L11.1738 31.5095ZM10.9295 31.7463C11.0185 31.6754 11.1005 31.5962 11.1738 31.5095L10.4104 30.8636C10.3802 30.8993 10.3456 30.9329 10.3069 30.9637L10.9295 31.7463ZM5.83831 35.7965L10.9295 31.7463L10.3069 30.9637L5.21575 35.014L5.83831 35.7965ZM1.75183 39.0748L5.8399 35.7953L5.21415 35.0152L1.12608 38.2948L1.75183 39.0748ZM1.91515 40.1642C1.41961 39.9321 1.37256 39.3791 1.75183 39.0748L1.12608 38.2948C0.136437 39.0887 0.363607 40.5418 1.491 41.0698L1.91515 40.1642ZM9.99641 43.9493L1.91515 40.1642L1.491 41.0698L9.57226 44.8549L9.99641 43.9493ZM11.0087 43.7678C10.7754 44.0254 10.3503 44.115 9.99641 43.9493L9.57226 44.8549C10.3037 45.1975 11.207 45.0384 11.7498 44.4391L11.0087 43.7678ZM19.4214 34.4801L11.0087 43.7678L11.7498 44.4391L20.1625 35.1514L19.4214 34.4801ZM31.5182 45.3609L20.1379 34.4547L19.446 35.1767L30.8263 46.0829L31.5182 45.3609ZM32.1996 45.4025C31.9929 45.5501 31.6898 45.5253 31.5182 45.3609L30.8263 46.0829C31.352 46.5867 32.1909 46.6376 32.7809 46.2162L32.1996 45.4025ZM39.2137 40.3919L32.1996 45.4025L32.7809 46.2162L39.795 41.2056L39.2137 40.3919ZM39.1846 39.3315C39.5958 39.5986 39.6042 40.1129 39.2137 40.3919L39.795 41.2056C40.7648 40.5128 40.7257 39.14 39.7293 38.4928L39.1846 39.3315ZM33.7845 35.8246L39.1846 39.3315L39.7293 38.4928L34.3292 34.9859L33.7845 35.8246ZM28.9541 31.7309L33.7333 35.7865L34.3804 35.024L29.6011 30.9685L28.9541 31.7309ZM28.7393 31.5134C28.8042 31.5921 28.8762 31.6648 28.9541 31.7309L29.6011 30.9685C29.5675 30.94 29.5374 30.9093 29.5107 30.877L28.7393 31.5134ZM24.9177 26.8806L28.7393 31.5134L29.5107 30.877L25.6891 26.2442L24.9177 26.8806ZM28.7198 18.15C27.52 21.7262 26.6948 23.5056 24.8842 26.2898L25.7225 26.835C27.5868 23.9683 28.4461 22.1099 29.6678 18.4681L28.7198 18.15ZM29.6574 13.8941C29.3204 15.7797 29.1199 16.7752 28.7138 18.1692L29.6739 18.4489C30.0951 17.0029 30.303 15.9657 30.6418 14.07L29.6574 13.8941ZM29.6664 13.7927C29.6664 13.8261 29.6634 13.8604 29.6574 13.8941L30.6418 14.07C30.658 13.9789 30.6664 13.8857 30.6664 13.7927H29.6664ZM29.6664 9.46618V13.7927H30.6664V9.46618H29.6664ZM28.293 4.71114C29.0457 5.97481 29.5455 7.55835 29.6674 9.49755L30.6654 9.43482C30.5348 7.35653 29.9955 5.61543 29.1522 4.19943L28.293 4.71114ZM12.856 3.14647C15.556 1.99247 18.5573 1.35131 21.322 1.52947C24.0814 1.70728 26.578 2.69721 28.3411 4.77847L29.1041 4.1321C27.1238 1.79436 24.3447 0.722172 21.3863 0.531535C18.4331 0.341235 15.2745 1.02528 12.463 2.22693L12.856 3.14647ZM9.91474 11.2869C10.1251 9.27835 10.4561 7.88827 10.9546 6.66631C11.4549 5.43963 12.133 4.35904 13.0738 2.96661L12.2452 2.40679C11.3002 3.80549 10.571 4.959 10.0286 6.28862C9.48434 7.62295 9.13716 9.11135 8.92018 11.1827L9.91474 11.2869ZM9.91018 16.1608C9.58501 14.2753 9.67701 13.2349 9.91377 11.2954L8.92114 11.1742C8.68014 13.1484 8.57492 14.3025 8.92473 16.3307L9.91018 16.1608ZM17.0215 13.0064L15.4005 8.41806L14.4576 8.75117L16.0786 13.3395L17.0215 13.0064ZM20.215 18.045L16.973 12.9062L16.1272 13.4398L19.3692 18.5785L20.215 18.045ZM21.6816 15.3339L19.4122 17.9867L20.1721 18.6368L22.4415 15.9839L21.6816 15.3339ZM22.9551 13.5947L21.6583 15.3632L22.4647 15.9546L23.7616 14.186L22.9551 13.5947ZM24.2318 11.5609L22.935 13.6243L23.7817 14.1564L25.0785 12.0931L24.2318 11.5609ZM25.8289 8.36102L24.2079 11.6034L25.1024 12.0506L26.7234 8.8082L25.8289 8.36102ZM24.643 7.77552L25.9398 8.95456L26.6125 8.21466L25.3157 7.03561L24.643 7.77552ZM23.1875 7.28593L24.8085 7.87546L25.1502 6.93567L23.5292 6.34615L23.1875 7.28593ZM21.3382 7.01564L23.2834 7.3104L23.4333 6.32169L21.488 6.02692L21.3382 7.01564ZM19.4679 7.02128H21.4131V6.02128H19.4679V7.02128ZM16.9851 7.59837L19.5787 7.00884L19.3571 6.03372L16.7635 6.62324L16.9851 7.59837ZM16.1609 8.12791L17.1335 7.53839L16.6151 6.68322L15.6425 7.27274L16.1609 8.12791ZM15.2654 8.95456L16.238 8.07028L15.5653 7.33038L14.5927 8.21466L15.2654 8.95456ZM20.1839 34.5053L14.3483 27.1363L13.5643 27.7571L19.4 35.1261L20.1839 34.5053ZM25.7093 26.2705L20.1979 18.6067L19.386 19.1905L24.8974 26.8543L25.7093 26.2705ZM20.2137 18.63L16.7199 13.1432L15.8763 13.6804L19.3702 19.1671L20.2137 18.63ZM16.6555 13.0102L15.0775 8.41941L14.1318 8.74446L15.7098 13.3353L16.6555 13.0102ZM15.0795 8.42526L13.1343 2.53003L12.1847 2.84337L14.1299 8.73861L15.0795 8.42526ZM15.0494 8.81047C15.4366 8.05694 16.1787 7.4736 17.1659 7.08101C18.1512 6.68922 19.3428 6.50399 20.5542 6.52413C21.7649 6.54425 22.9695 6.76911 23.9771 7.1747C24.991 7.58282 25.761 8.15504 26.1714 8.83916L27.0289 8.32471C26.4668 7.38765 25.4808 6.70199 24.3505 6.24703C23.214 5.78955 21.8861 5.54613 20.5708 5.52427C19.2563 5.50242 17.9288 5.70149 16.7964 6.15178C15.6661 6.60128 14.6922 7.3178 14.16 8.35341L15.0494 8.81047ZM26.1431 8.37939C24.2307 12.6953 22.7112 14.911 19.4204 18.5639L20.1634 19.2332C23.5141 15.5137 25.0962 13.2106 27.0573 8.78449L26.1431 8.37939ZM27.0448 8.81062L29.1672 4.68397L28.278 4.2266L26.1556 8.35325L27.0448 8.81062ZM16.7199 13.1432C16.6925 13.1003 16.6711 13.0557 16.6555 13.0102L15.7098 13.3353C15.7514 13.4564 15.8074 13.5721 15.8763 13.6804L16.7199 13.1432Z" fill="black"/>
</svg>
