<svg width="44" height="44" viewBox="0 0 44 44" fill="none" xmlns="http://www.w3.org/2000/svg">
<path fill-rule="evenodd" clip-rule="evenodd" d="M19.5593 0C8.75701 0 0 8.75706 0 19.5594C0 30.3618 8.75701 39.1189 19.5593 39.1189C24.1314 39.1189 28.337 37.5501 31.6674 34.9216L40.0718 43.326C40.9704 44.2247 42.4274 44.2247 43.326 43.326C44.2247 42.4274 44.2247 40.9704 43.326 40.0718L34.9216 31.6673C37.55 28.337 39.1187 24.1314 39.1187 19.5594C39.1187 8.75706 30.3617 0 19.5593 0ZM4.6022 19.5594C4.6022 11.2988 11.2987 4.60222 19.5593 4.60222C27.8199 4.60222 34.5165 11.2988 34.5165 19.5594C34.5165 27.8201 27.8199 34.5166 19.5593 34.5166C11.2987 34.5166 4.6022 27.8201 4.6022 19.5594Z" fill="black" fill-opacity="0.5"/>
</svg>
