<svg width="199" height="52" viewBox="0 0 199 52" fill="none" xmlns="http://www.w3.org/2000/svg">
<path d="M64.2579 33.3176C63.6034 33.3176 63.0005 33.154 62.4494 32.8267C61.9154 32.4995 61.4848 32.0689 61.1575 31.5349C60.8303 30.9837 60.6666 30.3809 60.6666 29.7264V14.7155H64.077V29.5713C64.077 29.6575 64.1029 29.735 64.1545 29.8039C64.2234 29.8555 64.301 29.8814 64.3871 29.8814H75.4967C75.5828 29.8814 75.6603 29.8555 75.7292 29.8039C75.7981 29.735 75.8326 29.6575 75.8326 29.5713V14.7155H79.2688V29.7264C79.2688 30.3809 79.1052 30.9837 78.7779 31.5349C78.4506 32.0689 78.0114 32.4995 77.4603 32.8267C76.9263 33.154 76.3321 33.3176 75.6776 33.3176H64.2579ZM88.7798 33.3176V18.1517H81.1839V14.7155H99.7861V18.1517H92.216V33.3176H88.7798ZM105.258 33.3176C104.603 33.3176 104.001 33.154 103.449 32.8267C102.915 32.4995 102.485 32.0689 102.158 31.5349C101.83 30.9837 101.667 30.3809 101.667 29.7264V18.3067C101.667 17.6522 101.83 17.058 102.158 16.524C102.485 15.9728 102.915 15.5336 103.449 15.2063C104.001 14.8791 104.603 14.7155 105.258 14.7155H116.678C117.332 14.7155 117.926 14.8791 118.46 15.2063C119.011 15.5336 119.451 15.9728 119.778 16.524C120.105 17.058 120.269 17.6522 120.269 18.3067V29.7264C120.269 30.3809 120.105 30.9837 119.778 31.5349C119.451 32.0689 119.011 32.4995 118.46 32.8267C117.926 33.154 117.332 33.3176 116.678 33.3176H105.258ZM105.387 29.8814H116.497C116.583 29.8814 116.66 29.8555 116.729 29.8039C116.798 29.735 116.833 29.6575 116.833 29.5713V18.4617C116.833 18.3756 116.798 18.3067 116.729 18.255C116.66 18.1861 116.583 18.1517 116.497 18.1517H105.387C105.301 18.1517 105.223 18.1861 105.155 18.255C105.103 18.3067 105.077 18.3756 105.077 18.4617V29.5713C105.077 29.6575 105.103 29.735 105.155 29.8039C105.223 29.8555 105.301 29.8814 105.387 29.8814ZM137.944 33.3176L132.338 26.626H136.807L141.665 32.3617V33.3176H137.944ZM123.114 33.3176V14.7413H138.099C138.754 14.7413 139.356 14.9049 139.908 15.2322C140.459 15.5594 140.898 15.9987 141.225 16.5498C141.553 17.0838 141.716 17.678 141.716 18.3325V23.3448C141.716 23.9993 141.553 24.6022 141.225 25.1533C140.898 25.7045 140.459 26.1437 139.908 26.471C139.356 26.781 138.754 26.936 138.099 26.936L126.524 26.9619V33.3176H123.114ZM126.834 23.4998H137.944C138.03 23.4998 138.108 23.474 138.177 23.4223C138.246 23.3706 138.28 23.3017 138.28 23.2156V18.4617C138.28 18.3756 138.246 18.3067 138.177 18.255C138.108 18.1861 138.03 18.1517 137.944 18.1517H126.834C126.748 18.1517 126.671 18.1861 126.602 18.255C126.55 18.3067 126.524 18.3756 126.524 18.4617V23.2156C126.524 23.3017 126.55 23.3706 126.602 23.4223C126.671 23.474 126.748 23.4998 126.834 23.4998ZM144.486 33.3176V18.3067C144.486 17.6522 144.649 17.058 144.977 16.524C145.304 15.9728 145.734 15.5336 146.268 15.2063C146.82 14.8791 147.422 14.7155 148.077 14.7155H159.471C160.125 14.7155 160.728 14.8791 161.279 15.2063C161.831 15.5336 162.27 15.9728 162.597 16.524C162.924 17.058 163.088 17.6522 163.088 18.3067V33.3176H159.652V27.0652H147.896V33.3176H144.486ZM147.896 23.6548H159.652V18.4617C159.652 18.3756 159.617 18.3067 159.548 18.255C159.479 18.1861 159.402 18.1517 159.316 18.1517H148.206C148.12 18.1517 148.043 18.1861 147.974 18.255C147.922 18.3067 147.896 18.3756 147.896 18.4617V23.6548ZM165.98 33.3176V29.9331H169.364V33.3176H165.98ZM171.523 33.3176V14.7155H174.908V33.3176H171.523ZM177.462 33.3176V18.3067C177.462 17.6522 177.626 17.058 177.953 16.524C178.281 15.9728 178.711 15.5336 179.245 15.2063C179.796 14.8791 180.399 14.7155 181.054 14.7155H192.447C193.102 14.7155 193.705 14.8791 194.256 15.2063C194.807 15.5336 195.246 15.9728 195.574 16.524C195.901 17.058 196.065 17.6522 196.065 18.3067V33.3176H192.628V27.0652H180.873V33.3176H177.462ZM180.873 23.6548H192.628V18.4617C192.628 18.3756 192.594 18.3067 192.525 18.255C192.456 18.1861 192.379 18.1517 192.292 18.1517H181.183C181.097 18.1517 181.019 18.1861 180.95 18.255C180.899 18.3067 180.873 18.3756 180.873 18.4617V23.6548Z" fill="black"/>
<path d="M37.6097 39.7497C35.9615 40.0232 34.3714 40.1593 32.7968 40.1632C27.6675 40.176 22.451 38.7868 15.6873 35.7368V16.8124L33.1877 22.9829L37.2161 21.5597L32.8978 19.9965L32.8979 19.9961L12.1403 12.8275L32.784 11.8414C33.5153 11.8065 34.08 11.1835 34.0451 10.45C34.0103 9.71641 33.3892 9.15006 32.6579 9.185L12.2293 10.1608L33.1876 2.88217L57.4155 11.5133L57.4075 11.5161L61.505 12.885L65.3572 11.5203L33.1988 0.0639801L0.210938 11.5203L2.47272 12.3014V30.7208H5.12402V13.217L13.036 15.9494V37.441C22.7303 42.0066 29.7763 43.6433 37.6097 42.4424V39.7497Z" fill="url(#paint0_linear_3015_1100)"/>
<path d="M3.6879 38.963C2.45453 38.963 1.45468 37.9601 1.45468 36.723C1.45468 35.4858 2.45453 34.4829 3.6879 34.4829C4.92127 34.4829 5.92112 35.4858 5.92112 36.723C5.92112 37.9601 4.92127 38.963 3.6879 38.963Z" fill="url(#paint1_linear_3015_1100)"/>
<path d="M2.28417 40.7551C3.3936 41.155 4.03265 41.1425 5.21925 40.7551C6.33735 44.5777 6.71874 46.709 6.81441 50.4834C4.30905 51.336 2.96292 51.3863 0.689009 50.4834C0.751854 46.5348 1.1754 44.4244 2.28417 40.7551Z" fill="url(#paint2_linear_3015_1100)"/>
<path fill-rule="evenodd" clip-rule="evenodd" d="M56.8296 12.0463L58.9592 12.8141L58.9418 12.8202L60.2057 13.2758L49.6938 16.9289V33.4375H48.8368V33.4378H47.4124L47.4124 17.7217L38.27 20.8989L36.1404 20.1311L36.1564 20.1255L35.0699 19.7338L35.0312 19.6216L56.8296 12.0463Z" fill="black"/>
<path fill-rule="evenodd" clip-rule="evenodd" d="M34.1797 19.3123L55.9691 11.7401L58.0988 12.5079L48.8404 15.7253V33.1284H47.416V16.2203L36.1711 20.1281L34.2182 19.424L34.1797 19.3123Z" fill="black"/>
<path d="M47.7583 15.7613L47.7583 33.4383M49.5898 15.7613L49.5898 33.4383" stroke="black" stroke-width="1.42433"/>
<defs>
<linearGradient id="paint0_linear_3015_1100" x1="50.8894" y1="-4.833" x2="12.0259" y2="57.9119" gradientUnits="userSpaceOnUse">
<stop stop-color="#0465B2"/>
<stop offset="0.340545" stop-color="#4B2395"/>
<stop offset="1" stop-color="#A3218E"/>
</linearGradient>
<linearGradient id="paint1_linear_3015_1100" x1="50.8894" y1="-4.833" x2="12.0259" y2="57.9119" gradientUnits="userSpaceOnUse">
<stop stop-color="#0465B2"/>
<stop offset="0.340545" stop-color="#4B2395"/>
<stop offset="1" stop-color="#A3218E"/>
</linearGradient>
<linearGradient id="paint2_linear_3015_1100" x1="50.8894" y1="-4.833" x2="12.0259" y2="57.9119" gradientUnits="userSpaceOnUse">
<stop stop-color="#0465B2"/>
<stop offset="0.340545" stop-color="#4B2395"/>
<stop offset="1" stop-color="#A3218E"/>
</linearGradient>
</defs>
</svg>
