<svg width="237" height="238" viewBox="0 0 237 238" fill="none" xmlns="http://www.w3.org/2000/svg">
<circle cx="118.5" cy="119.061" r="118.5" fill="#7758D1"/>
<path d="M86.0894 226.784V196.505C86.0894 194.184 85.6902 191.879 84.9093 189.692L75.9612 164.638L72.4163 151.977L70.3907 140.836L68.8714 109.945V65.5859C68.8714 64.7893 69.0879 64.0076 69.4978 63.3245C70.0715 62.3684 70.9871 61.666 72.0593 61.3597L73.1155 61.0579C73.6595 60.9025 74.2226 60.8236 74.7884 60.8236H75.0957C75.6674 60.8236 76.2339 60.9327 76.7648 61.1451C77.8715 61.5877 78.757 62.4519 79.2265 63.5475L79.6011 64.4214C79.8737 65.0576 80.0475 65.7317 80.1164 66.4204L81.0253 75.5095L82.0381 98.298V108.933L85.0766 106.907L86.0894 97.2852L85.0766 64.3685L84.1547 37.1741C84.0952 35.4171 84.5078 33.6762 85.3497 32.1328L86.1055 30.747C86.7484 29.5684 87.794 28.6603 89.0511 28.1889L89.1852 28.1386C90.4484 27.6649 91.8457 27.6972 93.0857 28.2286C94.1322 28.6771 95.004 29.4546 95.5689 30.4431L96.3322 31.779C96.593 32.2354 96.8167 32.7119 97.0013 33.204L97.2363 33.8307C97.9034 35.6098 98.2872 37.4826 98.3735 39.3808L99.7625 69.939L101.788 102.349C102.907 102.349 103.814 101.442 103.814 100.324V53.7339L102.801 27.4005V23.4557C102.801 20.7125 103.03 17.7009 105.008 15.8004C105.283 15.536 105.564 15.3385 105.839 15.2467C106.685 14.9648 107.906 14.5032 108.856 14.1347C109.541 13.8687 110.268 13.7274 111.003 13.7274H111.305C112.359 13.7274 113.385 14.0693 114.228 14.7017C114.708 15.0619 115.118 15.5078 115.436 16.0169L115.952 16.8429C116.955 18.4473 117.487 20.3011 117.487 22.1931V42.5928L119.006 62.8493L120.019 75.5095L121.032 102.349H125.083V94.7531L124.07 77.5352L122.551 59.8108V42.5928L122.249 38.0634C122.116 36.0746 122.644 34.0978 123.749 32.4394L124.085 31.9354C124.739 30.9548 125.637 30.1618 126.692 29.6347L126.763 29.5992C127.656 29.1524 128.642 28.9198 129.641 28.9198C130.64 28.9198 131.625 29.1524 132.519 29.5992L132.789 29.7344C133.716 30.1978 134.522 30.8705 135.144 31.6994C135.524 32.2069 135.831 32.7662 136.053 33.3603L136.513 34.5869C136.994 35.8675 137.306 37.205 137.442 38.5659L138.216 46.3105C138.239 46.5329 138.257 46.75 138.272 46.973L139.262 61.8364L143.314 98.298L144.833 109.945V112.477L148.378 113.997L152.429 116.022L155.94 118.129C156.973 118.749 157.95 119.46 158.857 120.254L160.19 121.421C161.091 122.209 161.921 123.076 162.669 124.011L164.332 126.09C165.169 127.136 165.836 128.309 166.306 129.564C166.841 130.991 167.115 132.501 167.115 134.024V147.171C167.115 149.348 166.764 151.511 166.076 153.577L166.051 153.65C165.748 154.56 165.381 155.446 164.952 156.304L158.453 169.302C157.815 170.578 157.044 171.783 156.153 172.897L149.391 181.349L147.31 184.024C146.337 185.275 145.515 186.636 144.859 188.078L143.314 191.477L141.254 197.658C140.939 198.6 140.695 199.565 140.522 200.543L139.571 205.936C139.366 207.098 139.262 208.276 139.262 209.456V225.913C139.262 228.783 137.912 231.484 135.616 233.206C134.038 234.389 132.119 235.029 130.147 235.029H113.436L99.7625 233.51L89.6343 231.484C87.536 230.884 86.0894 228.967 86.0894 226.784Z" fill="white"/>
<path d="M70.3907 140.836L72.4163 151.977L75.9612 164.638L84.9093 189.692C85.6902 191.879 86.0894 194.184 86.0894 196.505V226.784C86.0894 228.967 87.536 230.884 89.6343 231.484L99.7625 233.51L113.436 235.029H130.147C132.119 235.029 134.038 234.389 135.616 233.206C137.912 231.484 139.262 228.783 139.262 225.913V209.456C139.262 208.276 139.366 207.098 139.571 205.936L140.522 200.543C140.695 199.565 140.939 198.6 141.254 197.658L143.314 191.477L144.859 188.078C145.515 186.636 146.337 185.275 147.31 184.024L149.391 181.349L156.153 172.897C157.044 171.783 157.815 170.578 158.453 169.302L164.952 156.304C165.381 155.446 165.748 154.56 166.051 153.65L166.076 153.577C166.764 151.511 167.115 149.348 167.115 147.171V134.024C167.115 132.501 166.841 130.991 166.306 129.564C165.836 128.309 165.169 127.136 164.332 126.09L162.669 124.011C161.921 123.076 161.091 122.209 160.19 121.421L158.857 120.254C157.95 119.46 156.973 118.749 155.94 118.129L152.429 116.022L148.378 113.997L144.833 112.477M70.3907 140.836L68.8714 109.945V65.5859C68.8714 64.7893 69.0879 64.0076 69.4978 63.3245C70.0715 62.3684 70.9871 61.666 72.0593 61.3597L73.1155 61.0579C73.6595 60.9025 74.2226 60.8236 74.7884 60.8236H75.0957C75.6674 60.8236 76.2339 60.9327 76.7648 61.1451C77.8715 61.5877 78.757 62.4519 79.2265 63.5475L79.6011 64.4214C79.8737 65.0576 80.0475 65.7317 80.1164 66.4204L81.0253 75.5095L82.0381 98.298V108.933M70.3907 140.836L75.6684 141.649C76.4013 141.782 77.1448 141.849 77.8898 141.849H78.5566C80.046 141.849 81.5149 141.503 82.847 140.836L84.5978 139.961C85.4552 139.532 86.3418 139.165 87.2511 138.862L88.9239 138.304L90.6976 137.798C91.8758 137.461 93.0203 137.016 94.1163 136.468C95.0422 136.005 95.9303 135.47 96.7726 134.868L97.2703 134.513C98.4547 133.667 99.7269 132.951 101.065 132.378L102.597 131.721M82.0381 108.933L79.3021 112.477M82.0381 108.933L85.0766 106.907M85.0766 106.907L86.0894 97.2852L85.0766 64.3685L84.1547 37.1741C84.0952 35.4171 84.5078 33.6762 85.3497 32.1328L86.1055 30.747C86.7484 29.5684 87.794 28.6603 89.0511 28.1889L89.1852 28.1386C90.4484 27.6649 91.8457 27.6972 93.0857 28.2286C94.1322 28.6771 95.004 29.4546 95.5689 30.4431L96.3322 31.779C96.593 32.2354 96.8167 32.7119 97.0013 33.204L97.2363 33.8307C97.9034 35.6098 98.2872 37.4826 98.3735 39.3808L99.7625 69.939L101.788 102.349M85.0766 106.907L97.2899 104.275C98.0259 104.105 98.7515 103.894 99.4633 103.644C100.305 103.347 101.075 102.885 101.788 102.349V102.349M85.0766 106.907L101.788 102.349M101.788 102.349C102.907 102.349 103.814 101.442 103.814 100.324V53.7339L102.801 27.4005V23.4557C102.801 20.7125 103.03 17.7009 105.008 15.8004C105.283 15.536 105.564 15.3385 105.839 15.2467C106.685 14.9648 107.906 14.5032 108.856 14.1347C109.541 13.8687 110.268 13.7274 111.003 13.7274H111.305C112.359 13.7274 113.385 14.0693 114.228 14.7017C114.708 15.0619 115.118 15.5078 115.436 16.0169L115.952 16.8429C116.955 18.4473 117.487 20.3011 117.487 22.1931V42.5928L119.006 62.8493L120.019 75.5095L121.032 102.349M101.788 102.349H121.032M121.032 102.349H125.083M125.083 102.349V94.7531L124.07 77.5352L122.551 59.8108V42.5928L122.249 38.0634C122.116 36.0746 122.644 34.0978 123.749 32.4394L124.085 31.9354C124.739 30.9548 125.637 30.1618 126.692 29.6347L126.763 29.5992C127.656 29.1524 128.642 28.9198 129.641 28.9198C130.64 28.9198 131.625 29.1524 132.519 29.5992L132.789 29.7344C133.716 30.1978 134.522 30.8705 135.144 31.6994C135.524 32.2069 135.831 32.7662 136.053 33.3603L136.513 34.5869C136.994 35.8675 137.306 37.205 137.442 38.5659L138.216 46.3105C138.239 46.5329 138.257 46.75 138.272 46.973L139.262 61.8364L143.314 98.298L144.833 109.945V112.477M125.083 102.349H135.007M144.833 112.477L142.688 111.672C140.951 111.198 139.159 110.958 137.359 110.958H134.492C133.487 110.958 132.482 111.033 131.488 111.182L128.447 111.638C124.814 112.183 121.451 113.879 118.854 116.477C117.811 117.52 116.638 118.424 115.364 119.167L114.358 119.754C112.275 120.969 109.982 121.781 107.599 122.148L105.166 122.522C104.806 122.577 104.457 122.689 104.131 122.852C103.163 123.335 102.473 124.239 102.261 125.3L101.941 126.901C101.707 128.068 101.782 129.277 102.159 130.407L102.597 131.721M102.597 131.721L107.661 133.24L110.712 134.548M127.917 133.24H126.255C124.694 133.24 123.164 133.679 121.841 134.506C120.517 135.334 118.987 135.772 117.426 135.772H116.885C116.14 135.772 115.397 135.691 114.669 135.529L111.73 134.876C111.381 134.799 111.041 134.689 110.712 134.548M127.917 133.24L131.462 131.721L133.994 130.708M127.917 133.24L127.203 135.027C127.005 135.523 126.755 135.996 126.459 136.44C126.083 137.005 125.633 137.518 125.122 137.965L122.678 140.103C122.122 140.59 121.633 141.148 121.223 141.763L120.455 142.915C120.037 143.541 119.815 144.276 119.815 145.028C119.815 145.658 119.594 146.126 119.263 146.588C118.975 146.99 118.683 147.39 118.446 147.824V147.824C118.21 148.258 117.921 148.661 117.644 149.07C117.316 149.555 117.046 150.077 116.84 150.627L116.297 152.074C115.944 153.015 115.764 154.011 115.764 155.016C115.764 156.021 115.583 157.017 115.23 157.958L114.244 160.586L113.232 163.625M133.994 130.708L136.526 128.683L138.046 127.67L133.994 130.708ZM133.994 130.708H134.936C135.991 130.708 137.041 130.855 138.055 131.145C139.388 131.526 140.64 132.147 141.749 132.979L144.123 134.76L145.229 135.497C145.501 135.679 145.736 135.913 145.917 136.186C146.378 136.877 147.153 137.292 147.984 137.292H149.187M110.712 134.548L109.223 136.382C108.209 137.63 106.818 138.515 105.258 138.905C104.173 139.176 103.164 139.689 102.304 140.405L101.416 141.146C100.854 141.614 100.252 142.032 99.6171 142.395L97.0265 143.875L93.4816 146.407" stroke="#7758D1" stroke-width="2"/>
</svg>
