<svg width="237" height="237" viewBox="0 0 237 237" fill="none" xmlns="http://www.w3.org/2000/svg">
<circle cx="118.5" cy="118.5" r="118.5" fill="#7758D1"/>
<path d="M70.075 135.839L71.443 131.719L70.9287 129.654L70.6212 127.493C70.4835 126.526 70.4144 125.55 70.4144 124.573V111.43C70.4144 110.846 70.4727 110.26 70.5868 109.687C70.8115 108.559 71.2558 107.478 71.8915 106.521L71.9848 106.38C72.6439 105.388 73.5144 104.555 74.5333 103.941L74.5622 103.923C75.2219 103.526 75.9366 103.229 76.683 103.042C77.3016 102.886 77.9368 102.808 78.5744 102.808H81.2829C81.9205 102.808 82.5557 102.886 83.1743 103.042C83.9207 103.229 84.6354 103.526 85.2951 103.923L86.8715 104.873V103.904C86.8715 102.49 87.0442 101.082 87.3857 99.7102L87.4593 99.5256C88.0839 97.958 89.126 96.593 90.4714 95.58L90.9829 95.2377C91.6654 94.7809 92.421 94.4454 93.2168 94.2457C93.7844 94.1032 94.3673 94.0312 94.9523 94.0312H96.7176C97.3519 94.0312 97.9847 94.0941 98.6067 94.219C99.6894 94.4363 100.727 94.839 101.674 95.4092L102.814 96.0963L105.386 98.1614V88.2145C105.386 86.9344 105.542 85.6591 105.851 84.4171L106.1 83.4176C106.308 82.5817 106.639 81.7813 107.08 81.0425L107.167 80.8968C107.689 80.0242 108.374 79.2615 109.185 78.6509C109.735 78.2365 110.338 77.8967 110.976 77.6402L111.061 77.6062C112.068 77.2019 113.143 76.9941 114.227 76.9941H116.616C117.694 76.9941 118.764 77.1684 119.785 77.5104L120.223 77.6568C120.955 77.9018 121.643 78.2636 122.26 78.7284C123.003 79.2878 123.631 79.9866 124.109 80.7861L124.928 82.1569L126.27 79.7992C126.742 78.9704 127.378 78.2475 128.138 77.6748C128.737 77.224 129.405 76.873 130.115 76.6353L130.585 76.4778C131.607 76.1359 132.677 75.9615 133.755 75.9615H134.7L137.754 76.3449C138.458 76.4331 139.147 76.6116 139.805 76.8759L139.877 76.9046C140.872 77.3043 141.776 77.9027 142.534 78.6637C143.136 79.2676 143.636 79.9649 144.017 80.7288L144.311 81.3195C144.759 82.2179 145.085 83.1722 145.281 84.1572C145.426 84.8869 145.5 85.6293 145.5 86.3736V106.938L154.242 111.585L157.477 113.651C159.084 114.678 160.542 115.924 161.808 117.353L162.454 118.083C163.49 119.254 164.391 120.539 165.138 121.914L166.065 123.62C166.752 124.884 167.276 126.231 167.623 127.628C167.959 128.974 168.128 130.355 168.128 131.742V139.463L167.781 143.644C167.67 144.984 167.428 146.31 167.061 147.602L165.193 154.166C164.751 155.717 164.13 157.211 163.342 158.617L159.899 164.761L153.728 175.086L143.905 187.637C142.914 188.903 142.074 190.28 141.403 191.742L140.346 194.04C139.67 195.511 139.168 197.056 138.852 198.644L137.785 203.998L136.243 210.193L135.214 218.454L134.7 223.616V229.673C134.7 230.108 134.647 230.541 134.541 230.963L134.362 231.685C134.246 232.148 134.008 232.571 133.671 232.909C133.335 233.247 132.913 233.487 132.451 233.603L129.957 234.229C129.348 234.381 128.729 234.486 128.104 234.54L123.152 234.974H107.443L102.3 234.458L93.0428 232.393L85.0675 229.891C84.899 229.838 84.735 229.772 84.5771 229.693C83.4617 229.133 82.7572 227.988 82.7572 226.736V226.714L83.2715 216.388L83.7858 208.128L84.3 198.835L84.8143 193.672V193.177C84.8143 190.441 84.2308 187.737 83.103 185.246C82.5313 183.984 81.8248 182.787 80.9958 181.678L77.6144 177.152L73.8643 172.018C72.6007 170.288 71.6132 168.371 70.9375 166.336L69.9001 163.212L69.2711 160.054C69.0054 158.721 68.8716 157.364 68.8716 156.004V142.561L69.1452 140.089C69.3052 138.643 69.6169 137.219 70.075 135.839Z" fill="#FFFCFC"/>
<path d="M71.443 131.719L70.075 135.839C69.6169 137.219 69.3052 138.643 69.1452 140.089L68.8716 142.561V156.004C68.8716 157.364 69.0054 158.721 69.2711 160.054L69.9001 163.212L70.9375 166.336C71.6132 168.371 72.6007 170.288 73.8643 172.018L77.6144 177.152L80.9958 181.678C81.8248 182.787 82.5313 183.984 83.103 185.246C84.2308 187.737 84.8143 190.441 84.8143 193.178V193.672L84.3 198.835L83.7858 208.128L83.2715 216.388L82.7572 226.714V226.736C82.7572 227.988 83.4617 229.133 84.5771 229.693C84.735 229.772 84.899 229.838 85.0675 229.891L93.0428 232.393L102.3 234.458L107.443 234.974H123.152L128.104 234.54C128.729 234.486 129.348 234.381 129.957 234.229L132.451 233.603C132.913 233.487 133.335 233.247 133.671 232.909C134.008 232.571 134.246 232.148 134.362 231.685L134.541 230.963C134.647 230.541 134.7 230.108 134.7 229.673V223.616L135.214 218.454L136.243 210.193L137.785 203.998L138.852 198.644C139.168 197.056 139.67 195.511 140.346 194.04L141.403 191.742C142.074 190.28 142.914 188.903 143.905 187.637L153.728 175.086L159.899 164.761L163.342 158.617C164.13 157.211 164.751 155.717 165.193 154.166L167.061 147.602C167.428 146.31 167.67 144.984 167.781 143.644L168.128 139.463V131.742C168.128 130.355 167.959 128.974 167.623 127.628C167.276 126.231 166.752 124.884 166.065 123.62L165.138 121.914C164.391 120.539 163.49 119.254 162.454 118.083L161.808 117.353C160.542 115.924 159.084 114.678 157.477 113.651L154.242 111.585L145.5 106.938M71.443 131.719L70.9287 129.654L70.6212 127.493C70.4835 126.526 70.4144 125.55 70.4144 124.573V111.43C70.4144 110.846 70.4727 110.26 70.5868 109.687C70.8115 108.559 71.2558 107.478 71.8915 106.521L71.9848 106.38C72.6439 105.388 73.5144 104.555 74.5333 103.941L74.5622 103.923C75.2219 103.526 75.9366 103.229 76.683 103.042C77.3016 102.886 77.9368 102.808 78.5744 102.808H81.2829C81.9205 102.808 82.5557 102.886 83.1743 103.042C83.9207 103.229 84.6354 103.526 85.2951 103.923L86.8715 104.873M71.443 131.719L72.7305 135.166C72.8988 135.616 73.1612 136.026 73.5001 136.366M145.5 106.938V112.533C145.5 113.615 145.326 114.689 144.985 115.715C144.649 117.066 143.953 118.3 142.972 119.285L142.414 119.845M145.5 106.938V86.3736C145.5 85.6293 145.426 84.8869 145.281 84.1572C145.085 83.1722 144.759 82.2179 144.311 81.3195L144.017 80.7288C143.636 79.9649 143.136 79.2676 142.534 78.6637C141.776 77.9027 140.872 77.3043 139.877 76.9046L139.805 76.8759C139.147 76.6116 138.458 76.4331 137.754 76.3449L134.7 75.9615H133.755C132.677 75.9615 131.607 76.1359 130.585 76.4778L130.115 76.6353C129.405 76.873 128.737 77.224 128.138 77.6748C127.378 78.2475 126.742 78.9704 126.27 79.7992L124.928 82.1569M124.928 82.1569L124.814 82.7331C124.548 84.0666 124.414 85.4232 124.414 86.7831V114.138C124.414 114.498 124.472 114.857 124.585 115.198M124.928 82.1569L124.109 80.7861C123.631 79.9866 123.003 79.2878 122.26 78.7284C121.643 78.2636 120.955 77.9018 120.223 77.6568L119.785 77.5104C118.764 77.1684 117.694 76.9941 116.616 76.9941H114.227C113.143 76.9941 112.068 77.2019 111.061 77.6062L110.976 77.6402C110.338 77.8967 109.735 78.2365 109.185 78.6509C108.374 79.2615 107.689 80.0242 107.167 80.8968L107.08 81.0425C106.639 81.7813 106.308 82.5817 106.1 83.4176L105.851 84.4171C105.542 85.6591 105.386 86.9344 105.386 88.2145V98.1614M125.443 117.78L124.414 121.394M125.443 117.78L124.585 115.198M125.443 117.78L128.528 120.878M128.528 120.878L129.152 123.693C129.416 124.889 130.015 125.984 130.878 126.85C131.365 127.34 131.928 127.747 132.545 128.056L132.871 128.22C134.074 128.824 135.4 129.138 136.744 129.138H138.814M128.528 120.878V114.968C128.528 114.093 128.65 113.223 128.889 112.382L129.139 111.505C129.413 110.541 129.927 109.664 130.633 108.955C131.278 108.308 132.064 107.82 132.93 107.53L133.584 107.311C134.323 107.064 135.097 106.938 135.876 106.938H135.93C136.816 106.938 137.694 107.108 138.516 107.438L138.788 107.547C139.484 107.827 140.116 108.245 140.646 108.777C141.461 109.596 142.002 110.65 142.191 111.792L142.308 112.498C142.379 112.921 142.414 113.349 142.414 113.778V119.845M138.814 129.138L139.423 128.679C140.373 127.964 141.125 127.018 141.61 125.93C141.802 125.497 141.951 125.045 142.053 124.582L142.148 124.152C142.325 123.348 142.414 122.527 142.414 121.704V119.845M138.814 129.138L142.414 131.719L147.557 136.366M128.528 123.459L124.414 121.394M124.414 121.394L122.871 123.975M122.871 123.975V117.61C122.871 116.697 122.725 115.789 122.437 114.923L122.191 114.182C121.639 112.519 120.432 111.134 118.87 110.35C118.456 110.143 118.016 109.979 117.568 109.866C116.658 109.638 115.708 109.615 114.788 109.8L114.613 109.835C113.952 109.968 113.319 110.214 112.741 110.562C111.639 111.225 110.784 112.233 110.307 113.43L110.014 114.166C109.674 115.192 109.5 116.266 109.5 117.347V125.279M122.871 123.975L122.357 126.04L121.717 127.753C121.118 129.357 120.295 130.866 119.271 132.236M124.585 115.198L124.928 119.329M112.586 131.719L111.191 130.319C110.752 129.879 110.387 129.37 110.109 128.813C109.709 128.008 109.5 127.121 109.5 126.221V125.279M112.586 131.719H107.443M112.586 131.719C113.952 132.062 115.355 132.236 116.763 132.236H119.271M119.271 132.236H121.759C122.836 132.236 123.906 132.061 124.928 131.719M124.928 131.719L126.095 131.133C126.688 130.836 127.252 130.486 127.781 130.087C128.618 129.458 129.361 128.712 129.988 127.872L130.585 127.073M124.928 131.719L123.715 134.788C123.3 135.838 122.799 136.852 122.219 137.82L118.757 143.594L116.784 146.234C116.044 147.225 115.394 148.281 114.842 149.389L113.754 151.574C113.318 152.448 112.945 153.352 112.638 154.279L112.323 155.225C112.156 155.73 111.952 156.223 111.715 156.7C111.269 157.596 110.944 158.547 110.748 159.528L110.528 160.631L110.014 164.245M109.5 125.279L107.995 123.948C107.628 123.623 107.295 123.261 107.001 122.867C106.279 121.901 105.811 120.767 105.64 119.57L105.459 118.296M105.386 98.1614L102.814 96.0963L101.674 95.4092C100.727 94.839 99.6894 94.4363 98.6067 94.219C97.9847 94.0941 97.3519 94.0312 96.7176 94.0312H94.9523C94.3673 94.0312 93.7844 94.1032 93.2168 94.2457C92.421 94.4454 91.6654 94.7809 90.9829 95.2377L90.4714 95.58C89.126 96.593 88.0839 97.958 87.4593 99.5256L87.3857 99.7102C87.0442 101.082 86.8715 102.49 86.8715 103.904V104.873M105.386 98.1614V117.258C105.386 117.606 105.41 117.952 105.459 118.296M87.9 126.04L88.8512 127.632C89.2376 128.278 89.7997 128.801 90.4714 129.138M87.9 126.04L87.4389 131.132C87.4035 131.523 87.3381 131.91 87.2434 132.291C86.9979 133.277 86.5586 134.203 85.9514 135.016L85.3286 135.849M87.9 126.04C87.2205 124.335 86.8715 122.515 86.8715 120.679V104.873M90.4714 129.138V128.004C90.4714 126.707 90.718 125.422 91.1978 124.217L91.2597 124.062C91.4196 123.661 91.6113 123.273 91.8329 122.902L92.3893 121.971C92.8161 121.257 93.4369 120.68 94.1789 120.307C94.7846 120.003 95.4525 119.845 96.1297 119.845H97.5723C98.3172 119.845 99.0553 119.988 99.7469 120.265C100.744 120.666 101.612 121.334 102.256 122.196L102.32 122.281C102.648 122.72 102.917 123.201 103.12 123.711L103.233 123.994C103.636 125.005 103.843 126.083 103.843 127.172V127.589M90.4714 129.138V133.205C90.4714 134.275 90.6023 135.342 90.861 136.381L91.2739 138.039C91.4231 138.638 91.6902 139.202 92.0594 139.696L92.0981 139.748C92.7092 140.566 93.5822 141.148 94.5703 141.396C94.9221 141.484 95.2833 141.529 95.6459 141.529H97.7147C98.3655 141.529 99.0104 141.404 99.6147 141.161C100.687 140.73 101.583 139.948 102.157 138.941L102.631 138.107C103.092 137.297 103.407 136.411 103.56 135.49L103.68 134.764C103.788 134.112 103.843 133.452 103.843 132.791V127.589M103.843 127.589L104.168 127.099C104.633 126.398 104.975 125.623 105.179 124.806C105.316 124.254 105.389 123.688 105.397 123.119L105.459 118.296M73.5001 136.366V134.903C73.5001 134.159 73.5733 133.417 73.7187 132.687L73.8632 131.962C73.9636 131.458 74.1304 130.97 74.3592 130.511L74.5677 130.092C74.8792 129.467 75.3477 128.934 75.9272 128.546C76.362 128.255 76.8495 128.052 77.362 127.95L77.8645 127.849C78.7179 127.677 79.5966 127.677 80.45 127.849L81.7286 128.105C82.7165 128.436 83.5331 129.147 83.9988 130.082L84.1494 130.384C84.2497 130.586 84.3356 130.794 84.4066 131.008L84.6781 131.825C85.1089 133.123 85.3286 134.482 85.3286 135.849M73.5001 136.366L73.9046 140.832C73.9769 141.63 74.2327 142.41 74.6434 143.097C75.2315 144.081 76.1319 144.857 77.1933 145.283C77.8112 145.531 78.4706 145.659 79.136 145.659H79.5725C80.3174 145.659 81.0554 145.516 81.747 145.238L81.8835 145.184C82.7913 144.819 83.5818 144.211 84.1684 143.426C84.5947 142.855 84.9031 142.205 85.0754 141.513L85.1338 141.278C85.2632 140.759 85.3286 140.225 85.3286 139.69V135.849" stroke="#7758D1" stroke-width="2"/>
</svg>
