<svg width="63" height="63" viewBox="0 0 63 63" fill="none" xmlns="http://www.w3.org/2000/svg">
<path d="M29.6619 6.88159H33.8091C34.1778 6.88159 34.3621 7.06592 34.3621 7.43456V56.096C34.3621 56.4646 34.1778 56.6489 33.8091 56.6489H29.6619C29.2932 56.6489 29.1089 56.4646 29.1089 56.096V7.43456C29.1089 7.06592 29.2932 6.88159 29.6619 6.88159Z" fill="white"/>
<path d="M8.51098 29.1387H54.9605C55.3291 29.1387 55.5135 29.323 55.5135 29.6916V33.8389C55.5135 34.2076 55.3291 34.3919 54.9605 34.3919H8.51098C8.14233 34.3919 7.95801 34.2076 7.95801 33.8389V29.6916C7.95801 29.323 8.14233 29.1387 8.51098 29.1387Z" fill="white"/>
</svg>
