<svg width="280" height="280" viewBox="0 0 280 280" fill="none" xmlns="http://www.w3.org/2000/svg">
<circle cx="140" cy="140" r="137" stroke="url(#paint0_linear_1061_1053)" stroke-width="6"/>
<path d="M81.406 109.603C81.406 96.5994 93.0769 86.058 107.474 86.058H172.643C187.04 86.058 198.71 96.5994 198.71 109.603V156.693C198.71 169.696 187.04 180.238 172.643 180.238H154.721L145.272 191.618C142.665 194.757 137.451 194.757 134.845 191.618L125.395 180.238H107.474C93.0769 180.238 81.406 169.696 81.406 156.693V109.603Z" stroke="url(#paint1_linear_1061_1053)" stroke-width="7.56803" stroke-linecap="round" stroke-linejoin="round"/>
<g clip-path="url(#clip0_1061_1053)">
<rect x="109.786" y="130.835" width="16.3974" height="16.3974" rx="8.1987" fill="url(#paint2_linear_1061_1053)" stroke="url(#paint3_linear_1061_1053)" stroke-width="2.52268"/>
<rect x="131.859" y="130.835" width="16.3974" height="16.3974" rx="8.1987" fill="url(#paint4_linear_1061_1053)" stroke="url(#paint5_linear_1061_1053)" stroke-width="2.52268"/>
<rect x="153.933" y="130.835" width="16.3974" height="16.3974" rx="8.1987" fill="url(#paint6_linear_1061_1053)" stroke="url(#paint7_linear_1061_1053)" stroke-width="2.52268"/>
</g>
<defs>
<linearGradient id="paint0_linear_1061_1053" x1="217.817" y1="-26.8444" x2="-13.6771" y2="266.191" gradientUnits="userSpaceOnUse">
<stop stop-color="#0465B2"/>
<stop offset="0.340545" stop-color="#4B2395"/>
<stop offset="1" stop-color="#A3218E"/>
</linearGradient>
<linearGradient id="paint1_linear_1061_1053" x1="172.659" y1="75.7119" x2="85.4297" y2="195.739" gradientUnits="userSpaceOnUse">
<stop stop-color="#0465B2"/>
<stop offset="0.340545" stop-color="#4B2395"/>
<stop offset="1" stop-color="#A3218E"/>
</linearGradient>
<linearGradient id="paint2_linear_1061_1053" x1="123.243" y1="127.76" x2="107.6" y2="147.561" gradientUnits="userSpaceOnUse">
<stop stop-color="#0465B2"/>
<stop offset="0.340545" stop-color="#4B2395"/>
<stop offset="1" stop-color="#A3218E"/>
</linearGradient>
<linearGradient id="paint3_linear_1061_1053" x1="123.243" y1="127.76" x2="107.6" y2="147.561" gradientUnits="userSpaceOnUse">
<stop stop-color="#0465B2"/>
<stop offset="0.340545" stop-color="#4B2395"/>
<stop offset="1" stop-color="#A3218E"/>
</linearGradient>
<linearGradient id="paint4_linear_1061_1053" x1="145.316" y1="127.76" x2="129.673" y2="147.561" gradientUnits="userSpaceOnUse">
<stop stop-color="#0465B2"/>
<stop offset="0.340545" stop-color="#4B2395"/>
<stop offset="1" stop-color="#A3218E"/>
</linearGradient>
<linearGradient id="paint5_linear_1061_1053" x1="145.316" y1="127.76" x2="129.673" y2="147.561" gradientUnits="userSpaceOnUse">
<stop stop-color="#0465B2"/>
<stop offset="0.340545" stop-color="#4B2395"/>
<stop offset="1" stop-color="#A3218E"/>
</linearGradient>
<linearGradient id="paint6_linear_1061_1053" x1="167.39" y1="127.76" x2="151.748" y2="147.561" gradientUnits="userSpaceOnUse">
<stop stop-color="#0465B2"/>
<stop offset="0.340545" stop-color="#4B2395"/>
<stop offset="1" stop-color="#A3218E"/>
</linearGradient>
<linearGradient id="paint7_linear_1061_1053" x1="167.39" y1="127.76" x2="151.748" y2="147.561" gradientUnits="userSpaceOnUse">
<stop stop-color="#0465B2"/>
<stop offset="0.340545" stop-color="#4B2395"/>
<stop offset="1" stop-color="#A3218E"/>
</linearGradient>
<clipPath id="clip0_1061_1053">
<rect width="75.6803" height="75.6803" fill="white" transform="translate(102.218 101.194)"/>
</clipPath>
</defs>
</svg>
