<svg width="280" height="280" viewBox="0 0 280 280" fill="none" xmlns="http://www.w3.org/2000/svg">
<circle cx="140" cy="140" r="137" stroke="url(#paint0_linear_1061_1193)" stroke-width="6"/>
<path fill-rule="evenodd" clip-rule="evenodd" d="M110.7 185.659C110.92 186.082 111.194 186.485 111.523 186.858C113.713 189.345 117.504 189.585 119.991 187.395L217.505 101.503C219.992 99.3122 220.232 95.5209 218.042 93.0342C215.851 90.5476 212.06 90.3073 209.573 92.4976L116.296 174.658L71.6701 133.687C69.2292 131.445 65.2716 131.445 62.8307 133.687C60.3898 135.928 60.3898 139.561 62.8307 141.802L109.98 185.091C110.207 185.3 110.448 185.489 110.7 185.659Z" fill="url(#paint1_linear_1061_1193)"/>
<defs>
<linearGradient id="paint0_linear_1061_1193" x1="217.817" y1="-26.8444" x2="-13.6771" y2="266.191" gradientUnits="userSpaceOnUse">
<stop stop-color="#0465B2"/>
<stop offset="0.340545" stop-color="#4B2395"/>
<stop offset="1" stop-color="#A3218E"/>
</linearGradient>
<linearGradient id="paint1_linear_1061_1193" x1="184.331" y1="81.6148" x2="118.769" y2="216.021" gradientUnits="userSpaceOnUse">
<stop stop-color="#0465B2"/>
<stop offset="0.340545" stop-color="#4B2395"/>
<stop offset="1" stop-color="#A3218E"/>
</linearGradient>
</defs>
</svg>
