<svg width="280" height="280" viewBox="0 0 280 280" fill="none" xmlns="http://www.w3.org/2000/svg">
<path fill-rule="evenodd" clip-rule="evenodd" d="M140 274C214.006 274 274 214.006 274 140C274 65.9938 214.006 6 140 6C65.9938 6 6 65.9938 6 140C6 214.006 65.9938 274 140 274ZM140 280C217.32 280 280 217.32 280 140C280 62.6801 217.32 0 140 0C62.6801 0 0 62.6801 0 140C0 217.32 62.6801 280 140 280ZM194 65H85C82.7909 65 81 66.7909 81 69V210C81 212.209 82.7909 214 85 214H194C196.209 214 198 212.209 198 210V69C198 66.7909 196.209 65 194 65ZM85 59C79.4771 59 75 63.4771 75 69V210C75 215.523 79.4771 220 85 220H194C199.523 220 204 215.523 204 210V69C204 63.4772 199.523 59 194 59H85ZM100 95C98.3431 95 97 96.3431 97 98C97 99.6569 98.3431 101 100 101H179C180.657 101 182 99.6569 182 98C182 96.3431 180.657 95 179 95H100ZM97 126C97 124.343 98.3431 123 100 123H163C164.657 123 166 124.343 166 126C166 127.657 164.657 129 163 129H100C98.3431 129 97 127.657 97 126ZM100 148C98.3431 148 97 149.343 97 151C97 152.657 98.3431 154 100 154H147C148.657 154 150 152.657 150 151C150 149.343 148.657 148 147 148H100Z" fill="url(#paint0_linear_1061_1064)"/>
<defs>
<linearGradient id="paint0_linear_1061_1064" x1="217.817" y1="-26.8444" x2="-13.6771" y2="266.191" gradientUnits="userSpaceOnUse">
<stop stop-color="#0465B2"/>
<stop offset="0.340545" stop-color="#4B2395"/>
<stop offset="1" stop-color="#A3218E"/>
</linearGradient>
</defs>
</svg>
