<svg width="153" height="175" viewBox="0 0 153 175" fill="none" xmlns="http://www.w3.org/2000/svg">
<path fill-rule="evenodd" clip-rule="evenodd" d="M82.8155 5.06884C82.8155 6.90931 81.5012 8.05816 80.2837 8.05816C79.0662 8.05816 77.7519 6.90931 77.7519 5.06884C77.7519 3.22838 79.0662 2.07953 80.2837 2.07953C81.5012 2.07953 82.8155 3.22838 82.8155 5.06884ZM81.0626 10.0657C83.2384 9.65882 84.895 7.57649 84.895 5.06884C84.895 2.2694 82.8304 0 80.2837 0C77.737 0 75.6724 2.2694 75.6724 5.06884C75.6724 7.37181 77.0696 9.31607 78.983 9.93325V48.8689L69.2875 48.8688V33.7109C71.4392 33.2823 73.0711 31.2124 73.0711 28.7235C73.0711 25.9241 71.0066 23.6547 68.4598 23.6547C65.9131 23.6547 63.8486 25.9241 63.8486 28.7235C63.8486 31.046 65.2695 33.0036 67.2079 33.6033V48.8688H56.0447V40.031L56.2814 39.7709L38.6054 20.3409C39.3048 19.4522 39.728 18.2935 39.728 17.0261C39.728 14.2267 37.6634 11.9573 35.1167 11.9573C32.57 11.9573 30.5054 14.2267 30.5054 17.0261C30.5054 19.8256 32.57 22.095 35.1167 22.095C35.7879 22.095 36.4257 21.9373 37.001 21.6538L53.9652 40.3013V48.8688H54.6224C51.7511 48.8688 49.4235 51.1964 49.4235 54.0677V53.8077H38.5788L31.1186 49.0731C31.3332 48.488 31.4513 47.8488 31.4513 47.1793C31.4513 44.3799 29.3867 42.1105 26.84 42.1105C24.2932 42.1105 22.2287 44.3799 22.2287 47.1793C22.2287 49.9787 24.2932 52.2481 26.84 52.2481C28.0786 52.2481 29.2031 51.7114 30.0315 50.8379L37.8362 55.7911V55.8872H49.4235V67.3245H31.3279C30.8474 65.0891 29.0204 63.4255 26.84 63.4255C24.2932 63.4255 22.2287 65.6949 22.2287 68.4943C22.2287 71.2938 24.2932 73.5632 26.84 73.5632C29.1042 73.5632 30.9873 71.7694 31.3772 69.4041L49.4235 69.4041V81.3615L9.1485 81.3615C8.75857 78.9962 6.8755 77.2023 4.61128 77.2023C2.06454 77.2023 0 79.4717 0 82.2712C0 85.0706 2.06454 87.34 4.61128 87.34C6.79175 87.34 8.61874 85.6765 9.09916 83.441H49.4235V92.7988H22.0428C21.4813 90.6955 19.7126 89.1596 17.6175 89.1596C15.0707 89.1596 13.0062 91.429 13.0062 94.2285C13.0062 97.0279 15.0707 99.2973 17.6175 99.2973C19.9639 99.2973 21.901 97.3709 22.1912 94.8783H49.4235V105.796H30.0325V105.881L29.9112 105.782L21.8262 117.777C21.2012 117.429 20.4943 117.233 19.7458 117.233C17.1991 117.233 15.1345 119.503 15.1345 122.302C15.1345 125.101 17.1991 127.371 19.7458 127.371C22.2926 127.371 24.3571 125.101 24.3571 122.302C24.3571 121.124 23.9916 120.04 23.3785 119.179L30.998 107.875H49.4235V108.655C49.4235 111.526 51.7511 113.854 54.6224 113.854H103.344C106.205 113.854 108.526 111.543 108.542 108.686V108.915H126.01L139.729 120.389C139.444 121.047 139.284 121.784 139.284 122.562C139.284 125.361 141.349 127.631 143.896 127.631C146.442 127.631 148.507 125.361 148.507 122.562C148.507 119.763 146.442 117.493 143.896 117.493C142.763 117.493 141.725 117.942 140.922 118.687L126.751 106.836L126.751 106.836V106.836H108.543L108.543 98.2576H136.048C136.438 100.623 138.321 102.417 140.585 102.417C143.132 102.417 145.196 100.147 145.196 97.3477C145.196 94.5482 143.132 92.2788 140.585 92.2788C138.404 92.2788 136.577 93.9425 136.097 96.1781H108.543L108.542 83.7009L143.963 83.701C144.525 85.8042 146.294 87.34 148.389 87.34C150.936 87.34 153 85.0706 153 82.2712C153 79.4717 150.936 77.2023 148.389 77.2023C146.042 77.2023 144.105 79.1289 143.815 81.6214H108.542L108.543 70.9638H122.618C123.098 73.1993 124.925 74.8629 127.106 74.8629C129.653 74.8629 131.717 72.5935 131.717 69.7941C131.717 66.9946 129.653 64.7252 127.106 64.7252C124.842 64.7252 122.959 66.519 122.569 68.8843H108.543V56.4071H116.751L116.947 56.583L130.265 38.6908C130.989 39.2095 131.853 39.511 132.781 39.511C135.328 39.511 137.393 37.2416 137.393 34.4421C137.393 31.6427 135.328 29.3733 132.781 29.3733C130.235 29.3733 128.17 31.6427 128.17 34.4421C128.17 35.4214 128.423 36.3358 128.86 37.1109L116.044 54.3276H108.543L108.543 54.0677C108.543 51.2026 106.225 48.8788 103.362 48.8689H104.001V29.3076L108.817 23.169C109.415 23.4804 110.083 23.6546 110.789 23.6546C113.336 23.6546 115.4 21.3852 115.4 18.5857C115.4 15.7863 113.336 13.5169 110.789 13.5169C108.242 13.5169 106.178 15.7863 106.178 18.5857C106.178 19.8169 106.577 20.9455 107.241 21.8236L101.831 28.7187L101.973 28.8534H101.921V48.8689L94.3052 48.8689V18.3325C96.3634 17.8241 97.901 15.8029 97.901 13.3869C97.901 10.5875 95.8365 8.3181 93.2898 8.3181C90.743 8.3181 88.6785 10.5875 88.6785 13.3869C88.6785 15.7838 90.1919 17.7921 92.2256 18.3202V48.8689L81.0626 48.8689L81.0626 10.0657ZM93.2898 16.3763C94.5072 16.3763 95.8215 15.2274 95.8215 13.3869C95.8215 11.5465 94.5072 10.3976 93.2898 10.3976C92.0723 10.3976 90.758 11.5465 90.758 13.3869C90.758 15.2274 92.0723 16.3763 93.2898 16.3763ZM113.514 132.635C113.357 133.145 113.272 133.691 113.272 134.259C113.272 137.059 115.337 139.328 117.883 139.328C120.43 139.328 122.495 137.059 122.495 134.259C122.495 131.46 120.43 129.191 117.883 129.191C116.548 129.191 115.345 129.815 114.503 130.812L104.001 124.739V113.854H101.921V125.695L101.833 125.88L113.514 132.635ZM76.9035 164.471C74.9651 165.071 73.544 167.029 73.544 169.351C73.544 172.151 75.6086 174.42 78.1553 174.42C80.7021 174.42 82.7666 172.151 82.7666 169.351C82.7666 166.862 81.1348 164.793 78.983 164.364L78.983 113.854H76.9035L76.9035 164.471ZM59.8285 157.394C59.8285 154.978 61.3661 152.957 63.4244 152.449V114.114L65.5039 114.114V152.461C67.5376 152.989 69.051 154.997 69.051 157.394C69.051 160.194 66.9865 162.463 64.4398 162.463C61.893 162.463 59.8285 160.194 59.8285 157.394ZM61.908 157.394C61.908 155.554 63.2223 154.405 64.4398 154.405C65.6572 154.405 66.9715 155.554 66.9715 157.394C66.9715 159.235 65.6572 160.383 64.4398 160.383C63.2223 160.383 61.908 159.235 61.908 157.394ZM55.8083 114.114V132.251L55.8806 132.31L48.3553 143.474C49.301 144.402 49.8964 145.753 49.8964 147.256C49.8964 150.056 47.8319 152.325 45.2851 152.325C42.7384 152.325 40.6738 150.056 40.6738 147.256C40.6738 144.457 42.7384 142.187 45.2851 142.187C45.7372 142.187 46.1741 142.259 46.587 142.392L53.7288 131.797V114.114H55.8083ZM88.6785 113.854V134.518C87.0121 135.282 85.8408 137.09 85.8408 139.198C85.8408 141.998 87.9054 144.267 90.4521 144.267C92.9989 144.267 95.0634 141.998 95.0634 139.198C95.0634 136.512 93.1622 134.313 90.758 134.14L90.758 113.854H88.6785ZM26.84 50.1686C28.0575 50.1686 29.3717 49.0198 29.3717 47.1793C29.3717 45.3388 28.0575 44.19 26.84 44.19C25.6225 44.19 24.3082 45.3388 24.3082 47.1793C24.3082 49.0198 25.6225 50.1686 26.84 50.1686ZM29.3717 68.4943C29.3717 70.3348 28.0575 71.4837 26.84 71.4837C25.6225 71.4837 24.3082 70.3348 24.3082 68.4943C24.3082 66.6539 25.6225 65.505 26.84 65.505C28.0575 65.505 29.3717 66.6539 29.3717 68.4943ZM4.61128 85.2605C5.82877 85.2605 7.14304 84.1117 7.14304 82.2712C7.14304 80.4307 5.82877 79.2819 4.61128 79.2819C3.3938 79.2819 2.07953 80.4307 2.07953 82.2712C2.07953 84.1117 3.3938 85.2605 4.61128 85.2605ZM20.1492 94.2285C20.1492 96.0689 18.8349 97.2178 17.6175 97.2178C16.4 97.2178 15.0857 96.0689 15.0857 94.2285C15.0857 92.388 16.4 91.2391 17.6175 91.2391C18.8349 91.2391 20.1492 92.388 20.1492 94.2285ZM19.7458 125.291C20.9633 125.291 22.2776 124.142 22.2776 122.302C22.2776 120.462 20.9633 119.313 19.7458 119.313C18.5283 119.313 17.2141 120.462 17.2141 122.302C17.2141 124.142 18.5283 125.291 19.7458 125.291ZM47.8169 147.256C47.8169 149.097 46.5026 150.246 45.2851 150.246C44.0676 150.246 42.7534 149.097 42.7534 147.256C42.7534 145.416 44.0676 144.267 45.2851 144.267C46.5026 144.267 47.8169 145.416 47.8169 147.256ZM80.6871 169.351C80.6871 171.192 79.3728 172.341 78.1553 172.341C76.9378 172.341 75.6236 171.192 75.6236 169.351C75.6236 167.511 76.9378 166.362 78.1553 166.362C79.3728 166.362 80.6871 167.511 80.6871 169.351ZM90.4521 142.188C91.6696 142.188 92.9839 141.039 92.9839 139.198C92.9839 137.358 91.6696 136.209 90.4521 136.209C89.2346 136.209 87.9204 137.358 87.9204 139.198C87.9204 141.039 89.2346 142.188 90.4521 142.188ZM120.415 134.259C120.415 136.1 119.101 137.249 117.883 137.249C116.666 137.249 115.352 136.1 115.352 134.259C115.352 132.419 116.666 131.27 117.883 131.27C119.101 131.27 120.415 132.419 120.415 134.259ZM143.896 125.551C145.113 125.551 146.427 124.402 146.427 122.562C146.427 120.722 145.113 119.573 143.896 119.573C142.678 119.573 141.364 120.722 141.364 122.562C141.364 124.402 142.678 125.551 143.896 125.551ZM143.117 97.3477C143.117 99.1881 141.802 100.337 140.585 100.337C139.368 100.337 138.053 99.1881 138.053 97.3477C138.053 95.5072 139.368 94.3584 140.585 94.3584C141.802 94.3584 143.117 95.5072 143.117 97.3477ZM148.389 85.2605C149.606 85.2605 150.921 84.1117 150.921 82.2712C150.921 80.4307 149.606 79.2819 148.389 79.2819C147.171 79.2819 145.857 80.4307 145.857 82.2712C145.857 84.1117 147.171 85.2605 148.389 85.2605ZM129.638 69.7941C129.638 71.6346 128.323 72.7834 127.106 72.7834C125.888 72.7834 124.574 71.6346 124.574 69.7941C124.574 67.9536 125.888 66.8048 127.106 66.8048C128.323 66.8048 129.638 67.9536 129.638 69.7941ZM132.781 37.4314C133.999 37.4314 135.313 36.2826 135.313 34.4421C135.313 32.6017 133.999 31.4528 132.781 31.4528C131.564 31.4528 130.25 32.6017 130.25 34.4421C130.25 36.2826 131.564 37.4314 132.781 37.4314ZM113.321 18.5857C113.321 20.4262 112.006 21.575 110.789 21.575C109.572 21.575 108.257 20.4262 108.257 18.5857C108.257 16.7453 109.572 15.5964 110.789 15.5964C112.006 15.5964 113.321 16.7453 113.321 18.5857ZM68.4598 31.7128C69.6773 31.7128 70.9916 30.564 70.9916 28.7235C70.9916 26.883 69.6773 25.7342 68.4598 25.7342C67.2424 25.7342 65.9281 26.883 65.9281 28.7235C65.9281 30.564 67.2424 31.7128 68.4598 31.7128ZM37.6484 17.0261C37.6484 18.8666 36.3342 20.0154 35.1167 20.0154C33.8992 20.0154 32.5849 18.8666 32.5849 17.0261C32.5849 15.1856 33.8992 14.0368 35.1167 14.0368C36.3342 14.0368 37.6484 15.1856 37.6484 17.0261ZM97.1953 59.2666H60.5342C59.8164 59.2666 59.2345 59.8485 59.2345 60.5663V101.897C59.2345 102.615 59.8164 103.197 60.5342 103.197H97.1954C97.9132 103.197 98.4951 102.615 98.4951 101.897V60.5663C98.4951 59.8485 97.9132 59.2666 97.1953 59.2666ZM60.5342 55.3675C57.663 55.3675 55.3354 57.6951 55.3354 60.5663V101.897C55.3354 104.768 57.663 107.096 60.5342 107.096H97.1954C100.067 107.096 102.394 104.768 102.394 101.897V60.5663C102.394 57.6951 100.067 55.3675 97.1953 55.3675H60.5342ZM72.2674 90.765V72.6039H68.2667V90.765H72.2674ZM85.4801 72.8934C85.2344 72.7004 84.9449 72.6039 84.6115 72.6039H80.7951C80.4617 72.6039 80.1634 72.7004 79.9002 72.8934C79.6545 73.0865 79.4878 73.3409 79.4001 73.6567L74.1097 90.765H78.242L79.5742 85.9747H85.8324L87.1646 90.765H91.2706L86.0065 73.6567C85.9188 73.3409 85.7433 73.0865 85.4801 72.8934ZM83.4534 77.4206L84.9906 82.9479H80.416L81.9532 77.4206C82.0409 77.1223 82.1111 76.824 82.1637 76.5257C82.2339 76.2098 82.2953 75.9115 82.348 75.6308H83.0586C83.1113 75.9115 83.1727 76.2098 83.2429 76.5257L83.4534 77.4206Z" fill="url(#paint0_linear_370_5)"/>
<defs>
<linearGradient id="paint0_linear_370_5" x1="119.022" y1="-16.7222" x2="-28.3995" y2="146.972" gradientUnits="userSpaceOnUse">
<stop stop-color="#0465B2"/>
<stop offset="0.340545" stop-color="#4B2395"/>
<stop offset="1" stop-color="#A3218E"/>
</linearGradient>
</defs>
</svg>
