<svg width="280" height="280" viewBox="0 0 280 280" fill="none" xmlns="http://www.w3.org/2000/svg">
<path fill-rule="evenodd" clip-rule="evenodd" d="M274 140C274 214.006 214.006 274 140 274C65.9938 274 6 214.006 6 140C6 65.9938 65.9938 6 140 6C214.006 6 274 65.9938 274 140ZM280 140C280 217.32 217.32 280 140 280C62.6801 280 0 217.32 0 140C0 62.6801 62.6801 0 140 0C217.32 0 280 62.6801 280 140ZM221 168.24C219.74 144.708 209.354 119.363 197.104 95.6275C190.137 82.1279 173.114 78.6818 159.338 85.183C144.151 92.3496 133.156 92.9148 120.66 86.8785C107.036 80.297 90.0339 81.0966 82.5607 94.2084C69.3168 117.445 60.5534 143.224 60.0084 168.24C59.5283 190.278 79.7157 204.597 97.8063 191.885L124.371 173.219C133.442 166.845 145.55 166.804 154.665 173.115L182.284 192.242C200.665 204.97 221 190.529 221 168.24ZM139.352 98.8559C131.613 99.2082 124.433 97.462 117.203 93.9699C111.569 91.2483 105.518 90.21 100.465 90.9556C95.5944 91.6742 91.7978 93.9748 89.4476 98.0982C76.657 120.539 68.4339 145.042 67.9248 168.411C67.7373 177.017 71.5645 183.412 76.2945 186.508C80.7544 189.428 86.787 189.98 93.24 185.446L119.805 166.779C131.597 158.493 147.338 158.439 159.187 166.645L186.806 185.771C193.402 190.339 199.578 189.785 204.201 186.776C209.064 183.61 213.021 177.129 213.081 168.442C211.862 146.713 202.171 122.693 190.061 99.2295C185.546 90.481 173.711 87.1233 162.73 92.3056C154.579 96.1518 146.972 98.5091 139.352 98.8559ZM130.841 128.828C130.841 138.26 123.16 145.907 113.685 145.907C104.21 145.907 96.529 138.26 96.529 128.828C96.529 119.396 104.21 111.75 113.685 111.75C123.16 111.75 130.841 119.396 130.841 128.828ZM122.923 128.828C122.923 133.907 118.787 138.024 113.685 138.024C108.583 138.024 104.447 133.907 104.447 128.828C104.447 123.749 108.583 119.632 113.685 119.632C118.787 119.632 122.923 123.749 122.923 128.828ZM179.4 128.693C179.4 130.87 177.627 132.634 175.441 132.634H167.659V140.382C167.659 142.559 165.887 144.323 163.7 144.323C161.513 144.323 159.741 142.559 159.741 140.382V132.634H151.957C149.77 132.634 147.998 130.87 147.998 128.693C147.998 126.517 149.77 124.752 151.957 124.752H159.741V117.005C159.741 114.828 161.513 113.063 163.7 113.063C165.887 113.063 167.659 114.828 167.659 117.005V124.752H175.441C177.627 124.752 179.4 126.517 179.4 128.693Z" fill="url(#paint0_linear_1061_1090)"/>
<defs>
<linearGradient id="paint0_linear_1061_1090" x1="217.817" y1="-26.8444" x2="-13.6771" y2="266.191" gradientUnits="userSpaceOnUse">
<stop stop-color="#0465B2"/>
<stop offset="0.340545" stop-color="#4B2395"/>
<stop offset="1" stop-color="#A3218E"/>
</linearGradient>
</defs>
</svg>
