<svg width="4586" height="1184" viewBox="0 0 4586 1184" fill="none" xmlns="http://www.w3.org/2000/svg">
<path d="M1489.7 774.128C1474.5 774.128 1460.5 770.328 1447.7 762.728C1435.3 755.128 1425.3 745.128 1417.69 732.727C1410.09 719.927 1406.29 705.926 1406.29 690.726V342.115H1485.5V687.126C1485.5 689.126 1486.1 690.926 1487.3 692.526C1488.9 693.726 1490.7 694.326 1492.7 694.326H1750.71C1752.71 694.326 1754.51 693.726 1756.11 692.526C1757.71 690.926 1758.51 689.126 1758.51 687.126V342.115H1838.31V690.726C1838.31 705.926 1834.51 719.927 1826.91 732.727C1819.31 745.128 1809.11 755.128 1796.31 762.728C1783.91 770.328 1770.11 774.128 1754.91 774.128H1489.7ZM2059.19 774.128V421.918H1882.78V342.115H2314.8V421.918H2138.99V774.128H2059.19ZM2441.87 774.128C2426.67 774.128 2412.67 770.328 2399.87 762.728C2387.47 755.128 2377.47 745.128 2369.87 732.727C2362.27 719.927 2358.47 705.926 2358.47 690.726V425.518C2358.47 410.317 2362.27 396.517 2369.87 384.116C2377.47 371.316 2387.47 361.116 2399.87 353.515C2412.67 345.915 2426.67 342.115 2441.87 342.115H2707.08C2722.28 342.115 2736.08 345.915 2748.48 353.515C2761.28 361.116 2771.49 371.316 2779.09 384.116C2786.69 396.517 2790.49 410.317 2790.49 425.518V690.726C2790.49 705.926 2786.69 719.927 2779.09 732.727C2771.49 745.128 2761.28 755.128 2748.48 762.728C2736.08 770.328 2722.28 774.128 2707.08 774.128H2441.87ZM2444.88 694.326H2702.88C2704.88 694.326 2706.68 693.726 2708.28 692.526C2709.88 690.926 2710.68 689.126 2710.68 687.126V429.118C2710.68 427.118 2709.88 425.518 2708.28 424.318C2706.68 422.718 2704.88 421.918 2702.88 421.918H2444.88C2442.87 421.918 2441.07 422.718 2439.47 424.318C2438.27 425.518 2437.67 427.118 2437.67 429.118V687.126C2437.67 689.126 2438.27 690.926 2439.47 692.526C2441.07 693.726 2442.87 694.326 2444.88 694.326ZM3200.97 774.128L3070.77 618.724H3174.57L3287.38 751.928V774.128H3200.97ZM2856.56 774.128V342.715H3204.57C3219.77 342.715 3233.77 346.515 3246.57 354.115C3259.38 361.716 3269.58 371.916 3277.18 384.716C3284.78 397.117 3288.58 410.917 3288.58 426.118V542.521C3288.58 557.722 3284.78 571.722 3277.18 584.523C3269.58 597.323 3259.38 607.523 3246.57 615.124C3233.77 622.324 3219.77 625.924 3204.57 625.924L2935.77 626.524V774.128H2856.56ZM2942.97 546.121H3200.97C3202.97 546.121 3204.77 545.521 3206.37 544.321C3207.97 543.121 3208.77 541.521 3208.77 539.521V429.118C3208.77 427.118 3207.97 425.518 3206.37 424.318C3204.77 422.718 3202.97 421.918 3200.97 421.918H2942.97C2940.97 421.918 2939.17 422.718 2937.57 424.318C2936.37 425.518 2935.77 427.118 2935.77 429.118V539.521C2935.77 541.521 2936.37 543.121 2937.57 544.321C2939.17 545.521 2940.97 546.121 2942.97 546.121ZM3352.9 774.128V425.518C3352.9 410.317 3356.7 396.517 3364.3 384.116C3371.9 371.316 3381.9 361.116 3394.3 353.515C3407.1 345.915 3421.1 342.115 3436.3 342.115H3700.91C3716.11 342.115 3730.11 345.915 3742.91 353.515C3755.71 361.116 3765.91 371.316 3773.51 384.116C3781.11 396.517 3784.91 410.317 3784.91 425.518V774.128H3705.11V628.924H3432.1V774.128H3352.9ZM3432.1 549.721H3705.11V429.118C3705.11 427.118 3704.31 425.518 3702.71 424.318C3701.11 422.718 3699.31 421.918 3697.31 421.918H3439.3C3437.3 421.918 3435.5 422.718 3433.9 424.318C3432.7 425.518 3432.1 427.118 3432.1 429.118V549.721ZM3852.07 774.128V695.526H3930.68V774.128H3852.07ZM3980.81 774.128V342.115H4059.42V774.128H3980.81ZM4118.74 774.128V425.518C4118.74 410.317 4122.54 396.517 4130.14 384.116C4137.74 371.316 4147.74 361.116 4160.14 353.515C4172.94 345.915 4186.94 342.115 4202.14 342.115H4466.75C4481.95 342.115 4495.95 345.915 4508.75 353.515C4521.55 361.116 4531.75 371.316 4539.35 384.116C4546.95 396.517 4550.75 410.317 4550.75 425.518V774.128H4470.95V628.924H4197.94V774.128H4118.74ZM4197.94 549.721H4470.95V429.118C4470.95 427.118 4470.15 425.518 4468.55 424.318C4466.95 422.718 4465.15 421.918 4463.15 421.918H4205.14C4203.14 421.918 4201.34 422.718 4199.74 424.318C4198.54 425.518 4197.94 427.118 4197.94 429.118V549.721Z" fill="white"/>
<path d="M870.173 919.926C831.824 926.267 794.825 929.421 758.19 929.512C638.843 929.808 517.47 897.607 360.095 826.906V388.234L767.284 531.268L861.014 498.278L760.538 462.041L760.541 462.032L277.565 295.861L757.892 273.004C774.908 272.195 788.045 257.754 787.234 240.75C786.424 223.746 771.973 210.618 754.958 211.428L279.637 234.046L767.282 65.3265L1331 265.398L1330.82 265.464L1426.15 297.194L1515.78 265.561L767.542 0L0 265.561L52.6258 283.667V710.635H114.315V304.892L298.406 368.229V866.411C523.968 972.242 687.909 1010.18 870.173 982.344V919.926Z" fill="url(#paint0_linear_1493_991)"/>
<path d="M80.9 901.691C52.2025 901.691 28.9388 878.444 28.9388 849.766C28.9388 821.089 52.2025 797.841 80.9 797.841C109.597 797.841 132.861 821.089 132.861 849.766C132.861 878.444 109.597 901.691 80.9 901.691Z" fill="url(#paint1_linear_1493_991)"/>
<path d="M48.2387 943.232C74.0522 952.501 88.9215 952.213 116.531 943.232C142.546 1031.84 151.42 1081.25 153.646 1168.74C95.3526 1188.5 64.0316 1189.67 11.1235 1168.74C12.5857 1077.21 22.4404 1028.29 48.2387 943.232Z" fill="url(#paint2_linear_1493_991)"/>
<path fill-rule="evenodd" clip-rule="evenodd" d="M1317.17 277.789L1366.8 295.617L1366.58 295.696L1396.1 306.299L1150.9 391.134V773.625H1131.23H1117.82H1098.15L1098.15 409.384L885.544 482.945L835.908 465.117L836.135 465.038L810.653 455.885L809.773 453.343L1317.17 277.789Z" fill="white"/>
<path fill-rule="evenodd" clip-rule="evenodd" d="M790.015 446.157L1297.21 270.671L1346.85 288.499L1131.14 363.131V766.439H1098.06V374.576L836.494 465.078L790.894 448.699L790.015 446.157Z" fill="white"/>
<path d="M1106.35 363.866L1106.35 773.625M1148.96 363.866L1148.96 773.625" stroke="white" stroke-width="33.0784"/>
<defs>
<linearGradient id="paint0_linear_1493_991" x1="1179.16" y1="-113.514" x2="279.799" y2="1343.95" gradientUnits="userSpaceOnUse">
<stop stop-color="#0465B2"/>
<stop offset="0.340545" stop-color="#4B2395"/>
<stop offset="1" stop-color="#A3218E"/>
</linearGradient>
<linearGradient id="paint1_linear_1493_991" x1="1179.16" y1="-113.514" x2="279.799" y2="1343.95" gradientUnits="userSpaceOnUse">
<stop stop-color="#0465B2"/>
<stop offset="0.340545" stop-color="#4B2395"/>
<stop offset="1" stop-color="#A3218E"/>
</linearGradient>
<linearGradient id="paint2_linear_1493_991" x1="1179.16" y1="-113.514" x2="279.799" y2="1343.95" gradientUnits="userSpaceOnUse">
<stop stop-color="#0465B2"/>
<stop offset="0.340545" stop-color="#4B2395"/>
<stop offset="1" stop-color="#A3218E"/>
</linearGradient>
</defs>
</svg>
