<svg width="280" height="280" viewBox="0 0 280 280" fill="none" xmlns="http://www.w3.org/2000/svg">
<path fill-rule="evenodd" clip-rule="evenodd" d="M274 140C274 214.006 214.006 274 140 274C65.9938 274 6 214.006 6 140C6 65.9938 65.9938 6 140 6C214.006 6 274 65.9938 274 140ZM280 140C280 217.32 217.32 280 140 280C62.6801 280 0 217.32 0 140C0 62.6801 62.6801 0 140 0C217.32 0 280 62.6801 280 140ZM154.046 160.736C153.161 161.283 152.138 161.582 151.089 161.6H145.544V175.1L165.507 189.68C166.546 190.439 167.279 191.529 167.577 192.759C167.876 193.99 167.721 195.284 167.14 196.415L156.05 218.015C155.589 218.912 154.881 219.667 154.005 220.194C153.129 220.721 152.119 221 151.089 221H128.908C127.878 221 126.869 220.721 125.993 220.193C125.117 219.666 124.409 218.911 123.948 218.014L112.858 196.414C112.277 195.283 112.122 193.99 112.421 192.759C112.719 191.528 113.451 190.439 114.49 189.68L134.453 175.1V161.6H128.908C127.856 161.6 126.825 161.308 125.937 160.759C125.048 160.21 124.339 159.426 123.891 158.499L79.5278 66.6993C79.1301 65.8763 78.9523 64.9688 79.0109 64.0611C79.0696 63.1533 79.3627 62.2746 79.8632 61.5066C80.3637 60.7386 81.0553 60.1062 81.8738 59.668C82.6923 59.2298 83.6112 59 84.5452 59H195.452C196.386 58.9996 197.306 59.229 198.124 59.667C198.943 60.105 199.635 60.7374 200.136 61.5055C200.637 62.2735 200.93 63.1524 200.989 64.0604C201.048 64.9684 200.87 65.8761 200.472 66.6993L156.109 158.499C155.646 159.415 154.932 160.189 154.046 160.736ZM132.336 210.2H147.661L155.151 195.616L139.999 184.55L124.847 195.616L132.336 210.2ZM159.31 80.6L164.482 69.9004L164.53 69.8H115.465L120.685 80.6H159.31ZM139.999 120.566L154.093 91.4H125.904L139.999 120.566ZM146.129 133.25L151.089 143.515L186.711 69.8H176.791L146.129 133.25ZM103.206 69.8H93.283L132.428 150.8H142.35C139.103 144.08 137.649 141.07 136.195 138.061C132.8 131.036 129.405 124.011 103.206 69.8Z" fill="url(#paint0_linear_1061_1101)"/>
<defs>
<linearGradient id="paint0_linear_1061_1101" x1="217.817" y1="-26.8444" x2="-13.6771" y2="266.191" gradientUnits="userSpaceOnUse">
<stop stop-color="#0465B2"/>
<stop offset="0.340545" stop-color="#4B2395"/>
<stop offset="1" stop-color="#A3218E"/>
</linearGradient>
</defs>
</svg>
