<svg width="280" height="280" viewBox="0 0 280 280" fill="none" xmlns="http://www.w3.org/2000/svg">
<circle cx="140" cy="140" r="137" stroke="url(#paint0_linear_1061_1085)" stroke-width="6"/>
<path d="M161.644 89.3329V201.248M118.322 82.1123V183.197M75 90.0532V203.239C75 203.983 75.7823 204.466 76.4472 204.134L117.427 183.644C117.99 183.362 118.653 183.362 119.216 183.644L160.749 204.41C161.312 204.692 161.975 204.692 162.538 204.41L204.413 183.473C204.751 183.303 204.965 182.957 204.965 182.578V76.2792C204.965 75.5967 204.297 75.1147 203.649 75.3306L162.276 89.1216C161.866 89.2584 161.422 89.2584 161.011 89.1216L118.954 75.1026C118.544 74.9658 118.1 74.9658 117.689 75.1026L75.6838 89.1045C75.2754 89.2406 75 89.6228 75 90.0532Z" stroke="url(#paint1_linear_1061_1085)" stroke-width="6" stroke-linecap="round" stroke-linejoin="round"/>
<defs>
<linearGradient id="paint0_linear_1061_1085" x1="217.817" y1="-26.8444" x2="-13.6771" y2="266.191" gradientUnits="userSpaceOnUse">
<stop stop-color="#0465B2"/>
<stop offset="0.340545" stop-color="#4B2395"/>
<stop offset="1" stop-color="#A3218E"/>
</linearGradient>
<linearGradient id="paint1_linear_1061_1085" x1="176.103" y1="62.5728" x2="69.0024" y2="198.505" gradientUnits="userSpaceOnUse">
<stop stop-color="#0465B2"/>
<stop offset="0.340545" stop-color="#4B2395"/>
<stop offset="1" stop-color="#A3218E"/>
</linearGradient>
</defs>
</svg>
