<svg width="227" height="227" viewBox="0 0 227 227" fill="none" xmlns="http://www.w3.org/2000/svg">
<mask id="mask0_2390_851" style="mask-type:luminance" maskUnits="userSpaceOnUse" x="0" y="0" width="227" height="227">
<path d="M0.395325 0.519043H226.637V227H0.395325V0.519043Z" fill="white"/>
</mask>
<g mask="url(#mask0_2390_851)">
<path d="M113.832 148.199C94.3845 148.199 78.6456 132.432 78.6456 113.018C78.6456 93.592 94.3845 77.8287 113.832 77.8287C133.261 77.8287 148.995 93.592 148.995 113.018C148.995 132.432 133.261 148.199 113.832 148.199ZM219.696 91.6116L204.081 88.6721C201.923 88.2724 200.24 86.7183 199.552 84.6624C198.162 80.4574 196.487 76.3679 194.524 72.4648C193.516 70.5288 193.641 68.2065 194.875 66.3993L203.855 53.287C206.035 50.0677 205.636 45.7206 202.869 42.9676L183.884 23.994C181.139 21.2188 176.783 20.828 173.563 23.026L160.426 31.9911C158.619 33.221 156.296 33.3276 154.365 32.3063C150.456 30.357 146.397 28.6697 142.214 27.3021C140.158 26.6138 138.572 24.9087 138.182 22.7507L135.233 7.13847C134.522 3.28425 131.151 0.509033 127.248 0.509033H100.366C96.4806 0.509033 93.1188 3.28425 92.3993 7.13847L89.4594 22.7108C89.0597 24.8377 87.5675 26.6138 85.5425 27.2621C81.2347 28.6697 77.0824 30.397 73.0944 32.4307C71.2158 33.3987 68.942 33.1722 67.2056 31.9911L54.0691 23.026C50.8494 20.828 46.4928 21.2188 43.7483 23.994L24.7719 42.9676C22.0274 45.7206 21.6055 50.0677 23.8082 53.287L32.7924 66.4304C34.0225 68.2598 34.1291 70.551 33.1299 72.4826C31.1581 76.399 29.4705 80.4574 28.116 84.6313C27.4143 86.6872 25.709 88.2724 23.5595 88.6721L7.94501 91.6116C4.10355 92.3309 1.31461 95.7011 1.31461 99.6086V126.419C1.31461 130.336 4.10355 133.697 7.94501 134.416L23.5595 137.334C25.709 137.756 27.4143 139.341 28.116 141.397C29.4705 145.58 31.1581 149.607 33.1299 153.492C34.1291 155.446 34.0447 157.746 32.7924 159.558L23.8082 172.741C21.6055 175.96 22.0274 180.316 24.7719 183.06L43.7483 202.034C46.4928 204.787 50.8494 205.209 54.0691 203.002L67.2367 194.028C69.0664 192.785 71.3668 192.714 73.3208 193.677C77.1845 195.653 81.2347 197.336 85.4003 198.695C87.4432 199.392 89.0375 201.079 89.4594 203.224L92.3993 218.89C93.1188 222.722 96.4806 225.519 100.366 225.519H127.248C131.151 225.519 134.522 222.722 135.233 218.89L138.182 203.246C138.572 201.097 140.136 199.414 142.192 198.726C146.397 197.336 150.456 195.653 154.342 193.677C156.274 192.714 158.566 192.785 160.409 194.028L173.563 203.002C176.783 205.209 181.139 204.787 183.884 202.034L202.869 183.06C205.636 180.316 206.035 175.96 203.855 172.741L194.853 159.607C193.641 157.777 193.516 155.477 194.524 153.523C196.487 149.638 198.162 145.58 199.552 141.397C200.24 139.341 201.954 137.756 204.104 137.334L219.696 134.416C223.551 133.697 226.326 130.336 226.326 126.419V99.6086C226.326 95.7011 223.551 92.3309 219.696 91.6116Z" fill="#6C33D7"/>
</g>
</svg>
