<svg width="463" height="362" viewBox="0 0 463 362" fill="none" xmlns="http://www.w3.org/2000/svg">
<path d="M265.452 280.63C253.754 282.565 242.467 283.527 231.291 283.554C194.884 283.645 157.858 273.822 109.85 252.254V118.434L234.065 162.067L262.658 152.003L232.008 140.949L232.009 140.946L84.6731 90.2546L231.2 83.2819C236.391 83.0349 240.399 78.6297 240.152 73.4425C239.904 68.2554 235.496 64.2506 230.305 64.4976L85.3052 71.3976L234.065 19.9283L406.032 80.9616L405.975 80.9816L435.059 90.6613L462.401 81.0113L234.144 0L0 81.0113L16.0539 86.5347V216.784H34.8725V93.0094L91.031 112.331V264.305C159.84 296.589 209.852 308.163 265.452 299.671V280.63Z" fill="url(#paint0_linear_492_343)"/>
<path d="M24.6791 275.068C15.9248 275.068 8.82798 267.976 8.82798 259.227C8.82798 250.479 15.9248 243.387 24.6791 243.387C33.4335 243.387 40.5303 250.479 40.5303 259.227C40.5303 267.976 33.4335 275.068 24.6791 275.068Z" fill="url(#paint1_linear_492_343)"/>
<path d="M14.7156 287.74C22.5902 290.567 27.1261 290.479 35.5485 287.74C43.4846 314.771 46.1917 329.842 46.8708 356.531C29.088 362.561 19.5333 362.916 3.3933 356.531C3.83937 328.61 6.84562 313.687 14.7156 287.74Z" fill="url(#paint2_linear_492_343)"/>
<path fill-rule="evenodd" clip-rule="evenodd" d="M401.812 84.7414L416.954 90.1801L416.884 90.2042L425.889 93.4387L351.09 119.318V236H345.09V236H335L335 124.886L270.142 147.326L255 141.887L255.069 141.863L247.296 139.071L247.027 138.295L401.812 84.7414Z" fill="white"/>
<path fill-rule="evenodd" clip-rule="evenodd" d="M241 136.103L395.724 82.5702L410.866 88.0089L345.063 110.776V233.808H334.972V114.267L255.179 141.875L241.268 136.879L241 136.103Z" fill="white"/>
<path d="M337.5 111L337.5 236M350.5 111L350.5 236" stroke="white" stroke-width="10.0908"/>
<defs>
<linearGradient id="paint0_linear_492_343" x1="359.71" y1="-34.6281" x2="85.3547" y2="409.982" gradientUnits="userSpaceOnUse">
<stop stop-color="#0465B2"/>
<stop offset="0.340545" stop-color="#4B2395"/>
<stop offset="1" stop-color="#A3218E"/>
</linearGradient>
<linearGradient id="paint1_linear_492_343" x1="359.71" y1="-34.6281" x2="85.3547" y2="409.982" gradientUnits="userSpaceOnUse">
<stop stop-color="#0465B2"/>
<stop offset="0.340545" stop-color="#4B2395"/>
<stop offset="1" stop-color="#A3218E"/>
</linearGradient>
<linearGradient id="paint2_linear_492_343" x1="359.71" y1="-34.6281" x2="85.3547" y2="409.982" gradientUnits="userSpaceOnUse">
<stop stop-color="#0465B2"/>
<stop offset="0.340545" stop-color="#4B2395"/>
<stop offset="1" stop-color="#A3218E"/>
</linearGradient>
</defs>
</svg>
