<svg width="856" height="222" viewBox="0 0 856 222" fill="none" xmlns="http://www.w3.org/2000/svg">
<path d="M162.438 171.726C155.28 172.91 148.373 173.499 141.534 173.516C119.255 173.571 96.5981 167.56 67.2203 154.362V72.4731L143.232 99.1738L160.729 93.0154L141.973 86.2509L141.973 86.2493L51.8141 55.2295L141.479 50.9627C144.655 50.8116 147.107 48.1159 146.956 44.9417C146.805 41.7675 144.107 39.3169 140.931 39.468L52.2008 43.6903L143.232 12.1947L248.463 49.5429L248.429 49.5551L266.226 55.4784L282.957 49.5733L143.28 0L0 49.5733L9.82387 52.9532V132.657H21.3396V56.9153L55.7046 68.7388V161.736C97.8111 181.492 128.415 188.574 162.438 183.378V171.726Z" fill="url(#paint0_linear_323_1162)"/>
<path d="M15.1019 168.322C9.74485 168.322 5.40211 163.982 5.40211 158.629C5.40211 153.276 9.74485 148.936 15.1019 148.936C20.459 148.936 24.8017 153.276 24.8017 158.629C24.8017 163.982 20.459 168.322 15.1019 168.322Z" fill="url(#paint1_linear_323_1162)"/>
<path d="M9.00491 176.077C13.8236 177.807 16.5993 177.753 21.7532 176.077C26.6096 192.618 28.2661 201.84 28.6817 218.172C17.7998 221.862 11.953 222.08 2.07646 218.172C2.34943 201.087 4.18904 191.955 9.00491 176.077Z" fill="url(#paint2_linear_323_1162)"/>
<path fill-rule="evenodd" clip-rule="evenodd" d="M245.881 51.8558L255.147 55.184L255.104 55.1987L260.614 57.1779L214.843 73.0146V144.416H211.171V144.416H204.996L204.996 76.4214L165.308 90.1532L156.042 86.8251L156.085 86.8104L151.328 85.1018L151.163 84.6272L245.881 51.8558Z" fill="white"/>
<path d="M275.96 144.385C273.495 144.385 271.218 143.788 269.127 142.593C267.111 141.398 265.505 139.793 264.311 137.777C263.116 135.686 262.519 133.408 262.519 130.944V63.7396H271.591V130.944C271.591 132.139 272.002 133.184 272.823 134.08C273.719 134.902 274.765 135.313 275.96 135.313H329.723C330.918 135.313 331.926 134.902 332.747 134.08C333.644 133.184 334.092 132.139 334.092 130.944V63.7396H343.164V130.944C343.164 133.408 342.567 135.686 341.372 137.777C340.177 139.793 338.535 141.398 336.444 142.593C334.428 143.788 332.187 144.385 329.723 144.385H275.96ZM387.309 144.385V72.8122H351.467V63.7396H432.112V72.8122H396.382V144.385H387.309ZM453.706 144.385C451.242 144.385 448.965 143.788 446.874 142.593C444.858 141.398 443.252 139.793 442.057 137.777C440.863 135.686 440.265 133.408 440.265 130.944V77.1805C440.265 74.7164 440.863 72.4762 442.057 70.4601C443.252 68.3693 444.858 66.7265 446.874 65.5317C448.965 64.337 451.242 63.7396 453.706 63.7396H507.47C509.934 63.7396 512.174 64.337 514.19 65.5317C516.281 66.7265 517.924 68.3693 519.119 70.4601C520.313 72.4762 520.911 74.7164 520.911 77.1805V130.944C520.911 133.408 520.313 135.686 519.119 137.777C517.924 139.793 516.281 141.398 514.19 142.593C512.174 143.788 509.934 144.385 507.47 144.385H453.706ZM453.706 135.313H507.47C508.665 135.313 509.673 134.902 510.494 134.08C511.39 133.184 511.838 132.139 511.838 130.944V77.1805C511.838 75.9858 511.39 74.9777 510.494 74.1563C509.673 73.2603 508.665 72.8122 507.47 72.8122H453.706C452.511 72.8122 451.466 73.2603 450.57 74.1563C449.749 74.9777 449.338 75.9858 449.338 77.1805V130.944C449.338 132.139 449.749 133.184 450.57 134.08C451.466 134.902 452.511 135.313 453.706 135.313ZM601.346 144.385L575.025 113.023H586.897L613.331 144.273V144.385H601.346ZM533.246 144.385V63.8516H600.45C602.915 63.8516 605.155 64.4863 607.171 65.7557C609.262 66.9505 610.904 68.5559 612.099 70.5721C613.294 72.5882 613.891 74.8284 613.891 77.2925V100.926C613.891 103.39 613.294 105.631 612.099 107.647C610.904 109.663 609.262 111.306 607.171 112.575C605.155 113.77 602.915 114.367 600.45 114.367H542.318V144.385H533.246ZM546.687 105.182H600.45C601.645 105.182 602.653 104.772 603.475 103.95C604.371 103.129 604.819 102.121 604.819 100.926V77.2925C604.819 76.0978 604.371 75.0897 603.475 74.2683C602.653 73.3723 601.645 72.9242 600.45 72.9242H546.687C545.492 72.9242 544.446 73.3723 543.55 74.2683C542.729 75.0897 542.318 76.0978 542.318 77.2925V100.926C542.318 102.121 542.729 103.129 543.55 103.95C544.446 104.772 545.492 105.182 546.687 105.182ZM625.898 144.385V77.1805C625.898 74.7164 626.495 72.4762 627.69 70.4601C628.885 68.3693 630.49 66.7265 632.506 65.5317C634.597 64.337 636.875 63.7396 639.339 63.7396H693.103C695.567 63.7396 697.807 64.337 699.823 65.5317C701.914 66.7265 703.557 68.3693 704.751 70.4601C705.946 72.4762 706.544 74.7164 706.544 77.1805V144.385H697.471V114.927H634.971V144.385H625.898ZM634.971 105.855H697.471V77.1805C697.471 75.9858 697.023 74.9777 696.127 74.1563C695.305 73.2603 694.297 72.8122 693.103 72.8122H639.339C638.144 72.8122 637.099 73.2603 636.203 74.1563C635.381 74.9777 634.971 75.9858 634.971 77.1805V105.855ZM719.081 144.385V135.201H728.266V144.385H719.081ZM744.38 144.385V63.7396H753.565V144.385H744.38ZM767.439 144.385V77.1805C767.439 74.7164 768.036 72.4762 769.231 70.4601C770.426 68.3693 772.031 66.7265 774.048 65.5317C776.138 64.337 778.416 63.7396 780.88 63.7396H834.644C837.108 63.7396 839.348 64.337 841.364 65.5317C843.455 66.7265 845.098 68.3693 846.293 70.4601C847.487 72.4762 848.085 74.7164 848.085 77.1805V144.385H839.012V114.927H776.512V144.385H767.439ZM776.512 105.855H839.012V77.1805C839.012 75.9858 838.564 74.9777 837.668 74.1563C836.847 73.2603 835.838 72.8122 834.644 72.8122H780.88C779.685 72.8122 778.64 73.2603 777.744 74.1563C776.922 74.9777 776.512 75.9858 776.512 77.1805V105.855Z" fill="white"/>
<defs>
<linearGradient id="paint0_linear_323_1162" x1="220.118" y1="-21.19" x2="52.2312" y2="250.881" gradientUnits="userSpaceOnUse">
<stop stop-color="#0465B2"/>
<stop offset="0.340545" stop-color="#4B2395"/>
<stop offset="1" stop-color="#A3218E"/>
</linearGradient>
<linearGradient id="paint1_linear_323_1162" x1="220.118" y1="-21.19" x2="52.2312" y2="250.881" gradientUnits="userSpaceOnUse">
<stop stop-color="#0465B2"/>
<stop offset="0.340545" stop-color="#4B2395"/>
<stop offset="1" stop-color="#A3218E"/>
</linearGradient>
<linearGradient id="paint2_linear_323_1162" x1="220.118" y1="-21.19" x2="52.2312" y2="250.881" gradientUnits="userSpaceOnUse">
<stop stop-color="#0465B2"/>
<stop offset="0.340545" stop-color="#4B2395"/>
<stop offset="1" stop-color="#A3218E"/>
</linearGradient>
</defs>
</svg>
