<svg width="531" height="138" viewBox="0 0 531 138" fill="none" xmlns="http://www.w3.org/2000/svg">
<path d="M172.653 90.1836C170.898 90.1836 169.28 89.7447 167.802 88.8668C166.37 87.9889 165.215 86.8338 164.337 85.4015C163.459 83.923 163.02 82.3058 163.02 80.5501V40.2834H172.168V80.1342C172.168 80.3653 172.238 80.5732 172.376 80.758C172.561 80.8966 172.769 80.9659 173 80.9659H202.801C203.032 80.9659 203.24 80.8966 203.425 80.758C203.61 80.5732 203.702 80.3653 203.702 80.1342V40.2834H212.92V80.5501C212.92 82.3058 212.481 83.923 211.603 85.4015C210.725 86.8338 209.547 87.9889 208.069 88.8668C206.636 89.7447 205.042 90.1836 203.287 90.1836H172.653ZM238.433 90.1836V49.5011H218.057V40.2834H267.958V49.5011H247.651V90.1836H238.433ZM282.636 90.1836C280.88 90.1836 279.263 89.7447 277.784 88.8668C276.352 87.9889 275.197 86.8338 274.319 85.4015C273.441 83.923 273.002 82.3058 273.002 80.5501V49.9169C273.002 48.1611 273.441 46.5671 274.319 45.1348C275.197 43.6563 276.352 42.4781 277.784 41.6002C279.263 40.7223 280.88 40.2834 282.636 40.2834H313.269C315.025 40.2834 316.619 40.7223 318.051 41.6002C319.53 42.4781 320.708 43.6563 321.586 45.1348C322.464 46.5671 322.903 48.1611 322.903 49.9169V80.5501C322.903 82.3058 322.464 83.923 321.586 85.4015C320.708 86.8338 319.53 87.9889 318.051 88.8668C316.619 89.7447 315.025 90.1836 313.269 90.1836H282.636ZM282.982 80.9659H312.784C313.015 80.9659 313.223 80.8966 313.408 80.758C313.592 80.5732 313.685 80.3653 313.685 80.1342V50.3327C313.685 50.1017 313.592 49.9169 313.408 49.7783C313.223 49.5935 313.015 49.5011 312.784 49.5011H282.982C282.751 49.5011 282.543 49.5935 282.359 49.7783C282.22 49.9169 282.151 50.1017 282.151 50.3327V80.1342C282.151 80.3653 282.22 80.5732 282.359 80.758C282.543 80.8966 282.751 80.9659 282.982 80.9659ZM370.316 90.1836L355.277 72.2334H367.267L380.296 87.6193V90.1836H370.316ZM330.535 90.1836V40.3527H370.732C372.488 40.3527 374.105 40.7916 375.584 41.6695C377.062 42.5474 378.24 43.7256 379.118 45.2041C379.996 46.6364 380.435 48.2304 380.435 49.9862V63.4315C380.435 65.1873 379.996 66.8044 379.118 68.2829C378.24 69.7615 377.062 70.9397 375.584 71.8175C374.105 72.6492 372.488 73.065 370.732 73.065L339.683 73.1344V90.1836H330.535ZM340.515 63.8474H370.316C370.547 63.8474 370.755 63.7781 370.94 63.6395C371.125 63.5008 371.217 63.316 371.217 63.085V50.3327C371.217 50.1017 371.125 49.9169 370.94 49.7783C370.755 49.5935 370.547 49.5011 370.316 49.5011H340.515C340.284 49.5011 340.076 49.5935 339.891 49.7783C339.752 49.9169 339.683 50.1017 339.683 50.3327V63.085C339.683 63.316 339.752 63.5008 339.891 63.6395C340.076 63.7781 340.284 63.8474 340.515 63.8474ZM387.864 90.1836V49.9169C387.864 48.1611 388.303 46.5671 389.181 45.1348C390.059 43.6563 391.214 42.4781 392.646 41.6002C394.125 40.7223 395.742 40.2834 397.498 40.2834H428.062C429.817 40.2834 431.435 40.7223 432.913 41.6002C434.392 42.4781 435.57 43.6563 436.448 45.1348C437.326 46.5671 437.765 48.1611 437.765 49.9169V90.1836H428.547V73.4116H397.013V90.1836H387.864ZM397.013 64.2632H428.547V50.3327C428.547 50.1017 428.454 49.9169 428.27 49.7783C428.085 49.5935 427.877 49.5011 427.646 49.5011H397.844C397.613 49.5011 397.405 49.5935 397.221 49.7783C397.082 49.9169 397.013 50.1017 397.013 50.3327V64.2632ZM445.522 90.1836V81.1045H454.601V90.1836H445.522ZM460.393 90.1836V40.2834H469.472V90.1836H460.393ZM476.324 90.1836V49.9169C476.324 48.1611 476.763 46.5671 477.641 45.1348C478.519 43.6563 479.674 42.4781 481.106 41.6002C482.585 40.7223 484.202 40.2834 485.958 40.2834H516.521C518.277 40.2834 519.894 40.7223 521.373 41.6002C522.851 42.4781 524.03 43.6563 524.907 45.1348C525.785 46.5671 526.224 48.1611 526.224 49.9169V90.1836H517.007V73.4116H485.472V90.1836H476.324ZM485.472 64.2632H517.007V50.3327C517.007 50.1017 516.914 49.9169 516.729 49.7783C516.544 49.5935 516.337 49.5011 516.106 49.5011H486.304C486.073 49.5011 485.865 49.5935 485.68 49.7783C485.542 49.9169 485.472 50.1017 485.472 50.3327V64.2632Z" fill="white"/>
<path d="M101.177 107.182C96.7563 107.916 92.4907 108.281 88.267 108.291C74.5075 108.326 60.5145 104.599 42.3708 96.4174V45.653L89.3154 62.2052L100.122 58.3875L88.5377 54.1941L88.5381 54.1931L32.8558 34.9633L88.2327 32.3182C90.1944 32.2245 91.709 30.5534 91.6156 28.5856C91.5221 26.6179 89.8561 25.0987 87.8944 25.1924L33.0947 27.8099L89.3153 8.28512L154.306 31.438L154.285 31.4456L165.276 35.1176L175.61 31.4569L89.3452 0.725342L0.855469 31.4569L6.92269 33.5522V82.9622H14.0348V36.0083L35.2586 43.3379V100.989C61.2636 113.236 80.1644 117.627 101.177 114.405V107.182Z" fill="white"/>
<path d="M10.1824 105.072C6.87389 105.072 4.19181 102.381 4.19181 99.0628C4.19181 95.7442 6.87389 93.0539 10.1824 93.0539C13.4909 93.0539 16.173 95.7442 16.173 99.0628C16.173 102.381 13.4909 105.072 10.1824 105.072Z" fill="white"/>
<path d="M6.4169 109.879C9.39293 110.952 11.1072 110.918 14.2903 109.879C17.2895 120.133 18.3126 125.85 18.5693 135.975C11.8486 138.262 8.23765 138.397 2.13789 135.975C2.30647 125.383 3.44262 119.722 6.4169 109.879Z" fill="white"/>
<path fill-rule="evenodd" clip-rule="evenodd" d="M152.721 32.8679L158.434 34.9275L158.391 34.9425L161.784 36.1657L133.575 45.9686V90.2503H131.287V90.2507H127.466L127.466 48.0917L102.938 56.6157L97.225 54.5561L97.2651 54.5421L94.3501 53.4912L94.2461 53.1891L152.721 32.8679Z" fill="white"/>
<path fill-rule="evenodd" clip-rule="evenodd" d="M91.9766 52.359L150.428 32.0461L156.14 34.1058L131.306 42.7363V89.4204H127.485V44.064L97.3175 54.5478L92.0801 52.6596L91.9766 52.359Z" fill="white"/>
<path d="M128.403 42.8333L128.403 90.2518M133.316 42.8333L133.316 90.2518" stroke="white" stroke-width="3.82076"/>
</svg>
