<svg width="69" height="69" viewBox="0 0 69 69" fill="none" xmlns="http://www.w3.org/2000/svg">
<path d="M0.657081 5.76141L8.79775 28.7592L45.0871 34.9804C45.4905 35.0496 45.484 35.6312 45.0791 35.6913L8.79775 41.0818L0.417502 64.128C0.147551 64.8703 0.181744 65.6893 0.512639 66.4066C1.00219 67.4678 2.06419 68.1475 3.23288 68.1475H4.00545C4.55224 68.1475 5.09185 68.0229 5.58333 67.7832L66.2325 38.2085C66.8056 37.929 67.2901 37.4964 67.6324 36.9586C68.2658 35.9632 68.3472 34.7134 67.8483 33.6443L67.6295 33.1755C67.292 32.4524 66.7238 31.8618 66.0142 31.4967L7.15193 1.21231C6.64249 0.95021 6.07786 0.813477 5.50495 0.813477H4.16594C3.06109 0.813477 2.01741 1.32082 1.33492 2.18968L1.21971 2.33634C0.457826 3.30627 0.245518 4.59872 0.657081 5.76141Z" fill="#A3218E" stroke="black" stroke-width="0.359999"/>
</svg>
