<svg width="36" height="37" viewBox="0 0 36 37" fill="none" xmlns="http://www.w3.org/2000/svg">
<path d="M23.5268 3.00696C23.5268 1.21744 21.7639 0.176495 20.4947 1.21664L9.02258 10.6188H4.35163C2.42615 10.6188 0.865234 12.4098 0.865234 14.619V22.6195C0.865234 24.8288 2.42614 26.6198 4.35163 26.6198H9.02258L20.4947 36.0219C21.7639 37.0621 23.5268 36.0212 23.5268 34.2316V3.00696Z" fill="white"/>
<path d="M29.2007 8.34039C29.8427 7.51729 30.9448 7.44724 31.6621 8.18394C34.1558 10.7447 35.7292 14.4725 35.7292 18.6193C35.7292 22.7661 34.1558 26.4938 31.6621 29.0546C30.9448 29.7913 29.8427 29.7213 29.2007 28.8982C28.5586 28.0751 28.6196 26.8106 29.337 26.0739C31.1229 24.2399 32.2428 21.5809 32.2428 18.6193C32.2428 15.6576 31.1229 12.9987 29.337 11.1647C28.6196 10.428 28.5586 9.1635 29.2007 8.34039Z" fill="white"/>
<path d="M25.7143 12.8129C26.3563 11.9898 27.4584 11.9197 28.1757 12.6564C29.5995 14.1185 30.4996 16.2496 30.4996 18.6193C30.4996 20.989 29.5995 23.1201 28.1757 24.5821C27.4584 25.3188 26.3563 25.2488 25.7143 24.4257C25.0722 23.6026 25.1332 22.3381 25.8506 21.6014C26.5667 20.8661 27.0132 19.8038 27.0132 18.6193C27.0132 17.4347 26.5667 16.3725 25.8506 15.6372C25.1332 14.9005 25.0722 13.636 25.7143 12.8129Z" fill="white"/>
</svg>
