<svg width="54" height="54" viewBox="0 0 54 54" fill="none" xmlns="http://www.w3.org/2000/svg">
<circle cx="27" cy="27" r="26" fill="#A3218E" stroke="white" stroke-width="2"/>
<path d="M17.7412 14.9129L17.7419 14.9125L20.5517 13.3046L20.5695 13.2942C21.2492 12.8898 22.1644 13.115 22.599 13.8391L22.7709 14.136C22.7713 14.1368 22.7717 14.1375 22.7722 14.1383C23.633 15.6388 24.9386 16.6611 26.4939 16.6611C28.0481 16.6611 29.3574 15.64 30.2262 14.1411L30.2265 14.1405L30.4011 13.8391C30.8356 13.115 31.7508 12.8898 32.4305 13.2942L32.4483 13.3046L35.2581 14.9125L35.2588 14.9129C36.1472 15.4206 36.4533 16.5711 35.9456 17.4508C35.0768 18.9501 34.8432 20.5934 35.6196 21.9406C36.3959 23.2878 37.9345 23.9091 39.664 23.9091C40.6843 23.9091 41.5312 24.7481 41.5312 25.7763V28.6348C41.5312 29.6551 40.6922 30.502 39.664 30.502C37.9345 30.502 36.3959 31.1233 35.6196 32.4705C34.8438 33.8167 35.0764 35.4586 35.9437 36.9571C36.4558 37.8566 36.1452 38.9917 35.2588 39.4982L35.2581 39.4986L32.4483 41.1065L32.4305 41.1169C31.7508 41.5213 30.8356 41.296 30.401 40.572L30.2291 40.2751C30.2287 40.2743 30.2282 40.2734 30.2277 40.2726C29.3668 38.7722 28.0613 37.75 26.5061 37.75C24.9519 37.75 23.6426 38.7711 22.7738 40.27L22.7735 40.2706L22.5989 40.572C22.1643 41.2961 21.2492 41.5212 20.5695 41.1169L20.5517 41.1065L17.7419 39.4986L17.7412 39.4982C16.8528 38.9905 16.5467 37.84 17.0544 36.9603C17.9232 35.461 18.1568 33.8177 17.3804 32.4705C16.6041 31.1233 15.0655 30.502 13.336 30.502C12.3078 30.502 11.4688 29.6551 11.4688 28.6348V25.7763C11.4688 24.756 12.3078 23.9091 13.336 23.9091C15.0655 23.9091 16.6041 23.2878 17.3804 21.9406C18.1569 20.5932 17.9232 18.9497 17.0541 17.4502L15.9996 18.0614L17.0549 17.4517C16.5465 16.5718 16.8525 15.4207 17.7412 14.9129Z" fill="#EBE7E7" stroke="#EBE7E7" stroke-width="2.4375" stroke-miterlimit="10" stroke-linecap="round" stroke-linejoin="round"/>
<rect x="21.2617" y="21.9693" width="10.4724" height="10.4724" rx="5.23622" stroke="#A3218E" stroke-width="2.4375"/>
</svg>
