<svg width="159" height="140" viewBox="0 0 159 140" fill="none" xmlns="http://www.w3.org/2000/svg">
<rect width="158.131" height="140" rx="20" fill="#EBE7E7"/>
<path d="M79 27C68.2611 27 59.5556 36.5139 59.5556 48.25C59.5556 59.986 68.2611 69.5 79 69.5C89.7389 69.5 98.4444 59.986 98.4444 48.25C98.4444 36.5139 89.7389 27 79 27Z" fill="#A3218E"/>
<path d="M63.4444 78C52.7056 78 44 87.514 44 99.25V103.5C44 108.194 47.4822 112 51.7778 112H106.222C110.518 112 114 108.194 114 103.5V99.25C114 87.514 105.294 78 94.5556 78H63.4444Z" fill="#A3218E"/>
</svg>
