<svg width="16" height="27" viewBox="0 0 16 27" fill="none" xmlns="http://www.w3.org/2000/svg">
<path d="M11.5567 12.8841C11.5567 15.6186 10.1174 17.4786 8.14316 17.4786C6.16894 17.4786 4.72961 15.6186 4.72961 12.8841V4.59443C4.72961 1.87226 6.16894 0 8.14316 0C10.1174 0 11.5567 1.87226 11.5567 4.59443V12.8841Z" fill="white"/>
<path d="M7.25817 22.1715C3.41671 21.7035 0.761719 18.2299 0.761719 13.1674V10.7286C0.761719 10.088 1.17018 9.58303 1.67589 9.58303C2.1816 9.58303 2.59006 10.088 2.59006 10.7286V13.0812C2.59006 17.2692 4.82686 20.0406 8.14316 20.0406C11.4595 20.0406 13.6963 17.2692 13.6963 13.0812V10.7286C13.6963 10.088 14.1145 9.58303 14.6202 9.58303C15.1259 9.58303 15.5343 10.088 15.5343 10.7286V13.1674C15.5343 18.2299 12.8696 21.7035 9.03788 22.1715V24.6966H12.607C13.1128 24.6966 13.5309 25.214 13.5309 25.8545C13.5309 26.4827 13.1128 27 12.607 27H3.67929C3.1833 27 2.76511 26.4827 2.76511 25.8545C2.76511 25.214 3.1833 24.6966 3.67929 24.6966H7.25817V22.1715Z" fill="white"/>
</svg>
