<svg width="89" height="69" viewBox="0 0 89 69" fill="none" xmlns="http://www.w3.org/2000/svg">
<path fill-rule="evenodd" clip-rule="evenodd" d="M17.3516 50.6427C28.4264 55.808 36.9466 58.1754 45.7106 57.8184L45.7206 58.0284C56.4905 57.5155 64.7047 55.7164 72.586 49.8515V21.9446L87.919 16.2393L87.8369 16.0185L88.1392 15.9124L81.9249 13.72L82.0284 13.4294L81.5772 13.5973L44.6307 0.5625L0 15.9124L3.06006 16.959V41.6386H6.64713V18.1858L17.3516 21.8469V50.6427ZM4.70414 52.682C3.03545 52.682 1.68272 51.3383 1.68272 49.6806C1.68272 48.023 3.03545 46.6793 4.70414 46.6793C6.37282 46.6793 7.72556 48.023 7.72556 49.6806C7.72556 51.3383 6.37282 52.682 4.70414 52.682ZM6.77597 55.0831C5.17057 55.6022 4.30596 55.6189 2.80497 55.0831C1.30486 59.9996 0.73183 62.8272 0.646804 68.1177C3.72328 69.3275 5.54452 69.2601 8.93413 68.1177C8.80469 63.0606 8.28869 60.205 6.77597 55.0831Z" fill="#7C4BDB"/>
</svg>
