<svg width="1972" height="3407" viewBox="0 0 1972 3407" fill="none" xmlns="http://www.w3.org/2000/svg">
<path d="M674.625 602.165L771.289 689.162C788.193 704.376 810.13 712.794 832.872 712.794V712.794C842.049 712.794 851.174 711.422 859.945 708.723L896.403 697.505C914.359 691.98 926.613 675.389 926.613 656.602V656.602C926.613 653.103 926.184 649.617 925.335 646.222L895.883 528.413M674.625 602.165L748.378 325.594M674.625 602.165L877.444 503.829M674.625 602.165L501.749 682.642C381.672 738.54 279.292 826.403 205.822 936.608V936.608C126.783 1055.17 84.6064 1194.47 84.6064 1336.96V1474.9M84.6064 1474.9L117.21 1516.82C180.628 1598.36 263.216 1664.24 356.622 1708.35V1708.35C408.282 1732.74 463.422 1750.41 519.662 1760.46V1760.46C577.629 1770.81 636.737 1773.2 695.351 1767.56L810.476 1756.49C887.782 1749.06 964.389 1735.6 1039.6 1716.23L1273.32 1656.02C1312.55 1645.92 1350.97 1632.88 1388.25 1617.01L1489.3 1574.01C1575.12 1537.49 1647.74 1475.63 1697.44 1396.7V1396.7C1716.15 1366.99 1731.38 1335.22 1742.82 1302.02L1787.06 1173.75M84.6064 1474.9L78.3136 1509.51C66.5542 1574.19 79.6262 1640.92 114.919 1696.38V1696.38C135.434 1728.62 162.775 1755.96 195.013 1776.48L219.529 1792.08C260.343 1818.05 305.614 1836.24 353.052 1845.73L381.698 1851.46C417.1 1858.54 453.114 1862.1 489.216 1862.1H895.883M1787.06 1173.75L1750.11 1048.14C1733.87 992.905 1709.11 940.54 1676.74 892.93V892.93C1639.95 838.825 1593.86 791.664 1540.62 753.634L1525.48 742.821C1474.77 706.597 1419.17 677.759 1360.34 657.171L1218.88 607.658C1126.64 575.374 1031.8 551.065 935.402 534.999L895.883 528.413M1787.06 1173.75V1173.75C1810.83 1221.29 1816.54 1275.85 1803.12 1327.29L1794.49 1360.35C1789.55 1379.31 1782.82 1397.76 1774.39 1415.45L1770.96 1422.66C1741.24 1485.07 1695.64 1538.58 1638.74 1577.83L1586.26 1614.02C1560.36 1631.88 1533.17 1647.78 1504.91 1661.6L1327.44 1748.36C1289.8 1766.76 1250.17 1780.79 1209.33 1790.16V1790.16M895.883 528.413L877.444 503.829M748.378 325.594L711.502 6L797.546 294.863M748.378 325.594L797.546 294.863M797.546 294.863L877.444 503.829M895.883 1862.1L1209.33 1790.16M895.883 1862.1L883.591 1874.39M637.749 1640.84H561.065C518.533 1640.84 476.586 1630.94 438.544 1611.92V1611.92C395.9 1590.6 359.559 1558.52 333.113 1518.85L331.791 1516.87C302.782 1473.35 286.401 1422.65 284.465 1370.39L283.201 1336.25C281.925 1301.81 285.064 1267.35 292.54 1233.7L305.333 1176.13C313.781 1138.12 330.357 1102.38 353.922 1071.37V1071.37C404.961 1004.21 484.46 964.781 568.809 964.781H603.754C626.291 964.781 648.701 968.151 670.241 974.779V974.779C748.801 998.951 808.053 1063.86 824.986 1144.29L846.714 1247.5M637.749 1640.84L671.407 1622.15C721.727 1594.19 763.274 1552.78 791.4 1502.56V1502.56M637.749 1640.84L585.451 1624.5C554.86 1614.94 525.464 1601.91 497.838 1585.66L468.564 1568.44C446.308 1555.35 426.479 1538.51 409.949 1518.68V1518.68C386.01 1489.95 369.628 1455.69 362.295 1419.03L348.886 1351.98M846.714 1247.5L840.48 1337.89C836.491 1395.73 819.729 1451.97 791.4 1502.56V1502.56M846.714 1247.5L779.108 1146.09M373.47 1222.91L394.565 1174.4C420.408 1114.96 468.83 1068.24 529.156 1044.54L557.804 1033.28C589.703 1020.75 624.867 1019.2 657.747 1028.87V1028.87C692.474 1039.08 722.503 1061.18 742.582 1091.3L779.108 1146.09M373.47 1222.91L348.886 1351.98M373.47 1222.91L394.466 1192.79C430.625 1140.91 484.467 1104 545.895 1088.99L547.836 1088.51C566.736 1083.89 586.123 1081.56 605.58 1081.56V1081.56C650.718 1081.56 694.966 1094.12 733.369 1117.84L779.108 1146.09M348.886 1351.98L351.168 1363.39C359.321 1404.16 378.605 1441.86 406.881 1472.33V1472.33C425.426 1492.32 447.448 1508.76 471.874 1520.87L508.293 1538.93C540.89 1555.09 576.781 1563.5 613.165 1563.5V1563.5C649.549 1563.5 685.44 1555.09 718.038 1538.93L791.4 1502.56M1301.52 1450.32V1450.32C1225.28 1386.11 1169.1 1301.35 1139.66 1206.13L1132.5 1182.97M1301.52 1450.32L1406.36 1498.37C1434.19 1511.12 1465.15 1515.4 1495.39 1510.68V1510.68C1529.1 1505.41 1560.16 1489.23 1583.79 1464.61L1590.52 1457.6C1610.63 1436.65 1625.52 1411.25 1633.98 1383.47L1647.64 1338.59C1658.58 1302.64 1664.14 1265.28 1664.14 1227.7V1217.28C1664.14 1170.11 1656.7 1123.24 1642.1 1078.4V1078.4C1628.19 1035.67 1607.94 995.284 1582.03 958.577L1547.36 909.467L1506.27 861.531C1484.75 836.415 1458.1 816.186 1428.13 802.196L1424.33 800.425C1396.07 787.235 1365.26 780.4 1334.07 780.4V780.4C1292.77 780.4 1252.36 792.379 1217.74 814.884L1209.53 820.22C1169.3 846.369 1137.39 884.115 1118.07 928.033V928.033C1093.84 983.099 1090.04 1045.59 1107.81 1103.07L1132.5 1182.97M1301.52 1450.32L1394.35 1434.85C1430.02 1428.9 1463.18 1412.67 1489.76 1388.13L1493.81 1384.39C1516.76 1363.21 1533.28 1336.01 1541.5 1305.88V1305.88C1545.39 1291.61 1547.36 1276.88 1547.36 1262.08V1209.85C1547.36 1185.84 1544.99 1161.89 1540.28 1138.34L1536.24 1118.15C1531.39 1093.91 1522.75 1070.58 1510.63 1049.03V1049.03C1486.55 1006.23 1449.68 972.053 1405.19 951.289L1381.42 940.197L1373.28 937.145C1346.49 927.098 1317.38 924.945 1289.41 930.94V930.94C1261.21 936.982 1235.36 951.045 1214.97 971.436L1190.89 995.511L1145.08 1044.68M1132.5 1182.97L1145.08 1044.68M1449.03 1502.56L1519.41 1447.57C1537.88 1433.14 1553.43 1415.34 1565.23 1395.1V1395.1C1581.7 1366.86 1590.38 1334.75 1590.38 1302.06V1204.48V1187.5C1590.38 1141.98 1580.64 1096.99 1561.8 1055.56L1553.81 1037.96C1537.47 1002.02 1512.56 970.63 1481.26 946.555L1478.43 944.38C1458.97 929.405 1437.13 917.793 1413.83 910.026V910.026C1376.51 897.589 1336.55 895.375 1298.09 903.616L1270.79 909.467V909.467C1231.44 917.337 1196.82 940.518 1174.56 973.91L1164.99 988.275C1153.75 1005.12 1146.91 1024.51 1145.08 1044.68V1044.68M883.591 1874.39L865.152 2064.92M883.591 1874.39V1874.39C867.438 1886.51 848.598 1894.48 828.751 1898.19C805.222 1902.59 779.592 1907.95 772.962 1911.27C763.128 1916.19 744.28 1929.71 736.086 1935.85L686.917 1972.73M865.152 2064.92V2064.92C971.433 2048.57 1075.88 2021.95 1177.01 1985.42L1246.21 1960.44L1369.13 1905.12M865.152 2064.92L775.985 2075.41C765.826 2076.61 755.549 2076.36 745.459 2074.68L713.538 2069.36C696.95 2066.59 682.911 2055.57 676.286 2040.11V2040.11C671.276 2028.42 670.972 2015.25 675.438 2003.34L686.917 1972.73M1369.13 1905.12L1330.31 1887.48C1311.34 1878.86 1290.74 1874.39 1269.9 1874.39H1253.35C1248.62 1874.39 1243.92 1873.63 1239.43 1872.13V1872.13C1221.45 1866.14 1209.33 1849.32 1209.33 1830.37V1790.16M1369.13 1905.12L1422.5 1817.5M1209.33 1790.16V1790.16C1221.26 1800.92 1236.52 1807.27 1252.56 1808.15L1422.5 1817.5M1422.5 1817.5C1432.74 1809.91 1434.27 1812.93 1449.03 1812.93V1812.93C1482.48 1812.93 1532.25 1885.76 1554.46 1910.78L1565.8 1923.56L1645.7 1997.31L1657.38 2009C1678.22 2029.84 1696.96 2052.69 1713.3 2077.21V2077.21L1719.94 2087.16C1731.84 2105.01 1741.02 2124.54 1747.19 2145.09V2145.09C1753.25 2165.29 1756.33 2186.26 1756.33 2207.35V2280.03M1756.33 2280.03V2280.03C1764.49 2312.69 1768.62 2346.22 1768.62 2379.88V2439.83L1763.81 2487.88C1758.84 2537.59 1747.59 2586.47 1730.31 2633.35V2633.35C1718.99 2664.08 1705.14 2693.81 1688.89 2722.24L1664.14 2765.57M1756.33 2280.03L1791.66 2287.1C1829.25 2294.62 1865.18 2308.88 1897.69 2329.2V2329.2L1910.82 2336.7C1929.91 2347.61 1943.72 2365.85 1949.06 2387.18V2387.18C1951.66 2397.59 1952.16 2408.41 1950.53 2419.02L1944.74 2456.64C1942.06 2474.07 1937.67 2491.2 1931.64 2507.78L1916.12 2550.46L1879.25 2624.21L1867.04 2642.53C1850.75 2666.95 1829.8 2687.91 1805.37 2704.19L1795.97 2710.46C1790.04 2714.41 1784.52 2718.94 1779.48 2723.97V2723.97C1764.38 2739.07 1745.15 2749.36 1724.21 2753.55L1664.14 2765.57M1756.33 2280.03L1701.31 2280.03C1692.94 2280.03 1684.6 2280.95 1676.43 2282.76V2282.76M1664.14 2765.57L1651.84 2777.86M1301.52 2532.02V2562.75V2592.98C1301.52 2613.76 1303.39 2634.49 1307.11 2654.94V2654.94M1301.52 2532.02L1340.62 2505.95C1363.21 2490.89 1389.77 2482.85 1416.92 2482.85V2482.85C1430.06 2482.85 1443.13 2484.73 1455.74 2488.44L1541.22 2513.58M1301.52 2532.02L1350.69 2458.27M1319.96 2697.96V2697.96C1315.96 2693.96 1313.27 2688.83 1312.26 2683.26L1307.11 2654.94M1319.96 2697.96V2697.96C1319.96 2709.65 1314.77 2720.72 1305.79 2728.2L1295.3 2736.95C1287.56 2743.4 1283.08 2752.95 1283.08 2763.03V2763.03C1283.08 2775.89 1290.35 2787.64 1301.85 2793.39L1304.15 2794.54C1314.18 2799.55 1325.9 2799.9 1336.21 2795.48L1362.98 2784.01M1319.96 2697.96L1334.3 2691.82M1362.98 2784.01L1406 2765.57M1362.98 2784.01L1424.44 2851.61M1406 2765.57V2716.4V2716.4C1406 2701.85 1396.36 2689.06 1382.36 2685.06L1376.76 2683.46C1367.85 2680.91 1358.33 2681.52 1349.81 2685.17L1334.3 2691.82M1406 2765.57L1436.73 2747.13L1447.96 2740.4C1460.84 2732.67 1472.1 2722.51 1481.11 2710.49L1482.21 2709.02C1496.58 2689.88 1504.34 2666.58 1504.34 2642.65V2642.65V2640.72C1504.34 2622.47 1496.23 2605.16 1482.21 2593.48V2593.48M1406 2765.57L1416.64 2776.21C1421.82 2781.39 1427.62 2785.91 1433.9 2789.68V2789.68C1447.82 2798.03 1463.75 2802.44 1479.98 2802.44H1485.9M1334.3 2691.82V2691.82C1334.3 2667.77 1341.42 2644.26 1354.75 2624.26L1358.33 2618.89C1361.42 2614.25 1364.97 2609.93 1368.91 2605.99L1371.98 2602.92C1385.89 2589 1404.77 2581.19 1424.44 2581.19V2581.19H1448.26C1460.67 2581.19 1472.68 2585.54 1482.21 2593.48V2593.48M1485.9 2802.44L1497.2 2791.15C1501.93 2786.42 1507.39 2782.48 1513.38 2779.49L1528.41 2771.97C1536.47 2767.94 1545.96 2767.94 1554.02 2771.97V2771.97C1561.5 2775.71 1566.97 2782.53 1568.99 2790.64L1578.09 2827.03M1485.9 2802.44L1455.17 2857.76M1578.09 2827.03V2827.03C1570.04 2847.17 1556.9 2864.88 1539.96 2878.43L1523.54 2891.57C1511.11 2901.51 1495.67 2906.93 1479.76 2906.93V2906.93M1578.09 2827.03L1596.16 2817.99C1616.76 2807.69 1635.56 2794.14 1651.84 2777.86V2777.86M1455.17 2857.76V2868.87C1455.17 2873.71 1456.1 2878.51 1457.89 2883L1462.9 2895.51C1465.66 2902.41 1472.33 2906.93 1479.76 2906.93V2906.93M1455.17 2857.76L1424.44 2851.61M1664.14 2691.82C1657.92 2679.38 1648.24 2660.02 1639.55 2642.65M1541.22 2513.58C1565.8 2540.21 1616.2 2595.94 1621.11 2605.77C1623.54 2610.63 1631.07 2625.69 1639.55 2642.65M1541.22 2513.58H1467.46V2513.58C1440.2 2513.58 1414.35 2525.69 1396.9 2546.63L1393.71 2550.46L1380.36 2563.8C1369.23 2574.93 1362.98 2590.03 1362.98 2605.77V2605.77M1639.55 2642.65V2642.65C1619.28 2642.65 1599.21 2638.53 1580.58 2630.54L1565.8 2624.21L1524.13 2603.37C1511.12 2596.87 1496.76 2593.48 1482.21 2593.48V2593.48M1350.69 2458.27L1352.69 2455.26C1367.68 2432.78 1385.58 2412.38 1405.91 2394.58V2394.58C1418.24 2383.79 1431.42 2374 1445.32 2365.32L1455.78 2358.78C1500.12 2331.07 1548.86 2311.11 1599.9 2299.77L1676.43 2282.76M1350.69 2458.27L1316.4 2419.69C1306.51 2408.57 1297.92 2396.36 1290.79 2383.29V2383.29C1273.69 2351.92 1265.46 2316.48 1267.02 2280.79L1269.01 2234.96C1270.15 2208.82 1282.07 2184.32 1301.93 2167.3V2167.3C1309.8 2160.55 1318.72 2155.15 1328.34 2151.3L1353.35 2141.3C1367.93 2135.46 1383.02 2130.98 1398.43 2127.9L1433.82 2120.82C1455.91 2116.4 1478.75 2117.47 1500.33 2123.95V2123.95C1519.17 2129.6 1536.59 2139.23 1551.39 2152.19L1578.09 2175.55M1578.09 2175.55H1486.81C1474.15 2175.55 1461.73 2178.99 1450.87 2185.5V2185.5C1441.57 2191.08 1433.7 2198.75 1427.88 2207.9L1405.32 2243.35C1397.74 2255.26 1393.71 2269.1 1393.71 2283.22V2283.22C1393.71 2293.28 1395.75 2303.24 1399.72 2312.48L1403.22 2320.67C1409.12 2334.42 1417.59 2346.93 1428.17 2357.51L1430.59 2359.93M1578.09 2175.55L1645.7 2249.26M1676.43 2282.76L1645.7 2249.26M1645.7 2249.26V2185.88C1645.7 2166.81 1642.85 2147.84 1637.24 2129.62V2129.62C1626.7 2095.37 1606.76 2064.77 1579.68 2041.3L1566.45 2029.84C1541.85 2008.52 1512.15 1993.96 1480.23 1987.58L1476.92 1986.91C1450.49 1981.63 1423.2 1982.57 1397.2 1989.66V1989.66C1378.61 1994.73 1361 2002.85 1345.09 2013.71L1297.54 2046.12C1255.72 2074.64 1221.28 2112.68 1197.04 2157.11V2157.11L1172.45 2212.43L1161.44 2237.63C1148.35 2267.59 1139.21 2299.13 1134.26 2331.44L1129.85 2360.18C1125.51 2388.44 1126.59 2417.26 1133.02 2445.12V2445.12C1138.78 2470.09 1148.75 2493.9 1162.51 2515.52L1171.05 2528.94C1180.17 2543.26 1190.41 2556.83 1201.69 2569.52L1211.84 2580.93C1226.52 2597.45 1242.82 2612.45 1260.5 2625.71L1261.49 2626.46C1275.86 2637.23 1291.12 2646.76 1307.11 2654.94V2654.94M686.917 1972.73L675.885 1984.99C646.594 2017.53 623.281 2055 607.019 2095.65V2095.65L587.044 2175.55M582.435 2193.99L557.851 2175.55M582.435 2193.99L561.949 2247.25C555.134 2264.97 549.996 2283.29 546.6 2301.96V2301.96C541.829 2328.2 540.535 2354.95 542.749 2381.53L551.705 2489V2489C554.302 2507.18 535.409 2520.8 518.98 2512.58L512.536 2509.36C509.984 2508.09 507.654 2506.41 505.636 2504.39L498.153 2496.91C488.891 2487.64 481.719 2476.51 477.119 2464.24L465.66 2433.68L450.575 2378.37M582.435 2193.99L587.044 2175.55M557.851 2175.55V2175.55C533.426 2187.76 511.131 2203.83 491.822 2223.14L471.806 2243.16M557.851 2175.55H587.044M471.806 2243.16L464.056 2260.59C452.957 2285.57 447.222 2312.59 447.222 2339.92V2353.34C447.222 2361.79 448.35 2370.21 450.575 2378.37V2378.37M471.806 2243.16L428.784 2230.86M428.784 2230.86V2230.86C420.769 2242.89 416.492 2257.01 416.492 2271.46V2285.39C416.492 2294.08 417.444 2302.75 419.33 2311.24L421.658 2321.72C426.332 2342.75 436.283 2362.24 450.575 2378.37V2378.37M428.784 2230.86L426.329 2231.24C375.162 2239.11 325.947 2256.59 281.279 2282.76V2282.76L273.869 2287.18C234.088 2310.89 199.082 2341.81 170.651 2378.37V2378.37L149.898 2412.96C139.229 2430.74 131.696 2450.22 127.629 2470.56V2470.56M127.629 2470.56L122.267 2529.54C121.754 2535.18 122.824 2540.85 125.357 2545.91L128.277 2551.75C131.646 2558.49 138.533 2562.75 146.067 2562.75V2562.75M127.629 2470.56L148.62 2468.65C179.215 2465.87 210.02 2470.75 238.257 2482.85V2482.85M146.067 2562.75L150.762 2560.4C162.951 2554.31 170.651 2541.85 170.651 2528.22V2528.22C170.651 2522.64 171.951 2517.13 174.449 2512.13L184.172 2492.68C187.364 2486.3 192.539 2481.13 198.923 2477.93V2477.93C208.208 2473.29 219.138 2473.29 228.423 2477.93L238.257 2482.85M146.067 2562.75V2611.92M238.257 2482.85V2482.85C266.727 2499.12 292.187 2520.16 313.527 2545.06L318.156 2550.46L348.886 2587.33L385.762 2642.65M385.762 2642.65L391.908 2704.11M385.762 2642.65V2642.65C373.566 2638.58 362.186 2632.39 352.147 2624.36L336.594 2611.92L334.809 2610.49C315.81 2595.29 293.331 2585.05 269.393 2580.7L268.669 2580.57C248.625 2576.93 228.034 2577.6 208.269 2582.54V2582.54C195.543 2585.72 183.313 2590.63 171.923 2597.14L146.067 2611.92M391.908 2704.11V2704.11C408.174 2704.11 424.317 2701.29 439.618 2695.77L450.575 2691.82C459.701 2687.72 479.182 2678.29 484.098 2673.38C485.954 2671.52 490.204 2667.86 495.328 2663.57C511.967 2649.65 525.21 2632.06 533.267 2611.92V2611.92L544.298 2586.18C549.222 2574.69 552.941 2562.72 555.392 2550.46V2550.46M391.908 2704.11L359.309 2685.48C352.479 2681.58 344.748 2679.52 336.881 2679.52H323.655C320.134 2679.52 316.757 2680.92 314.267 2683.41V2683.41C309.483 2688.2 309.061 2695.81 313.287 2701.1L330.448 2722.55L338.886 2736.61C345.533 2747.69 350.947 2759.46 355.032 2771.71V2771.71M391.908 2704.11L394.011 2714.62C396.694 2728.04 401.154 2741.04 407.273 2753.28V2753.28M557.851 2538.17L555.392 2550.46M555.392 2550.46L588.581 2599.63L619.311 2654.94L686.242 2748.64C703.053 2772.18 721.78 2794.28 742.232 2814.74V2814.74M742.232 2814.74L785.254 2863.9M742.232 2814.74L727.071 2841.27C720.818 2852.21 716.098 2863.96 713.041 2876.18L703.801 2913.15C700.861 2924.91 702.713 2937.35 708.949 2947.74V2947.74C714.562 2957.1 723.337 2964.14 733.687 2967.59L736.086 2968.39M785.254 2863.9L822.13 2876.2L852.86 2888.85M785.254 2863.9L772.962 2900.78L763.156 2926.93C757.448 2942.15 754.524 2958.28 754.524 2974.53V2974.53M1000.37 2931.51V2931.51C951.353 2923.34 903.42 2909.67 857.475 2890.75L852.86 2888.85M1000.37 2931.51H1123.29L1233.91 2919.22M1000.37 2931.51L966.252 2961.83C952.223 2974.3 940.451 2989.1 931.453 3005.57V3005.57C918.347 3029.57 911.479 3056.47 911.479 3083.81V3133.09M1233.91 2919.22L1276.94 2911.63C1317.77 2904.42 1357.64 2892.53 1395.76 2876.2V2876.2M1233.91 2919.22L1248.99 2941.83C1271.22 2975.18 1283.08 3014.36 1283.08 3054.43V3054.43M1424.44 2851.61V2851.61C1424.44 2859.07 1420 2865.81 1413.14 2868.75L1395.76 2876.2M146.067 2611.92L133.775 2624.21V2624.21C113.379 2644.61 95.7934 2667.63 81.4828 2692.67L78.4603 2697.96M355.032 2771.71L359.078 2783.85C364.501 2800.12 373.636 2814.9 385.762 2827.03V2827.03L391.71 2832.98C395.598 2836.86 401.349 2838.22 406.566 2836.48V2836.48C412.494 2834.51 416.492 2828.96 416.492 2822.71V2796.3V2792.33C416.492 2778.77 413.336 2765.4 407.273 2753.28V2753.28M355.032 2771.71L373.47 2765.57L407.273 2753.28M305.863 2704.11L275.133 2740.98L262.841 2753.28M262.841 2753.28L253.928 2717.62C251.717 2708.78 247.144 2700.7 240.698 2694.26L238.005 2691.56C230.296 2683.85 219.84 2679.52 208.938 2679.52V2679.52C200.043 2679.52 191.388 2682.41 184.273 2687.75L170.651 2697.96M262.841 2753.28V2765.57V2793.25C262.841 2799.27 261.205 2805.17 258.109 2810.33V2810.33C250.101 2823.68 229.095 2835.23 220.34 2822.36C220.003 2821.87 219.819 2821.37 219.819 2820.88C219.819 2820.11 219.512 2819.27 218.972 2818.38C210.782 2804.98 198.373 2794.93 192.54 2780.34L192.075 2779.18C190.088 2774.21 187.705 2769.41 184.952 2764.82V2764.82C175.594 2749.22 170.651 2731.38 170.651 2713.19V2704.11M170.651 2697.96V2636.5V2691.82M170.651 2697.96V2704.11M262.841 2704.11L275.133 2667.23M275.133 2667.23V2624.21M275.133 2667.23L277.468 2678.9C279.825 2690.69 288.316 2700.31 299.717 2704.11V2704.11M127.629 2722.55V2707.84C127.629 2705.37 128.099 2702.93 129.014 2700.65V2700.65C134.177 2687.74 150.856 2684.31 160.687 2694.14L170.651 2704.11M127.629 2722.55L115.337 2740.98M127.629 2722.55V2722.55C127.629 2739.52 141.387 2753.28 158.359 2753.28V2753.28V2753.28C165.635 2753.28 172.029 2758.1 174.028 2765.1L178.271 2779.95C181.235 2790.32 179.494 2801.47 173.51 2810.45L172.819 2811.48C171.377 2813.65 169.725 2815.66 167.887 2817.5L150.225 2835.16C147.491 2837.9 144.156 2839.96 140.487 2841.18V2841.18C132.47 2843.85 123.644 2842.28 117.045 2837L108.665 2830.3C101.032 2824.19 95.6145 2815.75 93.2438 2806.26L92.8367 2804.64C91.4574 2799.12 89.1399 2793.88 85.9855 2789.15L78.4603 2777.86M115.337 2740.98L78.4603 2777.86M115.337 2740.98L121.483 2753.28M78.4603 2777.86L60.2204 2796.1C56.1583 2800.16 50.6488 2802.44 44.9041 2802.44V2802.44C35.5807 2802.44 27.3034 2796.48 24.3551 2787.63L22.3586 2781.64C19.0272 2771.65 21.104 2760.64 27.8483 2752.55L47.7302 2728.69L78.4603 2697.96M78.4603 2697.96V2697.96C94.0641 2701.86 107.184 2712.39 114.377 2726.77L115.337 2728.69M754.524 2974.53H795.193C796.758 2974.53 798.319 2974.69 799.853 2975L800.405 2975.11C814.824 2977.99 828.276 2966.96 828.276 2952.26V2952.26C828.276 2950.72 828.428 2949.19 828.729 2947.69L830.49 2938.88C833.091 2925.87 837.944 2913.42 844.829 2902.08L852.86 2888.85M754.524 2974.53L736.086 2968.39M834.422 2980.68L838.11 2985.6C847.685 2998.36 852.86 3013.89 852.86 3029.85V3029.85M852.86 3029.85V3029.85C832.485 3038 813.422 3049.11 796.286 3062.82L760.67 3091.31L717.458 3122.73C701.378 3134.43 687.963 3149.4 678.098 3166.67V3166.67C671.716 3177.83 666.897 3189.83 663.777 3202.31L656.187 3232.67M852.86 3029.85V3029.85C873.122 3050.11 888.905 3074.4 899.191 3101.14L911.479 3133.09M656.187 3294.13L654.207 3282.25C651.459 3265.76 652.133 3248.88 656.187 3232.67V3232.67M656.187 3294.13V3294.13C680.438 3306.25 707.179 3312.57 734.292 3312.57H736.086L865.152 3306.42H889.183C921.881 3306.42 954.131 3298.81 983.378 3284.18V3284.18C994.68 3278.53 1005.45 3271.88 1015.56 3264.29L1024.95 3257.25M656.187 3294.13V3294.13C648.317 3302 637.642 3306.42 626.512 3306.42H588.581M1024.95 3257.25L1014.87 3249.69C988.931 3230.24 965.759 3207.35 945.991 3181.65L919.147 3146.75C915.946 3142.59 913.364 3137.99 911.479 3133.09V3133.09M1024.95 3257.25L1036.01 3238.81M1283.08 3054.43L1240.06 3079.02L1184.75 3109.75M1283.08 3054.43H1296.59C1312.03 3054.43 1327.32 3051.49 1341.66 3045.75V3045.75C1347.67 3043.35 1353.48 3040.47 1359.03 3037.14L1381.42 3023.7M1184.75 3109.75L1154.02 3125.11M1184.75 3109.75V3109.75C1180.66 3119.95 1175.4 3129.65 1169.06 3138.63L1141.72 3177.35L1117.14 3220.37L1110.81 3235.15C1103.32 3252.63 1105.73 3272.77 1117.14 3287.98V3287.98M1075.48 3183.5L1097.75 3163.46C1114.7 3148.21 1133.62 3135.31 1154.02 3125.11V3125.11M1075.48 3183.5V3183.5C1066.43 3191.65 1058.64 3201.1 1052.37 3211.55L1036.01 3238.81M1075.48 3183.5L1053.82 3165.05C1034.84 3148.9 1019.95 3128.48 1010.37 3105.48L1004.31 3090.94C997.697 3075.07 995.341 3057.75 997.473 3040.69V3040.69C999.375 3025.48 1004.79 3010.91 1013.3 2998.15L1020.3 2987.66C1023.39 2983.02 1026.94 2978.69 1030.88 2974.75V2974.75C1046.76 2958.87 1068.3 2949.95 1090.75 2949.95H1098.19C1106.68 2949.95 1115.14 2951.13 1123.3 2953.47L1127.5 2954.67C1144.67 2959.57 1159.67 2970.15 1170.04 2984.68V2984.68C1179.61 2998.07 1184.75 3014.11 1184.75 3030.56V3052.74C1184.75 3062.02 1183.45 3071.25 1180.9 3080.17L1179.05 3086.67C1174.75 3101.7 1166.03 3115.1 1154.02 3125.11V3125.11M1154.02 3125.11L1067.97 3208.08L1036.01 3238.81M736.086 2968.39V2968.39C736.086 2996.67 715.447 3020.73 687.489 3025.03L656.187 3029.85L634.676 3032.92M656.187 3232.67L650.041 3208.08V3208.08C645.999 3195.96 639.19 3184.94 630.152 3175.9L613.165 3158.91L583.04 3131.3C578.605 3127.23 575.215 3122.16 573.159 3116.5V3116.5M588.581 3306.42L576.289 3263.4L557.851 3183.5L554.217 3148.98C552.606 3133.67 545.09 3119.6 533.267 3109.75V3109.75M588.581 3306.42V3306.42C568.144 3310.51 547.354 3312.57 526.512 3312.57H476.301C469.249 3312.57 462.239 3311.48 455.514 3309.36L421.925 3298.75C413.203 3296 407.273 3287.91 407.273 3278.76V3278.76M533.267 3109.75L573.159 3116.5M533.267 3109.75V3109.75C501.094 3125.02 473.623 3148.84 453.902 3178.5V3178.5M573.159 3116.5L570.233 3108.46C566.217 3097.41 566.41 3085.28 570.774 3074.36V3074.36C574.366 3065.39 580.597 3057.71 588.644 3052.34L597.601 3046.37C607.847 3039.54 619.493 3035.09 631.683 3033.35L634.676 3032.92M634.676 3032.92V3032.92C601.089 3026.99 566.501 3033.94 537.812 3052.39L526.317 3059.78C506.578 3072.47 489.672 3089.09 476.656 3108.62L471.398 3116.5M453.902 3178.5L450.575 3183.5L414.594 3249.89C409.789 3258.75 407.273 3268.68 407.273 3278.76V3278.76M453.902 3178.5L456.813 3155.58C458.59 3141.61 463.582 3128.23 471.398 3116.5V3116.5M471.398 3116.5L434.515 3136.18C406.452 3151.15 382.017 3172.1 362.933 3197.55L342.82 3224.37C338.711 3229.84 335.738 3236.09 334.077 3242.73L331.804 3251.83C330.918 3255.37 331.061 3259.09 332.216 3262.56V3262.56C334.83 3270.4 342.17 3275.69 350.436 3275.69H373.47L407.273 3278.76M1381.42 3023.7V3023.7C1373.4 3011.68 1369.13 2997.55 1369.13 2983.1V2971.45C1369.13 2957.25 1371.84 2943.17 1377.11 2929.98L1379.44 2924.16C1380.76 2920.87 1382.33 2917.69 1384.15 2914.66L1393.19 2899.6C1397.42 2892.55 1398.36 2884 1395.76 2876.2V2876.2M1381.42 3023.7L1412.52 3027.16C1422.96 3028.32 1430.54 3017.45 1425.84 3008.06V3008.06C1424.92 3006.22 1424.44 3004.19 1424.44 3002.14V2978.26C1424.44 2967.63 1425.92 2957.06 1428.84 2946.84L1430.77 2940.08C1434.73 2926.23 1440.49 2912.97 1447.89 2900.62L1455.17 2888.49M1381.42 3023.7L1387.57 3066.72M1449.03 3029.85H1467.46M1467.46 3029.85V2980.68L1465.13 2962C1462.68 2942.44 1467.93 2922.7 1479.76 2906.93V2906.93M1467.46 3029.85L1485.9 3042.14M1485.9 3042.14V3042.14C1510.15 3050.22 1535.95 3052.55 1561.26 3048.93L1565.8 3048.29M1485.9 3042.14L1473.61 3085.16M1565.8 3048.29L1566.33 3047.23C1574.07 3031.76 1578.09 3014.7 1578.09 2997.4V2996.11C1578.09 2981.87 1580.98 2967.79 1586.59 2954.7V2954.7C1593.12 2939.46 1603.17 2925.98 1615.91 2915.36L1633.41 2900.78L1656.41 2877.77C1661.55 2872.64 1667.18 2868.02 1673.22 2863.99L1680.03 2859.45C1693.71 2850.33 1709.79 2845.47 1726.23 2845.47V2845.47C1733.96 2845.47 1741.66 2846.55 1749.1 2848.67L1763.18 2852.69C1774.94 2856.05 1787.12 2857.76 1799.35 2857.76V2857.76M1565.8 3048.29C1563.75 3056.48 1558.42 3074.1 1553.51 3079.02C1548.59 3083.93 1510.49 3105.65 1492.05 3115.89M1565.8 3048.29H1594.1C1611.4 3048.29 1627.99 3055.16 1640.22 3067.39V3067.39C1647.85 3075.02 1653.47 3084.43 1656.57 3094.77L1670.28 3140.48L1698.38 3215.4C1704.09 3230.62 1714.44 3243.67 1727.96 3252.68V3252.68C1738.52 3259.72 1750.63 3264.06 1763.25 3265.32L1766.94 3265.69C1791.6 3268.15 1815.78 3259.98 1836.09 3245.76C1841.95 3241.66 1846.68 3238.81 1848.52 3238.81C1853.43 3238.81 1871.05 3210.13 1879.25 3195.79V3195.79C1887.41 3183.55 1893.9 3170.28 1898.55 3156.33L1903.83 3140.48M1799.35 2857.76L1785.48 2843.88C1782.44 2840.85 1779.62 2837.6 1777.04 2834.16V2834.16C1767.5 2821.43 1754.78 2811.44 1740.16 2805.17L1729.37 2800.55C1722.77 2797.72 1715.95 2795.42 1708.98 2793.68L1670.28 2784.01L1651.84 2777.86M1799.35 2857.76L1832.27 2900.56C1851.22 2925.19 1867 2952.11 1879.25 2980.68V2980.68V2980.68C1891.5 3021.52 1899.03 3063.63 1901.69 3106.18L1903.83 3140.48M1903.83 3140.48L1896.58 3180.34C1893.23 3198.78 1887.9 3216.81 1880.7 3234.11L1874.26 3249.56C1865.38 3270.87 1852.41 3290.23 1836.09 3306.56V3306.56C1808.29 3334.35 1772.03 3352.09 1733.03 3356.96L1694.87 3361.73L1590.38 3380.17L1467.46 3386.32H1412.15M1412.15 3386.32L1404.71 3338.88C1398.83 3301.4 1412.15 3264.46 1412.15 3226.52V3226.52C1412.15 3224.44 1416.57 3214.91 1422.6 3202.9C1439.42 3169.43 1463.6 3140.27 1492.05 3115.89V3115.89M1412.15 3386.32H1338.4M1492.05 3115.89L1473.61 3085.16M1473.61 3085.16V3085.16C1449.36 3073.04 1422.62 3066.72 1395.5 3066.72H1387.57M1387.57 3066.72L1320.39 3098.34C1296.22 3109.71 1276.59 3128.88 1264.64 3152.77V3152.77M1264.64 3152.77L1307.67 3189.64L1319.39 3199.69C1340.05 3217.4 1356.96 3239.06 1369.13 3263.4V3263.4M1264.64 3152.77L1273.65 3168.97C1288.08 3194.96 1299.5 3222.52 1307.67 3251.1V3251.1L1317.68 3283.64C1327.38 3315.16 1334.31 3347.45 1338.4 3380.17V3380.17V3386.32M1264.64 3152.77L1203.18 3189.64V3189.64C1170.71 3214 1143.28 3244.42 1122.39 3279.22L1117.14 3287.98M1338.4 3386.32H1142.03C1137.74 3386.32 1133.46 3385.89 1129.25 3385.05V3385.05C1113.54 3381.91 1099.53 3373.08 1089.91 3360.26L1086.41 3355.59M1117.14 3287.98L1086.41 3355.59M1086.41 3355.59H1022.46C1009.61 3355.59 998.552 3346.52 996.032 3333.92V3333.92C994.857 3328.05 995.674 3321.95 998.354 3316.59L1024.95 3263.4M1381.42 1056.97H1353.33C1331.47 1056.97 1310.01 1062.77 1291.14 1073.78L1289.03 1075.02C1261.65 1090.99 1241.87 1117.33 1234.18 1148.09V1148.09C1229.96 1164.98 1229.54 1182.6 1232.96 1199.68L1236.96 1219.73C1242.96 1249.71 1258.57 1276.93 1281.43 1297.24L1282.99 1298.63C1295.23 1309.52 1309.43 1317.98 1324.82 1323.58V1323.58C1353.44 1333.99 1384.81 1333.99 1413.43 1323.58L1424.83 1319.43C1432.74 1316.56 1440.33 1312.86 1447.47 1308.39V1308.39C1472.24 1292.91 1490.53 1268.95 1498.92 1240.97L1499.17 1240.14C1502.6 1228.72 1504.34 1216.85 1504.34 1204.93V1197.36C1504.34 1181.7 1502.05 1166.13 1497.56 1151.13L1494.26 1140.14C1488.77 1121.86 1478.84 1105.22 1465.34 1091.72V1091.72C1446.82 1073.21 1422.55 1061.54 1396.52 1058.65L1381.42 1056.97ZM1565.72 3226.52V3226.52C1558.14 3226.52 1550.98 3222.73 1546.78 3216.43V3216.43C1543.24 3211.11 1542.1 3204.55 1543.65 3198.35L1545.21 3192.09C1546.6 3186.56 1549.99 3181.75 1554.73 3178.58V3178.58C1561.58 3174.02 1570.34 3173.48 1577.7 3177.16V3177.16C1585.47 3181.04 1590.38 3188.99 1590.38 3197.67V3200.08C1590.38 3205.3 1588.84 3210.4 1585.94 3214.74L1584.91 3216.29C1580.65 3222.68 1573.4 3226.52 1565.72 3226.52ZM1840.93 3154.87L1844.49 3147.16C1851.19 3132.63 1854.66 3116.83 1854.66 3100.83V3072.16C1854.66 3060.39 1853.22 3048.65 1850.36 3037.23L1846.64 3022.35C1843.83 3011.11 1838.52 3000.64 1831.09 2991.73L1826.75 2986.51C1817.04 2974.87 1803.27 2967.34 1788.23 2965.46V2965.46C1771.8 2963.41 1755.25 2968.26 1742.53 2978.86L1740.69 2980.39C1730.85 2988.6 1723.63 2999.52 1719.95 3011.8L1715.26 3027.41C1709.93 3045.18 1708.81 3063.95 1711.99 3082.22L1714.72 3097.93C1717.82 3115.71 1725.71 3132.31 1737.56 3145.93L1762.07 3174.12C1773.48 3187.24 1791.66 3192.21 1808.15 3186.71V3186.71C1814.49 3184.6 1820.25 3181.04 1824.97 3176.32L1828.29 3173C1833.54 3167.75 1837.82 3161.61 1840.93 3154.87ZM591.402 1204.48H599.343C624.496 1204.48 649.197 1211.15 670.924 1223.83L700.78 1241.24C707.898 1245.4 714.451 1250.45 720.278 1256.28V1256.28C738.27 1274.27 748.378 1298.67 748.378 1324.11V1355.64C748.378 1376.91 739.928 1397.31 724.889 1412.35V1412.35C716.085 1421.15 705.352 1427.78 693.541 1431.72L658.095 1443.54C644.619 1448.03 630.508 1450.32 616.303 1450.32H601.412C585.03 1450.32 569.016 1445.47 555.386 1436.38V1436.38C544.876 1429.38 536.104 1420.06 529.74 1409.15L516.284 1386.08C503.256 1363.75 496.39 1338.36 496.39 1312.5V1303.8C496.39 1290.97 498.839 1278.25 503.603 1266.34L504.933 1263.02C515.107 1237.58 535.963 1217.92 561.951 1209.26V1209.26C571.448 1206.09 581.392 1204.48 591.402 1204.48Z" stroke="#D9D9D9" stroke-width="40"/>
</svg>
