<svg width="1956" height="3397" viewBox="0 0 1956 3397" fill="none" xmlns="http://www.w3.org/2000/svg">
<path d="M666.625 600.165L763.289 687.162C780.193 702.376 802.13 710.794 824.872 710.794V710.794C834.049 710.794 843.174 709.422 851.945 706.723L888.403 695.505C906.359 689.98 918.613 673.389 918.613 654.602V654.602C918.613 651.103 918.184 647.617 917.335 644.222L887.883 526.413M666.625 600.165L740.378 323.594M666.625 600.165L869.444 501.829M666.625 600.165L493.749 680.642C373.672 736.54 271.292 824.403 197.822 934.608V934.608C118.783 1053.17 76.6064 1192.47 76.6064 1334.96V1472.9M76.6064 1472.9L109.21 1514.82C172.628 1596.36 255.216 1662.24 348.622 1706.35V1706.35C400.282 1730.74 455.422 1748.41 511.662 1758.46V1758.46C569.629 1768.81 628.737 1771.2 687.351 1765.56L802.476 1754.49C879.782 1747.06 956.389 1733.6 1031.6 1714.23L1265.32 1654.02C1304.55 1643.92 1342.97 1630.88 1380.25 1615.01L1481.3 1572.01C1567.12 1535.49 1639.74 1473.63 1689.44 1394.7V1394.7C1708.15 1364.99 1723.38 1333.22 1734.82 1300.02L1779.06 1171.75M76.6064 1472.9L70.3136 1507.51C58.5542 1572.19 71.6262 1638.92 106.919 1694.38V1694.38C127.434 1726.62 154.775 1753.96 187.013 1774.48L211.529 1790.08C252.343 1816.05 297.614 1834.24 345.052 1843.73L373.698 1849.46C409.1 1856.54 445.114 1860.1 481.216 1860.1H887.883M1779.06 1171.75L1742.11 1046.14C1725.87 990.905 1701.11 938.54 1668.74 890.93V890.93C1631.95 836.825 1585.86 789.664 1532.62 751.634L1517.48 740.821C1466.77 704.597 1411.17 675.759 1352.34 655.171L1210.88 605.658C1118.64 573.374 1023.8 549.065 927.402 532.999L887.883 526.413M1779.06 1171.75V1171.75C1802.83 1219.29 1808.54 1273.85 1795.12 1325.29L1786.49 1358.35C1781.55 1377.31 1774.82 1395.76 1766.39 1413.45L1762.96 1420.66C1733.24 1483.07 1687.64 1536.58 1630.74 1575.83L1578.26 1612.02C1552.36 1629.88 1525.17 1645.78 1496.91 1659.6L1319.44 1746.36C1281.8 1764.76 1242.17 1778.79 1201.33 1788.16V1788.16M887.883 526.413L869.444 501.829M740.378 323.594L703.502 4L789.546 292.863M740.378 323.594L789.546 292.863M789.546 292.863L869.444 501.829M887.883 1860.1L1201.33 1788.16M887.883 1860.1L875.591 1872.39M629.749 1638.84H553.065C510.533 1638.84 468.586 1628.94 430.544 1609.92V1609.92C387.9 1588.6 351.559 1556.52 325.113 1516.85L323.791 1514.87C294.782 1471.35 278.401 1420.65 276.465 1368.39L275.201 1334.25C273.925 1299.81 277.064 1265.35 284.54 1231.7L297.333 1174.13C305.781 1136.12 322.357 1100.38 345.922 1069.37V1069.37C396.961 1002.21 476.46 962.781 560.809 962.781H595.754C618.291 962.781 640.701 966.151 662.241 972.779V972.779C740.801 996.951 800.053 1061.86 816.986 1142.29L838.714 1245.5M629.749 1638.84L663.407 1620.15C713.727 1592.19 755.274 1550.78 783.4 1500.56V1500.56M629.749 1638.84L577.451 1622.5C546.86 1612.94 517.464 1599.91 489.838 1583.66L460.564 1566.44C438.308 1553.35 418.479 1536.51 401.949 1516.68V1516.68C378.01 1487.95 361.628 1453.69 354.295 1417.03L340.886 1349.98M838.714 1245.5L832.48 1335.89C828.491 1393.73 811.729 1449.97 783.4 1500.56V1500.56M838.714 1245.5L771.108 1144.09M365.47 1220.91L386.565 1172.4C412.408 1112.96 460.83 1066.24 521.156 1042.54L549.804 1031.28C581.703 1018.75 616.867 1017.2 649.747 1026.87V1026.87C684.474 1037.08 714.503 1059.18 734.582 1089.3L771.108 1144.09M365.47 1220.91L340.886 1349.98M365.47 1220.91L386.466 1190.79C422.625 1138.91 476.467 1102 537.895 1086.99L539.836 1086.51C558.736 1081.89 578.123 1079.56 597.58 1079.56V1079.56C642.718 1079.56 686.966 1092.12 725.369 1115.84L771.108 1144.09M340.886 1349.98L343.168 1361.39C351.321 1402.16 370.605 1439.86 398.881 1470.33V1470.33C417.426 1490.32 439.448 1506.76 463.874 1518.87L500.293 1536.93C532.89 1553.09 568.781 1561.5 605.165 1561.5V1561.5C641.549 1561.5 677.44 1553.09 710.038 1536.93L783.4 1500.56M1293.52 1448.32V1448.32C1217.28 1384.11 1161.1 1299.35 1131.66 1204.13L1124.5 1180.97M1293.52 1448.32L1398.36 1496.37C1426.19 1509.12 1457.15 1513.4 1487.39 1508.68V1508.68C1521.1 1503.41 1552.16 1487.23 1575.79 1462.61L1582.52 1455.6C1602.63 1434.65 1617.52 1409.25 1625.98 1381.47L1639.64 1336.59C1650.58 1300.64 1656.14 1263.28 1656.14 1225.7V1215.28C1656.14 1168.11 1648.7 1121.24 1634.1 1076.4V1076.4C1620.19 1033.67 1599.94 993.284 1574.03 956.577L1539.36 907.467L1498.27 859.531C1476.75 834.415 1450.1 814.186 1420.13 800.196L1416.33 798.425C1388.07 785.235 1357.26 778.4 1326.07 778.4V778.4C1284.77 778.4 1244.36 790.379 1209.74 812.884L1201.53 818.22C1161.3 844.369 1129.39 882.115 1110.07 926.033V926.033C1085.84 981.099 1082.04 1043.59 1099.81 1101.07L1124.5 1180.97M1293.52 1448.32L1386.35 1432.85C1422.02 1426.9 1455.18 1410.67 1481.76 1386.13L1485.81 1382.39C1508.76 1361.21 1525.28 1334.01 1533.5 1303.88V1303.88C1537.39 1289.61 1539.36 1274.88 1539.36 1260.08V1207.85C1539.36 1183.84 1536.99 1159.89 1532.28 1136.34L1528.24 1116.15C1523.39 1091.91 1514.75 1068.58 1502.63 1047.03V1047.03C1478.55 1004.23 1441.68 970.053 1397.19 949.289L1373.42 938.197L1365.28 935.145C1338.49 925.098 1309.38 922.945 1281.41 928.94V928.94C1253.21 934.982 1227.36 949.045 1206.97 969.436L1182.89 993.511L1137.08 1042.68M1124.5 1180.97L1137.08 1042.68M1441.03 1500.56L1511.41 1445.57C1529.88 1431.14 1545.43 1413.34 1557.23 1393.1V1393.1C1573.7 1364.86 1582.38 1332.75 1582.38 1300.06V1202.48V1185.5C1582.38 1139.98 1572.64 1094.99 1553.8 1053.56L1545.81 1035.96C1529.47 1000.02 1504.56 968.63 1473.26 944.555L1470.43 942.38C1450.97 927.405 1429.13 915.793 1405.83 908.026V908.026C1368.51 895.589 1328.55 893.375 1290.09 901.616L1262.79 907.467V907.467C1223.44 915.337 1188.82 938.518 1166.56 971.91L1156.99 986.275C1145.75 1003.12 1138.91 1022.51 1137.08 1042.68V1042.68M875.591 1872.39L857.152 2062.92M875.591 1872.39V1872.39C859.438 1884.51 840.598 1892.48 820.751 1896.19C797.222 1900.59 771.592 1905.95 764.962 1909.27C755.128 1914.19 736.28 1927.71 728.086 1933.85L678.917 1970.73M857.152 2062.92V2062.92C963.433 2046.57 1067.88 2019.95 1169.01 1983.42L1238.21 1958.44L1361.13 1903.12M857.152 2062.92L767.985 2073.41C757.826 2074.61 747.549 2074.36 737.459 2072.68L705.538 2067.36C688.95 2064.59 674.911 2053.57 668.286 2038.11V2038.11C663.276 2026.42 662.972 2013.25 667.438 2001.34L678.917 1970.73M1361.13 1903.12L1322.31 1885.48C1303.34 1876.86 1282.74 1872.39 1261.9 1872.39H1245.35C1240.62 1872.39 1235.92 1871.63 1231.43 1870.13V1870.13C1213.45 1864.14 1201.33 1847.32 1201.33 1828.37V1788.16M1361.13 1903.12L1414.5 1815.5M1201.33 1788.16V1788.16C1213.26 1798.92 1228.52 1805.27 1244.56 1806.15L1414.5 1815.5M1414.5 1815.5C1424.74 1807.91 1426.27 1810.93 1441.03 1810.93V1810.93C1474.48 1810.93 1524.25 1883.76 1546.46 1908.78L1557.8 1921.56L1637.7 1995.31L1649.38 2007C1670.22 2027.84 1688.96 2050.69 1705.3 2075.21V2075.21L1711.94 2085.16C1723.84 2103.01 1733.02 2122.54 1739.19 2143.09V2143.09C1745.25 2163.29 1748.33 2184.26 1748.33 2205.35V2278.03M1748.33 2278.03V2278.03C1756.49 2310.69 1760.62 2344.22 1760.62 2377.88V2437.83L1755.81 2485.88C1750.84 2535.59 1739.59 2584.47 1722.31 2631.35V2631.35C1710.99 2662.08 1697.14 2691.81 1680.89 2720.24L1656.14 2763.57M1748.33 2278.03L1783.66 2285.1C1821.25 2292.62 1857.18 2306.88 1889.69 2327.2V2327.2L1902.82 2334.7C1921.91 2345.61 1935.72 2363.85 1941.06 2385.18V2385.18C1943.66 2395.59 1944.16 2406.41 1942.53 2417.02L1936.74 2454.64C1934.06 2472.07 1929.67 2489.2 1923.64 2505.78L1908.12 2548.46L1871.25 2622.21L1859.04 2640.53C1842.75 2664.95 1821.8 2685.91 1797.37 2702.19L1787.97 2708.46C1782.04 2712.41 1776.52 2716.94 1771.48 2721.97V2721.97C1756.38 2737.07 1737.15 2747.36 1716.21 2751.55L1656.14 2763.57M1748.33 2278.03L1693.31 2278.03C1684.94 2278.03 1676.6 2278.95 1668.43 2280.76V2280.76M1656.14 2763.57L1643.84 2775.86M1293.52 2530.02V2560.75V2590.98C1293.52 2611.76 1295.39 2632.49 1299.11 2652.94V2652.94M1293.52 2530.02L1332.62 2503.95C1355.21 2488.89 1381.77 2480.85 1408.92 2480.85V2480.85C1422.06 2480.85 1435.13 2482.73 1447.74 2486.44L1533.22 2511.58M1293.52 2530.02L1342.69 2456.27M1311.96 2695.96V2695.96C1307.96 2691.96 1305.27 2686.83 1304.26 2681.26L1299.11 2652.94M1311.96 2695.96V2695.96C1311.96 2707.65 1306.77 2718.72 1297.79 2726.2L1287.3 2734.95C1279.56 2741.4 1275.08 2750.95 1275.08 2761.03V2761.03C1275.08 2773.89 1282.35 2785.64 1293.85 2791.39L1296.15 2792.54C1306.18 2797.55 1317.9 2797.9 1328.21 2793.48L1354.98 2782.01M1311.96 2695.96L1326.3 2689.82M1354.98 2782.01L1398 2763.57M1354.98 2782.01L1416.44 2849.61M1398 2763.57V2714.4V2714.4C1398 2699.85 1388.36 2687.06 1374.36 2683.06L1368.76 2681.46C1359.85 2678.91 1350.33 2679.52 1341.81 2683.17L1326.3 2689.82M1398 2763.57L1428.73 2745.13L1439.96 2738.4C1452.84 2730.67 1464.1 2720.51 1473.11 2708.49L1474.21 2707.02C1488.58 2687.88 1496.34 2664.58 1496.34 2640.65V2640.65V2638.72C1496.34 2620.47 1488.23 2603.16 1474.21 2591.48V2591.48M1398 2763.57L1408.64 2774.21C1413.82 2779.39 1419.62 2783.91 1425.9 2787.68V2787.68C1439.82 2796.03 1455.75 2800.44 1471.98 2800.44H1477.9M1326.3 2689.82V2689.82C1326.3 2665.77 1333.42 2642.26 1346.75 2622.26L1350.33 2616.89C1353.42 2612.25 1356.97 2607.93 1360.91 2603.99L1363.98 2600.92C1377.89 2587 1396.77 2579.19 1416.44 2579.19V2579.19H1440.26C1452.67 2579.19 1464.68 2583.54 1474.21 2591.48V2591.48M1477.9 2800.44L1489.2 2789.15C1493.93 2784.42 1499.39 2780.48 1505.38 2777.49L1520.41 2769.97C1528.47 2765.94 1537.96 2765.94 1546.02 2769.97V2769.97C1553.5 2773.71 1558.97 2780.53 1560.99 2788.64L1570.09 2825.03M1477.9 2800.44L1447.17 2855.76M1570.09 2825.03V2825.03C1562.04 2845.17 1548.9 2862.88 1531.96 2876.43L1515.54 2889.57C1503.11 2899.51 1487.67 2904.93 1471.76 2904.93V2904.93M1570.09 2825.03L1588.16 2815.99C1608.76 2805.69 1627.56 2792.14 1643.84 2775.86V2775.86M1447.17 2855.76V2866.87C1447.17 2871.71 1448.1 2876.51 1449.89 2881L1454.9 2893.51C1457.66 2900.41 1464.33 2904.93 1471.76 2904.93V2904.93M1447.17 2855.76L1416.44 2849.61M1656.14 2689.82C1649.92 2677.38 1640.24 2658.02 1631.55 2640.65M1533.22 2511.58C1557.8 2538.21 1608.2 2593.94 1613.11 2603.77C1615.54 2608.63 1623.07 2623.69 1631.55 2640.65M1533.22 2511.58H1459.46V2511.58C1432.2 2511.58 1406.35 2523.69 1388.9 2544.63L1385.71 2548.46L1372.36 2561.8C1361.23 2572.93 1354.98 2588.03 1354.98 2603.77V2603.77M1631.55 2640.65V2640.65C1611.28 2640.65 1591.21 2636.53 1572.58 2628.54L1557.8 2622.21L1516.13 2601.37C1503.12 2594.87 1488.76 2591.48 1474.21 2591.48V2591.48M1342.69 2456.27L1344.69 2453.26C1359.68 2430.78 1377.58 2410.38 1397.91 2392.58V2392.58C1410.24 2381.79 1423.42 2372 1437.32 2363.32L1447.78 2356.78C1492.12 2329.07 1540.86 2309.11 1591.9 2297.77L1668.43 2280.76M1342.69 2456.27L1308.4 2417.69C1298.51 2406.57 1289.92 2394.36 1282.79 2381.29V2381.29C1265.69 2349.92 1257.46 2314.48 1259.02 2278.79L1261.01 2232.96C1262.15 2206.82 1274.07 2182.32 1293.93 2165.3V2165.3C1301.8 2158.55 1310.72 2153.15 1320.34 2149.3L1345.35 2139.3C1359.93 2133.46 1375.02 2128.98 1390.43 2125.9L1425.82 2118.82C1447.91 2114.4 1470.75 2115.47 1492.33 2121.95V2121.95C1511.17 2127.6 1528.59 2137.23 1543.39 2150.19L1570.09 2173.55M1570.09 2173.55H1478.81C1466.15 2173.55 1453.73 2176.99 1442.87 2183.5V2183.5C1433.57 2189.08 1425.7 2196.75 1419.88 2205.9L1397.32 2241.35C1389.74 2253.26 1385.71 2267.1 1385.71 2281.22V2281.22C1385.71 2291.28 1387.75 2301.24 1391.72 2310.48L1395.22 2318.67C1401.12 2332.42 1409.59 2344.93 1420.17 2355.51L1422.59 2357.93M1570.09 2173.55L1637.7 2247.26M1668.43 2280.76L1637.7 2247.26M1637.7 2247.26V2183.88C1637.7 2164.81 1634.85 2145.84 1629.24 2127.62V2127.62C1618.7 2093.37 1598.76 2062.77 1571.68 2039.3L1558.45 2027.84C1533.85 2006.52 1504.15 1991.96 1472.23 1985.58L1468.92 1984.91C1442.49 1979.63 1415.2 1980.57 1389.2 1987.66V1987.66C1370.61 1992.73 1353 2000.85 1337.09 2011.71L1289.54 2044.12C1247.72 2072.64 1213.28 2110.68 1189.04 2155.11V2155.11L1164.45 2210.43L1153.44 2235.63C1140.35 2265.59 1131.21 2297.13 1126.26 2329.44L1121.85 2358.18C1117.51 2386.44 1118.59 2415.26 1125.02 2443.12V2443.12C1130.78 2468.09 1140.75 2491.9 1154.51 2513.52L1163.05 2526.94C1172.17 2541.26 1182.41 2554.83 1193.69 2567.52L1203.84 2578.93C1218.52 2595.45 1234.82 2610.45 1252.5 2623.71L1253.49 2624.46C1267.86 2635.23 1283.12 2644.76 1299.11 2652.94V2652.94M678.917 1970.73L667.885 1982.99C638.594 2015.53 615.281 2053 599.019 2093.65V2093.65L579.044 2173.55M574.435 2191.99L549.851 2173.55M574.435 2191.99L553.949 2245.25C547.134 2262.97 541.996 2281.29 538.6 2299.96V2299.96C533.829 2326.2 532.535 2352.95 534.749 2379.53L543.705 2487V2487C546.302 2505.18 527.409 2518.8 510.98 2510.58L504.536 2507.36C501.984 2506.09 499.654 2504.41 497.636 2502.39L490.153 2494.91C480.891 2485.64 473.719 2474.51 469.119 2462.24L457.66 2431.68L442.575 2376.37M574.435 2191.99L579.044 2173.55M549.851 2173.55V2173.55C525.426 2185.76 503.131 2201.83 483.822 2221.14L463.806 2241.16M549.851 2173.55H579.044M463.806 2241.16L456.056 2258.59C444.957 2283.57 439.222 2310.59 439.222 2337.92V2351.34C439.222 2359.79 440.35 2368.21 442.575 2376.37V2376.37M463.806 2241.16L420.784 2228.86M420.784 2228.86V2228.86C412.769 2240.89 408.492 2255.01 408.492 2269.46V2283.39C408.492 2292.08 409.444 2300.75 411.33 2309.24L413.658 2319.72C418.332 2340.75 428.283 2360.24 442.575 2376.37V2376.37M420.784 2228.86L418.329 2229.24C367.162 2237.11 317.947 2254.59 273.279 2280.76V2280.76L265.869 2285.18C226.088 2308.89 191.082 2339.81 162.651 2376.37V2376.37L141.898 2410.96C131.229 2428.74 123.696 2448.22 119.629 2468.56V2468.56M119.629 2468.56L114.267 2527.54C113.754 2533.18 114.824 2538.85 117.357 2543.91L120.277 2549.75C123.646 2556.49 130.533 2560.75 138.067 2560.75V2560.75M119.629 2468.56L140.62 2466.65C171.215 2463.87 202.02 2468.75 230.257 2480.85V2480.85M138.067 2560.75L142.762 2558.4C154.951 2552.31 162.651 2539.85 162.651 2526.22V2526.22C162.651 2520.64 163.951 2515.13 166.449 2510.13L176.172 2490.68C179.364 2484.3 184.539 2479.13 190.923 2475.93V2475.93C200.208 2471.29 211.138 2471.29 220.423 2475.93L230.257 2480.85M138.067 2560.75V2609.92M230.257 2480.85V2480.85C258.727 2497.12 284.187 2518.16 305.527 2543.06L310.156 2548.46L340.886 2585.33L377.762 2640.65M377.762 2640.65L383.908 2702.11M377.762 2640.65V2640.65C365.566 2636.58 354.186 2630.39 344.147 2622.36L328.594 2609.92L326.809 2608.49C307.81 2593.29 285.331 2583.05 261.393 2578.7L260.669 2578.57C240.625 2574.93 220.034 2575.6 200.269 2580.54V2580.54C187.543 2583.72 175.313 2588.63 163.923 2595.14L138.067 2609.92M383.908 2702.11V2702.11C400.174 2702.11 416.317 2699.29 431.618 2693.77L442.575 2689.82C451.701 2685.72 471.182 2676.29 476.098 2671.38C477.954 2669.52 482.204 2665.86 487.328 2661.57C503.967 2647.65 517.21 2630.06 525.267 2609.92V2609.92L536.298 2584.18C541.222 2572.69 544.941 2560.72 547.392 2548.46V2548.46M383.908 2702.11L351.309 2683.48C344.479 2679.58 336.748 2677.52 328.881 2677.52H315.655C312.134 2677.52 308.757 2678.92 306.267 2681.41V2681.41C301.483 2686.2 301.061 2693.81 305.287 2699.1L322.448 2720.55L330.886 2734.61C337.533 2745.69 342.947 2757.46 347.032 2769.71V2769.71M383.908 2702.11L386.011 2712.62C388.694 2726.04 393.154 2739.04 399.273 2751.28V2751.28M549.851 2536.17L547.392 2548.46M547.392 2548.46L580.581 2597.63L611.311 2652.94L678.242 2746.64C695.053 2770.18 713.78 2792.28 734.232 2812.74V2812.74M734.232 2812.74L777.254 2861.9M734.232 2812.74L719.071 2839.27C712.818 2850.21 708.098 2861.96 705.041 2874.18L695.801 2911.15C692.861 2922.91 694.713 2935.35 700.949 2945.74V2945.74C706.562 2955.1 715.337 2962.14 725.687 2965.59L728.086 2966.39M777.254 2861.9L814.13 2874.2L844.86 2886.85M777.254 2861.9L764.962 2898.78L755.156 2924.93C749.448 2940.15 746.524 2956.28 746.524 2972.53V2972.53M992.365 2929.51V2929.51C943.353 2921.34 895.42 2907.67 849.475 2888.75L844.86 2886.85M992.365 2929.51H1115.29L1225.91 2917.22M992.365 2929.51L958.252 2959.83C944.223 2972.3 932.451 2987.1 923.453 3003.57V3003.57C910.347 3027.57 903.479 3054.47 903.479 3081.81V3131.09M1225.91 2917.22L1268.94 2909.63C1309.77 2902.42 1349.64 2890.53 1387.76 2874.2V2874.2M1225.91 2917.22L1240.99 2939.83C1263.22 2973.18 1275.08 3012.36 1275.08 3052.43V3052.43M1416.44 2849.61V2849.61C1416.44 2857.07 1412 2863.81 1405.14 2866.75L1387.76 2874.2M138.067 2609.92L125.775 2622.21V2622.21C105.379 2642.61 87.7934 2665.63 73.4828 2690.67L70.4603 2695.96M347.032 2769.71L351.078 2781.85C356.501 2798.12 365.636 2812.9 377.762 2825.03V2825.03L383.71 2830.98C387.598 2834.86 393.349 2836.22 398.566 2834.48V2834.48C404.494 2832.51 408.492 2826.96 408.492 2820.71V2794.3V2790.33C408.492 2776.77 405.336 2763.4 399.273 2751.28V2751.28M347.032 2769.71L365.47 2763.57L399.273 2751.28M297.863 2702.11L267.133 2738.98L254.841 2751.28M254.841 2751.28L245.928 2715.62C243.717 2706.78 239.144 2698.7 232.698 2692.26L230.005 2689.56C222.296 2681.85 211.84 2677.52 200.938 2677.52V2677.52C192.043 2677.52 183.388 2680.41 176.273 2685.75L162.651 2695.96M254.841 2751.28V2763.57V2791.25C254.841 2797.27 253.205 2803.17 250.109 2808.33V2808.33C242.101 2821.68 221.095 2833.23 212.34 2820.36C212.003 2819.87 211.819 2819.37 211.819 2818.88C211.819 2818.11 211.512 2817.27 210.972 2816.38C202.782 2802.98 190.373 2792.93 184.54 2778.34L184.075 2777.18C182.088 2772.21 179.705 2767.41 176.952 2762.82V2762.82C167.594 2747.22 162.651 2729.38 162.651 2711.19V2702.11M162.651 2695.96V2634.5V2689.82M162.651 2695.96V2702.11M254.841 2702.11L267.133 2665.23M267.133 2665.23V2622.21M267.133 2665.23L269.468 2676.9C271.825 2688.69 280.316 2698.31 291.717 2702.11V2702.11M119.629 2720.55V2705.84C119.629 2703.37 120.099 2700.93 121.014 2698.65V2698.65C126.177 2685.74 142.856 2682.31 152.687 2692.14L162.651 2702.11M119.629 2720.55L107.337 2738.98M119.629 2720.55V2720.55C119.629 2737.52 133.387 2751.28 150.359 2751.28V2751.28V2751.28C157.635 2751.28 164.029 2756.1 166.028 2763.1L170.271 2777.95C173.235 2788.32 171.494 2799.47 165.51 2808.45L164.819 2809.48C163.377 2811.65 161.725 2813.66 159.887 2815.5L142.225 2833.16C139.491 2835.9 136.156 2837.96 132.487 2839.18V2839.18C124.47 2841.85 115.644 2840.28 109.045 2835L100.665 2828.3C93.032 2822.19 87.6145 2813.75 85.2438 2804.26L84.8367 2802.64C83.4574 2797.12 81.1399 2791.88 77.9855 2787.15L70.4603 2775.86M107.337 2738.98L70.4603 2775.86M107.337 2738.98L113.483 2751.28M70.4603 2775.86L52.2204 2794.1C48.1583 2798.16 42.6488 2800.44 36.9041 2800.44V2800.44C27.5807 2800.44 19.3034 2794.48 16.3551 2785.63L14.3586 2779.64C11.0272 2769.65 13.104 2758.64 19.8483 2750.55L39.7302 2726.69L70.4603 2695.96M70.4603 2695.96V2695.96C86.0641 2699.86 99.1842 2710.39 106.377 2724.77L107.337 2726.69M746.524 2972.53H787.193C788.758 2972.53 790.319 2972.69 791.853 2973L792.405 2973.11C806.824 2975.99 820.276 2964.96 820.276 2950.26V2950.26C820.276 2948.72 820.428 2947.19 820.729 2945.69L822.49 2936.88C825.091 2923.87 829.944 2911.42 836.829 2900.08L844.86 2886.85M746.524 2972.53L728.086 2966.39M826.422 2978.68L830.11 2983.6C839.685 2996.36 844.86 3011.89 844.86 3027.85V3027.85M844.86 3027.85V3027.85C824.485 3036 805.422 3047.11 788.286 3060.82L752.67 3089.31L709.458 3120.73C693.378 3132.43 679.963 3147.4 670.098 3164.67V3164.67C663.716 3175.83 658.897 3187.83 655.777 3200.31L648.187 3230.67M844.86 3027.85V3027.85C865.122 3048.11 880.905 3072.4 891.191 3099.14L903.479 3131.09M648.187 3292.13L646.207 3280.25C643.459 3263.76 644.133 3246.88 648.187 3230.67V3230.67M648.187 3292.13V3292.13C672.438 3304.25 699.179 3310.57 726.292 3310.57H728.086L857.152 3304.42H881.183C913.881 3304.42 946.131 3296.81 975.378 3282.18V3282.18C986.68 3276.53 997.45 3269.88 1007.56 3262.29L1016.95 3255.25M648.187 3292.13V3292.13C640.317 3300 629.642 3304.42 618.512 3304.42H580.581M1016.95 3255.25L1006.87 3247.69C980.931 3228.24 957.759 3205.35 937.991 3179.65L911.147 3144.75C907.946 3140.59 905.364 3135.99 903.479 3131.09V3131.09M1016.95 3255.25L1028.01 3236.81M1275.08 3052.43L1232.06 3077.02L1176.75 3107.75M1275.08 3052.43H1288.59C1304.03 3052.43 1319.32 3049.49 1333.66 3043.75V3043.75C1339.67 3041.35 1345.48 3038.47 1351.03 3035.14L1373.42 3021.7M1176.75 3107.75L1146.02 3123.11M1176.75 3107.75V3107.75C1172.66 3117.95 1167.4 3127.65 1161.06 3136.63L1133.72 3175.35L1109.14 3218.37L1102.81 3233.15C1095.32 3250.63 1097.73 3270.77 1109.14 3285.98V3285.98M1067.48 3181.5L1089.75 3161.46C1106.7 3146.21 1125.62 3133.31 1146.02 3123.11V3123.11M1067.48 3181.5V3181.5C1058.43 3189.65 1050.64 3199.1 1044.37 3209.55L1028.01 3236.81M1067.48 3181.5L1045.82 3163.05C1026.84 3146.9 1011.95 3126.48 1002.37 3103.48L996.308 3088.94C989.697 3073.07 987.341 3055.75 989.473 3038.69V3038.69C991.375 3023.48 996.794 3008.91 1005.3 2996.15L1012.3 2985.66C1015.39 2981.02 1018.94 2976.69 1022.88 2972.75V2972.75C1038.76 2956.87 1060.3 2947.95 1082.75 2947.95H1090.19C1098.68 2947.95 1107.14 2949.13 1115.3 2951.47L1119.5 2952.67C1136.67 2957.57 1151.67 2968.15 1162.04 2982.68V2982.68C1171.61 2996.07 1176.75 3012.11 1176.75 3028.56V3050.74C1176.75 3060.02 1175.45 3069.25 1172.9 3078.17L1171.05 3084.67C1166.75 3099.7 1158.03 3113.1 1146.02 3123.11V3123.11M1146.02 3123.11L1059.97 3206.08L1028.01 3236.81M728.086 2966.39V2966.39C728.086 2994.67 707.447 3018.73 679.489 3023.03L648.187 3027.85L626.676 3030.92M648.187 3230.67L642.041 3206.08V3206.08C637.999 3193.96 631.19 3182.94 622.152 3173.9L605.165 3156.91L575.04 3129.3C570.605 3125.23 567.215 3120.16 565.159 3114.5V3114.5M580.581 3304.42L568.289 3261.4L549.851 3181.5L546.217 3146.98C544.606 3131.67 537.09 3117.6 525.267 3107.75V3107.75M580.581 3304.42V3304.42C560.144 3308.51 539.354 3310.57 518.512 3310.57H468.301C461.249 3310.57 454.239 3309.48 447.514 3307.36L413.925 3296.75C405.203 3294 399.273 3285.91 399.273 3276.76V3276.76M525.267 3107.75L565.159 3114.5M525.267 3107.75V3107.75C493.094 3123.02 465.623 3146.84 445.902 3176.5V3176.5M565.159 3114.5L562.233 3106.46C558.217 3095.41 558.41 3083.28 562.774 3072.36V3072.36C566.366 3063.39 572.597 3055.71 580.644 3050.34L589.601 3044.37C599.847 3037.54 611.493 3033.09 623.683 3031.35L626.676 3030.92M626.676 3030.92V3030.92C593.089 3024.99 558.501 3031.94 529.812 3050.39L518.317 3057.78C498.578 3070.47 481.672 3087.09 468.656 3106.62L463.398 3114.5M445.902 3176.5L442.575 3181.5L406.594 3247.89C401.789 3256.75 399.273 3266.68 399.273 3276.76V3276.76M445.902 3176.5L448.813 3153.58C450.59 3139.61 455.582 3126.23 463.398 3114.5V3114.5M463.398 3114.5L426.515 3134.18C398.452 3149.15 374.017 3170.1 354.933 3195.55L334.82 3222.37C330.711 3227.84 327.738 3234.09 326.077 3240.73L323.804 3249.83C322.918 3253.37 323.061 3257.09 324.216 3260.56V3260.56C326.83 3268.4 334.17 3273.69 342.436 3273.69H365.47L399.273 3276.76M1373.42 3021.7V3021.7C1365.4 3009.68 1361.13 2995.55 1361.13 2981.1V2969.45C1361.13 2955.25 1363.84 2941.17 1369.11 2927.98L1371.44 2922.16C1372.76 2918.87 1374.33 2915.69 1376.15 2912.66L1385.19 2897.6C1389.42 2890.55 1390.36 2882 1387.76 2874.2V2874.2M1373.42 3021.7L1404.52 3025.16C1414.96 3026.32 1422.54 3015.45 1417.84 3006.06V3006.06C1416.92 3004.22 1416.44 3002.19 1416.44 3000.14V2976.26C1416.44 2965.63 1417.92 2955.06 1420.84 2944.84L1422.77 2938.08C1426.73 2924.23 1432.49 2910.97 1439.89 2898.62L1447.17 2886.49M1373.42 3021.7L1379.57 3064.72M1441.03 3027.85H1459.46M1459.46 3027.85V2978.68L1457.13 2960C1454.68 2940.44 1459.93 2920.7 1471.76 2904.93V2904.93M1459.46 3027.85L1477.9 3040.14M1477.9 3040.14V3040.14C1502.15 3048.22 1527.95 3050.55 1553.26 3046.93L1557.8 3046.29M1477.9 3040.14L1465.61 3083.16M1557.8 3046.29L1558.33 3045.23C1566.07 3029.76 1570.09 3012.7 1570.09 2995.4V2994.11C1570.09 2979.87 1572.98 2965.79 1578.59 2952.7V2952.7C1585.12 2937.46 1595.17 2923.98 1607.91 2913.36L1625.41 2898.78L1648.41 2875.77C1653.55 2870.64 1659.18 2866.02 1665.22 2861.99L1672.03 2857.45C1685.71 2848.33 1701.79 2843.47 1718.23 2843.47V2843.47C1725.96 2843.47 1733.66 2844.55 1741.1 2846.67L1755.18 2850.69C1766.94 2854.05 1779.12 2855.76 1791.35 2855.76V2855.76M1557.8 3046.29C1555.75 3054.48 1550.42 3072.1 1545.51 3077.02C1540.59 3081.93 1502.49 3103.65 1484.05 3113.89M1557.8 3046.29H1586.1C1603.4 3046.29 1619.99 3053.16 1632.22 3065.39V3065.39C1639.85 3073.02 1645.47 3082.43 1648.57 3092.77L1662.28 3138.48L1690.38 3213.4C1696.09 3228.62 1706.44 3241.67 1719.96 3250.68V3250.68C1730.52 3257.72 1742.63 3262.06 1755.25 3263.32L1758.94 3263.69C1783.6 3266.15 1807.78 3257.98 1828.09 3243.76C1833.95 3239.66 1838.68 3236.81 1840.52 3236.81C1845.43 3236.81 1863.05 3208.13 1871.25 3193.79V3193.79C1879.41 3181.55 1885.9 3168.28 1890.55 3154.33L1895.83 3138.48M1791.35 2855.76L1777.48 2841.88C1774.44 2838.85 1771.62 2835.6 1769.04 2832.16V2832.16C1759.5 2819.43 1746.78 2809.44 1732.16 2803.17L1721.37 2798.55C1714.77 2795.72 1707.95 2793.42 1700.98 2791.68L1662.28 2782.01L1643.84 2775.86M1791.35 2855.76L1824.27 2898.56C1843.22 2923.19 1859 2950.11 1871.25 2978.68V2978.68V2978.68C1883.5 3019.52 1891.03 3061.63 1893.69 3104.18L1895.83 3138.48M1895.83 3138.48L1888.58 3178.34C1885.23 3196.78 1879.9 3214.81 1872.7 3232.11L1866.26 3247.56C1857.38 3268.87 1844.41 3288.23 1828.09 3304.56V3304.56C1800.29 3332.35 1764.03 3350.09 1725.03 3354.96L1686.87 3359.73L1582.38 3378.17L1459.46 3384.32H1404.15M1404.15 3384.32L1396.71 3336.88C1390.83 3299.4 1404.15 3262.46 1404.15 3224.52V3224.52C1404.15 3222.44 1408.57 3212.91 1414.6 3200.9C1431.42 3167.43 1455.6 3138.27 1484.05 3113.89V3113.89M1404.15 3384.32H1330.4M1484.05 3113.89L1465.61 3083.16M1465.61 3083.16V3083.16C1441.36 3071.04 1414.62 3064.72 1387.5 3064.72H1379.57M1379.57 3064.72L1312.39 3096.34C1288.22 3107.71 1268.59 3126.88 1256.64 3150.77V3150.77M1256.64 3150.77L1299.67 3187.64L1311.39 3197.69C1332.05 3215.4 1348.96 3237.06 1361.13 3261.4V3261.4M1256.64 3150.77L1265.65 3166.97C1280.08 3192.96 1291.5 3220.52 1299.67 3249.1V3249.1L1309.68 3281.64C1319.38 3313.16 1326.31 3345.45 1330.4 3378.17V3378.17V3384.32M1256.64 3150.77L1195.18 3187.64V3187.64C1162.71 3212 1135.28 3242.42 1114.39 3277.22L1109.14 3285.98M1330.4 3384.32H1134.03C1129.74 3384.32 1125.46 3383.89 1121.25 3383.05V3383.05C1105.54 3379.91 1091.53 3371.08 1081.91 3358.26L1078.41 3353.59M1109.14 3285.98L1078.41 3353.59M1078.41 3353.59H1014.46C1001.61 3353.59 990.552 3344.52 988.032 3331.92V3331.92C986.857 3326.05 987.674 3319.95 990.354 3314.59L1016.95 3261.4M1373.42 1054.97H1345.33C1323.47 1054.97 1302.01 1060.77 1283.14 1071.78L1281.03 1073.02C1253.65 1088.99 1233.87 1115.33 1226.18 1146.09V1146.09C1221.96 1162.98 1221.54 1180.6 1224.96 1197.68L1228.96 1217.73C1234.96 1247.71 1250.57 1274.93 1273.43 1295.24L1274.99 1296.63C1287.23 1307.52 1301.43 1315.98 1316.82 1321.58V1321.58C1345.44 1331.99 1376.81 1331.99 1405.43 1321.58L1416.83 1317.43C1424.74 1314.56 1432.33 1310.86 1439.47 1306.39V1306.39C1464.24 1290.91 1482.53 1266.95 1490.92 1238.97L1491.17 1238.14C1494.6 1226.72 1496.34 1214.85 1496.34 1202.93V1195.36C1496.34 1179.7 1494.05 1164.13 1489.56 1149.13L1486.26 1138.14C1480.77 1119.86 1470.84 1103.22 1457.34 1089.72V1089.72C1438.82 1071.21 1414.55 1059.54 1388.52 1056.65L1373.42 1054.97ZM1557.72 3224.52V3224.52C1550.14 3224.52 1542.98 3220.73 1538.78 3214.43V3214.43C1535.24 3209.11 1534.1 3202.55 1535.65 3196.35L1537.21 3190.09C1538.6 3184.56 1541.99 3179.75 1546.73 3176.58V3176.58C1553.58 3172.02 1562.34 3171.48 1569.7 3175.16V3175.16C1577.47 3179.04 1582.38 3186.99 1582.38 3195.67V3198.08C1582.38 3203.3 1580.84 3208.4 1577.94 3212.74L1576.91 3214.29C1572.65 3220.68 1565.4 3224.52 1557.72 3224.52ZM1832.93 3152.87L1836.49 3145.16C1843.19 3130.63 1846.66 3114.83 1846.66 3098.83V3070.16C1846.66 3058.39 1845.22 3046.65 1842.36 3035.23L1838.64 3020.35C1835.83 3009.11 1830.52 2998.64 1823.09 2989.73L1818.75 2984.51C1809.04 2972.87 1795.27 2965.34 1780.23 2963.46V2963.46C1763.8 2961.41 1747.25 2966.26 1734.53 2976.86L1732.69 2978.39C1722.85 2986.6 1715.63 2997.52 1711.95 3009.8L1707.26 3025.41C1701.93 3043.18 1700.81 3061.95 1703.99 3080.22L1706.72 3095.93C1709.82 3113.71 1717.71 3130.31 1729.56 3143.93L1754.07 3172.12C1765.48 3185.24 1783.66 3190.21 1800.15 3184.71V3184.71C1806.49 3182.6 1812.25 3179.04 1816.97 3174.32L1820.29 3171C1825.54 3165.75 1829.82 3159.61 1832.93 3152.87ZM583.402 1202.48H591.343C616.496 1202.48 641.197 1209.15 662.924 1221.83L692.78 1239.24C699.898 1243.4 706.451 1248.45 712.278 1254.28V1254.28C730.27 1272.27 740.378 1296.67 740.378 1322.11V1353.64C740.378 1374.91 731.928 1395.31 716.889 1410.35V1410.35C708.085 1419.15 697.352 1425.78 685.541 1429.72L650.095 1441.54C636.619 1446.03 622.508 1448.32 608.303 1448.32H593.412C577.03 1448.32 561.016 1443.47 547.386 1434.38V1434.38C536.876 1427.38 528.104 1418.06 521.74 1407.15L508.284 1384.08C495.256 1361.75 488.39 1336.36 488.39 1310.5V1301.8C488.39 1288.97 490.839 1276.25 495.603 1264.34L496.933 1261.02C507.107 1235.58 527.963 1215.92 553.951 1207.26V1207.26C563.448 1204.09 573.392 1202.48 583.402 1202.48Z" stroke="white" stroke-width="24.5841"/>
</svg>
