<svg width="130" height="90" viewBox="0 0 130 90" fill="none" xmlns="http://www.w3.org/2000/svg">
<path d="M0 10.5C0 4.70101 4.70101 0 10.5 0H118.956C124.755 0 129.456 4.70101 129.456 10.5V78.6902C129.456 84.4892 124.755 89.1902 118.956 89.1902H10.5C4.70101 89.1902 0 84.4892 0 78.6902V10.5Z" fill="#0390FF"/>
<path d="M5.97363 11.4278C5.97363 6.70536 9.80192 2.87708 14.5244 2.87708H114.929C119.652 2.87708 123.48 6.70536 123.48 11.4278V68.1303C123.48 72.8527 119.652 76.681 114.929 76.681H14.5244C9.80192 76.681 5.97363 72.8527 5.97363 68.1303V11.4278Z" fill="#C3E5F8"/>
</svg>
