<svg width="147" height="115" viewBox="0 0 147 115" fill="none" xmlns="http://www.w3.org/2000/svg">
<path fill-rule="evenodd" clip-rule="evenodd" d="M28.9393 83.5247C47.41 92.1394 61.6201 96.0877 76.2368 95.4923L76.2535 95.8425C94.2157 94.9872 107.916 91.9865 121.06 82.2049V79.8012L121.06 79.8005V57.0706V35.6617L146.633 26.146L146.496 25.7777L147 25.6009L136.635 21.9442L136.808 21.46L136.056 21.7398L74.4358 0L0 25.6009L5.10362 27.3464V68.5074H11.0862V29.3925L28.9393 35.4984V83.5247ZM7.84564 86.9258C5.06257 86.9258 2.80647 84.6846 2.80647 81.92C2.80647 79.1554 5.06257 76.9143 7.84564 76.9143C10.6287 76.9143 12.8848 79.1554 12.8848 81.92C12.8848 84.6846 10.6287 86.9258 7.84564 86.9258ZM11.3011 90.9304C8.62356 91.7962 7.18155 91.824 4.67817 90.9304C2.17626 99.1301 1.22056 103.846 1.07875 112.67C6.20975 114.687 9.24724 114.575 14.9005 112.67C14.6846 104.235 13.824 99.4727 11.3011 90.9304Z" fill="white"/>
</svg>
