<svg width="65" height="51" viewBox="0 0 65 51" fill="none" xmlns="http://www.w3.org/2000/svg">
<path fill-rule="evenodd" clip-rule="evenodd" d="M12.7963 36.9327C20.9634 40.7418 27.2467 42.4877 33.7098 42.2245L33.7171 42.3794C41.6595 42.0011 47.7172 40.6744 53.5294 36.3493V15.7689L64.8375 11.5613L64.7769 11.3984L65 11.3201L60.4171 9.70324L60.4934 9.48911L60.1608 9.61285L32.9138 0L0 11.3201L2.2567 12.0919V30.2924H4.90205V12.9967L12.7963 15.6966V36.9327ZM3.46916 38.4366C2.23855 38.4366 1.24095 37.4456 1.24095 36.2231C1.24095 35.0007 2.23855 34.0097 3.46916 34.0097C4.69976 34.0097 5.69737 35.0007 5.69737 36.2231C5.69737 37.4456 4.69976 38.4366 3.46916 38.4366ZM4.99707 40.2073C3.81314 40.5901 3.17551 40.6024 2.06858 40.2073C0.962293 43.833 0.539702 45.9184 0.476998 49.8199C2.74581 50.7121 4.08892 50.6624 6.58865 49.8199C6.49319 46.0905 6.11266 43.9845 4.99707 40.2073Z" fill="#A3218E"/>
</svg>
