<svg width="84" height="109" viewBox="0 0 84 109" fill="none" xmlns="http://www.w3.org/2000/svg">
<path d="M40.4743 -0.00292969V15.5762M40.4743 15.5762H68.4601C68.9218 15.5762 69.3693 15.7359 69.7266 16.0283L81.1074 25.34C81.9809 26.0548 82.0903 27.3504 81.349 28.2015L72.2319 38.6693C71.852 39.1054 71.302 39.3558 70.7237 39.3558H56.0542H40.4743M40.4743 15.5762H26.8953C25.7908 15.5762 24.8953 16.4716 24.8953 17.5762V37.3558C24.8953 38.4604 25.7908 39.3558 26.8953 39.3558H40.4743M40.4743 39.3558V55.7553M40.4743 55.7553H54.8744C55.979 55.7553 56.8744 56.6508 56.8744 57.7553V75.4847C56.8744 76.5893 55.979 77.4847 54.8744 77.4847H40.4743M40.4743 55.7553H13.7917C13.286 55.7553 12.799 55.9469 12.4289 56.2915L2.71736 65.3334C1.85688 66.1345 1.86973 67.5015 2.7451 68.2863L12.435 76.9738C12.8019 77.3028 13.2773 77.4847 13.7701 77.4847H40.4743M40.4743 77.4847V92.2443M24.8953 107.004H42.1148M42.1148 107.004H59.3343H42.4743C41.3697 107.004 40.4743 106.108 40.4743 105.004V92.2443M42.1148 107.004L40.4743 92.2443" stroke="#D9D9D9" stroke-width="4"/>
</svg>
