<svg width="305" height="199" viewBox="0 0 305 199" fill="none" xmlns="http://www.w3.org/2000/svg">
<path fill-rule="evenodd" clip-rule="evenodd" d="M171.705 5.94186L136.899 81.4131L146.129 99.6011L148.924 96.5179L158.414 84.307C158.828 83.7732 159.485 83.4851 160.158 83.5411C160.337 83.556 160.511 83.5946 160.676 83.6545C161.063 83.4029 161.531 83.29 162 83.3451C162.642 83.4205 163.208 83.8017 163.519 84.3682L182.457 118.83H254.377L219.987 55.1054L207.832 70.7456C207.824 70.7558 207.817 70.7659 207.809 70.776C207.799 70.7887 207.789 70.8013 207.779 70.8138L191.917 91.2241C191.24 92.0963 189.983 92.2539 189.111 91.5761C188.239 90.8983 188.081 89.6418 188.759 88.7696L203.87 69.3255L171.705 5.94186ZM169.37 1.45305L134.591 76.8657L113.54 35.3834C112.624 33.5788 110.056 33.5532 109.104 35.3393L56.6531 133.8L43.4213 114.688H51.4792C52.2329 114.688 52.9225 114.264 53.2632 113.592C53.6039 112.919 53.5377 112.113 53.092 111.505L31.3212 81.8173C30.9444 81.3035 30.3454 81 29.7084 81C29.0713 81 28.4723 81.3035 28.0955 81.8173L6.32471 111.505C5.87901 112.113 5.81282 112.919 6.1535 113.592C6.49417 114.264 7.18384 114.688 7.93752 114.688H15.9954L0.355631 137.278C-0.0677984 137.89 -0.116787 138.686 0.228456 139.345C0.5737 140.004 1.25613 140.417 2.00002 140.417H27.7083V154.25C27.7083 155.355 28.6038 156.25 29.7084 156.25C30.8129 156.25 31.7084 155.355 31.7084 154.25V140.417H53.1283L46.3012 153.232C45.4141 154.898 46.6208 156.908 48.5076 156.908H72.8428L57.3556 179.278C56.9322 179.89 56.8832 180.686 57.2285 181.345C57.5737 182.004 58.2561 182.417 59 182.417H84.7084V196.25C84.7084 197.355 85.6038 198.25 86.7084 198.25C87.8129 198.25 88.7084 197.355 88.7084 196.25V182.417H114.417C115.161 182.417 115.843 182.004 116.188 181.345C116.533 180.686 116.484 179.89 116.061 179.278L100.574 156.908H197.432C198.136 156.908 198.789 156.537 199.15 155.933C199.511 155.328 199.527 154.578 199.192 153.958L182.393 122.83H257.729C258.433 122.83 259.086 122.459 259.447 121.854C259.807 121.25 259.824 120.5 259.489 119.88L222.05 50.5061C221.729 49.9112 221.129 49.5188 220.455 49.4628C219.782 49.4069 219.125 49.695 218.711 50.2287L206.583 65.8337L173.869 1.3687C172.924 -0.494748 170.245 -0.444594 169.37 1.45305ZM51.0062 152.908H63.7624L85.0955 123.817C85.4723 123.304 86.0713 123 86.7084 123C87.3454 123 87.9444 123.304 88.3212 123.817L109.654 152.908H194.08L160.169 90.071L151.989 99.0923L147.535 104.824C147.518 104.847 147.5 104.87 147.482 104.892L131.621 125.302C130.943 126.175 129.686 126.332 128.814 125.654C127.942 124.977 127.784 123.72 128.462 122.848L143.16 103.936L132.878 82.7669C132.736 82.4745 132.654 82.1612 132.632 81.8446L111.279 39.7657L59.204 137.519C59.4906 138.09 59.4897 138.77 59.1882 139.345C58.8825 139.928 58.3122 140.319 57.669 140.401L51.0062 152.908ZM62.8172 178.417L77.7078 156.908H95.7089L110.6 178.417H86.7084H62.8172ZM77.7252 152.908H95.6915C95.969 152.766 96.2808 152.688 96.6042 152.688H104.532L86.7084 128.382L68.8843 152.688H76.8125C77.1359 152.688 77.4477 152.766 77.7252 152.908ZM19.8125 110.688H11.8843L29.7084 86.382L47.5324 110.688H39.6042C38.8603 110.688 38.1779 111.1 37.8326 111.759C37.4874 112.418 37.5364 113.214 37.9598 113.826L53.5995 136.417H29.7084H5.81715L21.4569 113.826C21.8803 113.214 21.9293 112.418 21.5841 111.759C21.2388 111.1 20.5564 110.688 19.8125 110.688ZM276.321 22.8173C275.944 22.3035 275.345 22 274.708 22C274.071 22 273.472 22.3035 273.096 22.8173L251.325 52.5048C250.879 53.1125 250.813 53.9192 251.153 54.5915C251.494 55.2638 252.184 55.6875 252.938 55.6875H260.995L245.356 78.2782C244.932 78.8899 244.883 79.686 245.228 80.3449C245.574 81.0038 246.256 81.4167 247 81.4167H272.708V95.25C272.708 96.3546 273.604 97.25 274.708 97.25C275.813 97.25 276.708 96.3546 276.708 95.25V81.4167H302.417C303.161 81.4167 303.843 81.0038 304.188 80.3449C304.533 79.686 304.484 78.8899 304.061 78.2782L288.421 55.6875H296.479C297.233 55.6875 297.923 55.2638 298.263 54.5915C298.604 53.9192 298.538 53.1125 298.092 52.5048L276.321 22.8173ZM264.812 51.6875H256.884L274.708 27.382L292.532 51.6875H284.604C283.86 51.6875 283.178 52.1004 282.833 52.7593C282.487 53.4182 282.536 54.2143 282.96 54.8259L298.6 77.4167H274.708H250.817L266.457 54.8259C266.88 54.2143 266.929 53.4182 266.584 52.7593C266.239 52.1004 265.556 51.6875 264.812 51.6875Z" fill="#D9D9D9"/>
</svg>
