<svg width="87" height="85" viewBox="0 0 87 85" fill="none" xmlns="http://www.w3.org/2000/svg">
<circle cx="44.5" cy="42.5" r="41.525" stroke="url(#paint0_radial_3420_1453)" stroke-width="1.95"/>
<path fill-rule="evenodd" clip-rule="evenodd" d="M41.3155 38.4593C41.3155 41.5825 38.7837 44.1143 35.6605 44.1143C32.5374 44.1143 30.0055 41.5825 30.0055 38.4593C30.0055 35.3361 32.5374 32.8043 35.6605 32.8043C38.7837 32.8043 41.3155 35.3361 41.3155 38.4593ZM38.7055 38.4593C38.7055 40.141 37.3422 41.5043 35.6605 41.5043C33.9788 41.5043 32.6155 40.141 32.6155 38.4593C32.6155 36.7776 33.9788 35.4143 35.6605 35.4143C37.3422 35.4143 38.7055 36.7776 38.7055 38.4593Z" fill="url(#paint1_radial_3420_1453)"/>
<path d="M57.3213 38.4146C57.3213 39.1354 56.7371 39.7197 56.0163 39.7197H53.4514V42.285C53.4514 43.0058 52.8671 43.59 52.1464 43.59C51.4256 43.59 50.8414 43.0058 50.8414 42.285V39.7197H48.2756C47.5549 39.7197 46.9706 39.1354 46.9706 38.4146C46.9706 37.6939 47.5549 37.1096 48.2756 37.1096H50.8414V34.5443C50.8414 33.8236 51.4256 33.2393 52.1464 33.2393C52.8671 33.2393 53.4514 33.8236 53.4514 34.5443V37.1096H56.0163C56.7371 37.1096 57.3213 37.6939 57.3213 38.4146Z" fill="url(#paint2_radial_3420_1453)"/>
<path fill-rule="evenodd" clip-rule="evenodd" d="M63.1571 27.4659C67.1949 35.3254 70.6182 43.7173 71.0336 51.5093C71.0336 58.8897 64.3307 63.6715 58.2721 59.4569L49.1682 53.1237C46.1638 51.0337 42.1727 51.0474 39.1827 53.158L30.4265 59.3388C24.4635 63.548 17.8094 58.8066 17.9676 51.5093C18.1473 43.226 21.0359 34.6901 25.4013 26.996C27.8646 22.6545 33.4688 22.3897 37.9597 24.569C42.0785 26.5677 45.7028 26.3806 50.7086 24.0076C55.2495 21.8549 60.8607 22.996 63.1571 27.4659ZM36.8202 26.9171C39.2031 28.0734 41.5698 28.6516 44.1207 28.5349C46.6326 28.4201 49.1401 27.6395 51.8266 26.366C55.4463 24.65 59.3473 25.7618 60.8356 28.6586C64.8271 36.428 68.0214 44.3815 68.4233 51.5762C68.4034 54.4528 67.0991 56.5987 65.4963 57.6469C63.9724 58.6435 61.9367 58.8268 59.7626 57.3143L50.6586 50.9811C46.753 48.2642 41.5645 48.282 37.6776 51.0257L28.9214 57.2065C26.7944 58.708 24.8059 58.5253 23.3358 57.5584C21.7767 56.533 20.5152 54.4155 20.577 51.5659C20.7448 43.8281 23.4553 35.7148 27.6714 28.284C28.446 26.9187 29.6975 26.1569 31.3028 25.919C32.9686 25.6721 34.9631 26.0159 36.8202 26.9171Z" fill="url(#paint3_radial_3420_1453)"/>
<defs>
<radialGradient id="paint0_radial_3420_1453" cx="0" cy="0" r="1" gradientUnits="userSpaceOnUse" gradientTransform="translate(38.6267 94.5459) rotate(-64.8364) scale(98.9108 62.8912)">
<stop stop-color="#F7CBFD"/>
<stop offset="1" stop-color="#7758D1"/>
</radialGradient>
<radialGradient id="paint1_radial_3420_1453" cx="0" cy="0" r="1" gradientUnits="userSpaceOnUse" gradientTransform="translate(40.8323 65.3088) rotate(-56.7863) scale(47.9367 36.2952)">
<stop stop-color="#F7CBFD"/>
<stop offset="1" stop-color="#7758D1"/>
</radialGradient>
<radialGradient id="paint2_radial_3420_1453" cx="0" cy="0" r="1" gradientUnits="userSpaceOnUse" gradientTransform="translate(40.8323 65.3088) rotate(-56.7863) scale(47.9367 36.2952)">
<stop stop-color="#F7CBFD"/>
<stop offset="1" stop-color="#7758D1"/>
</radialGradient>
<radialGradient id="paint3_radial_3420_1453" cx="0" cy="0" r="1" gradientUnits="userSpaceOnUse" gradientTransform="translate(40.8323 65.3088) rotate(-56.7863) scale(47.9367 36.2952)">
<stop stop-color="#F7CBFD"/>
<stop offset="1" stop-color="#7758D1"/>
</radialGradient>
</defs>
</svg>
