<svg width="85" height="85" viewBox="0 0 85 85" fill="none" xmlns="http://www.w3.org/2000/svg">
<circle cx="42.5" cy="42.5" r="41.5893" stroke="url(#paint0_radial_3419_1448)" stroke-width="1.82143"/>
<path d="M60.23 16.5L60.2308 16.5C60.2828 16.5 60.3325 16.5129 60.3747 16.5356C60.4167 16.5582 60.4484 16.5887 60.4695 16.6212C60.4905 16.6535 60.5012 16.6878 60.5034 16.721C60.5055 16.754 60.4992 16.7882 60.4834 16.8211L46.3093 46.2725C46.2865 46.3145 46.2507 46.3541 46.2019 46.3843C46.1523 46.4151 46.0926 46.434 46.029 46.4365H44.2743H42.7743V47.9365V52.2703V53.0304L43.3872 53.4799L49.7695 58.1603L49.7697 58.1604C49.8204 58.1976 49.8493 58.2456 49.8604 58.2914C49.8713 58.3367 49.8662 58.3849 49.8432 58.43L49.8432 58.43L46.2975 65.3639C46.2975 65.3639 46.2975 65.3639 46.2975 65.364C46.2788 65.4003 46.2478 65.4356 46.2036 65.4623C46.1591 65.4892 46.1049 65.505 46.0473 65.505H46.0472H38.9558C38.9558 65.505 38.9558 65.505 38.9557 65.505C38.8982 65.505 38.8441 65.4892 38.7996 65.4623C38.7554 65.4356 38.7243 65.4002 38.7057 65.3638L38.7056 65.3636L35.1599 58.4297C35.1369 58.3847 35.1318 58.3364 35.1428 58.2912C35.1538 58.2454 35.1827 58.1974 35.2334 58.1602L41.6156 53.4799L42.2286 53.0304V52.2703V47.9365V46.4365H40.7286H38.9557C38.8969 46.4365 38.8417 46.42 38.7967 46.3921C38.752 46.3644 38.7212 46.3279 38.7032 46.2906L24.5204 16.8211L24.5204 16.8211C24.5045 16.7882 24.4983 16.754 24.5004 16.721C24.5025 16.6879 24.5132 16.6536 24.5342 16.6213C24.5553 16.5887 24.587 16.5582 24.629 16.5356C24.6712 16.513 24.7208 16.5 24.7728 16.5C24.7728 16.5 24.7728 16.5 24.7729 16.5L60.23 16.5ZM44.9512 65.038H45.8688L46.2866 64.221L48.6811 59.5394L49.2627 58.4021L48.2327 57.6467L43.3885 54.0943L42.5014 53.4438L41.6144 54.0943L36.7702 57.6467L35.7402 58.4021L36.3218 59.5394L38.7162 64.221L39.1341 65.038H40.0517H44.9512ZM51.6803 19.1499L51.682 19.1465L51.6974 19.1143L52.7245 16.967H50.3442H34.6579H32.2712L33.3064 19.1176L34.9752 22.5846L35.384 23.434H36.3267H48.6753H49.6179L50.0268 22.5847L51.6803 19.1499ZM48.359 26.0515L49.3939 23.901H47.0073H37.9954H35.6088L36.6437 26.0515L41.1498 35.4143L42.5015 38.2228L43.8531 35.4143L48.359 26.0515ZM44.6955 42.7815L46.0471 45.5901L47.3988 42.7815L58.7873 19.1175L59.8222 16.967H57.4357H54.264H53.3212L52.9124 17.8165L43.1097 38.1851L42.7967 38.8356L43.1097 39.4861L44.6955 42.7815ZM27.5663 16.967H25.1797L26.2147 19.1175L38.7295 45.12L39.1384 45.9695H40.0811H43.2531H45.6395L44.6048 43.8191C43.5668 41.6618 43.1019 40.6956 42.637 39.7294C41.5518 37.4742 40.4663 35.2192 32.0905 17.8165L31.6816 16.967H30.7389H27.5663Z" stroke="url(#paint1_radial_3419_1448)" stroke-width="3"/>
<defs>
<radialGradient id="paint0_radial_3419_1448" cx="0" cy="0" r="1" gradientUnits="userSpaceOnUse" gradientTransform="translate(36.6267 94.5459) rotate(-64.8364) scale(98.9108 62.8912)">
<stop stop-color="#F7CBFD"/>
<stop offset="1" stop-color="#7758D1"/>
</radialGradient>
<radialGradient id="paint1_radial_3419_1448" cx="0" cy="0" r="1" gradientUnits="userSpaceOnUse" gradientTransform="translate(39.8068 72.8454) rotate(-70.5905) scale(58.0733 30.0726)">
<stop stop-color="#F7CBFD"/>
<stop offset="1" stop-color="#7758D1"/>
</radialGradient>
</defs>
</svg>
