<svg width="311" height="205" viewBox="0 0 311 205" fill="none" xmlns="http://www.w3.org/2000/svg">
<path fill-rule="evenodd" clip-rule="evenodd" d="M174.834 15.8255L143.231 84.3507L149.821 97.3355L159.045 85.4661C160.064 84.1546 161.667 83.4363 163.32 83.545C163.969 83.3492 164.658 83.2843 165.35 83.3656C166.955 83.5542 168.37 84.507 169.148 85.9233L187.231 118.83H252.349L222.532 63.5795L213.239 75.5367C213.197 75.5945 213.152 75.6515 213.107 75.7076L197.286 96.065C195.592 98.2454 192.451 98.6393 190.27 96.9449C188.09 95.2504 187.696 92.1092 189.39 89.9288L203.334 71.9867L174.834 15.8255ZM169.646 3.19669L137.462 72.982L119.215 37.0258C117.201 33.0557 111.55 32.9994 109.457 36.9288L59.3188 131.047L52.147 120.688H54.4792C56.3634 120.688 58.0876 119.628 58.9392 117.948C59.7909 116.267 59.6254 114.25 58.5112 112.731L36.7404 83.0432C35.7985 81.7588 34.3011 81 32.7083 81C31.1156 81 29.6182 81.7588 28.6763 83.0432L6.90549 112.731C5.79125 114.25 5.62578 116.267 6.47746 117.948C7.32914 119.628 9.05333 120.688 10.9375 120.688H13.2697L0.889052 138.571C-0.169521 140.1 -0.291994 142.09 0.571116 143.737C1.43423 145.385 3.14029 146.417 5.00001 146.417H27.7083V157.25C27.7083 160.011 29.9469 162.25 32.7083 162.25C35.4698 162.25 37.7083 160.011 37.7083 157.25V146.417H51.1311L46.6534 154.822C44.7018 158.486 47.3567 162.908 51.5076 162.908H70.1171L57.889 180.571C56.8305 182.1 56.708 184.09 57.5711 185.737C58.4342 187.385 60.1403 188.417 62 188.417H84.7084V199.25C84.7084 202.011 86.9469 204.25 89.7084 204.25C92.4698 204.25 94.7084 202.011 94.7084 199.25V188.417H117.417C119.276 188.417 120.982 187.385 121.846 185.737C122.709 184.09 122.586 182.1 121.528 180.571L109.3 162.908H200.432C202.193 162.908 203.824 161.982 204.726 160.47C205.628 158.958 205.669 157.083 204.832 155.533L190.421 128.83H260.729C262.49 128.83 264.121 127.904 265.023 126.392C265.925 124.88 265.965 123.004 265.129 121.455L227.69 52.0813C226.887 50.5941 225.388 49.613 223.704 49.4731C222.02 49.3332 220.379 50.0535 219.342 51.3878L210.118 63.2572L179.545 3.0111C177.464 -1.08847 171.571 -0.978147 169.646 3.19669ZM59.0035 152.908H65.2422L85.6763 125.043C86.6182 123.759 88.1156 123 89.7084 123C91.3011 123 92.7985 123.759 93.7404 125.043L114.174 152.908H192.052L162.543 98.2278L157.288 104.023L152.943 109.615C152.932 109.63 152.921 109.644 152.91 109.658C152.877 109.701 152.844 109.744 152.81 109.786L136.989 130.143C135.295 132.324 132.154 132.718 129.973 131.023C127.793 129.329 127.399 126.187 129.093 124.007L142.646 106.568L133.179 87.0776C132.975 86.6566 132.827 86.216 132.736 85.7664L114.214 49.2678L65.3916 140.916C65.4877 141.873 65.3083 142.854 64.8456 143.737C64.3719 144.641 63.6444 145.36 62.7769 145.825L59.0035 152.908ZM71.5429 178.417L82.2797 162.908H97.137L107.874 178.417H89.7084H71.5429ZM79.8125 152.688C80.318 152.688 80.8121 152.764 81.2811 152.908H98.1356C98.6046 152.764 99.0987 152.688 99.6042 152.688H101.612L89.7084 136.455L77.8045 152.688H79.8125ZM22.8125 110.688H20.8045L32.7083 94.455L44.6122 110.688H42.6042C40.7445 110.688 39.0384 111.72 38.1753 113.367C37.3122 115.014 37.4346 117.005 38.4932 118.534L50.8738 136.417H32.7083H14.5429L26.9235 118.534C27.982 117.005 28.1045 115.014 27.2414 113.367C26.3783 111.72 24.6722 110.688 22.8125 110.688ZM281.74 24.0432C280.798 22.7588 279.301 22 277.708 22C276.116 22 274.618 22.7588 273.676 24.0432L251.905 53.7307C250.791 55.2501 250.626 57.2669 251.477 58.9476C252.329 60.6283 254.053 61.6875 255.938 61.6875H258.27L245.889 79.5706C244.83 81.0997 244.708 83.0899 245.571 84.7372C246.434 86.3845 248.14 87.4167 250 87.4167H272.708V98.25C272.708 101.011 274.947 103.25 277.708 103.25C280.47 103.25 282.708 101.011 282.708 98.25V87.4167H305.417C307.276 87.4167 308.982 86.3845 309.846 84.7372C310.709 83.0899 310.586 81.0997 309.528 79.5706L297.147 61.6875H299.479C301.363 61.6875 303.088 60.6283 303.939 58.9476C304.791 57.2669 304.625 55.2501 303.511 53.7307L281.74 24.0432ZM267.812 51.6875H265.805L277.708 35.455L289.612 51.6875H287.604C285.744 51.6875 284.038 52.7197 283.175 54.367C282.312 56.0143 282.435 58.0045 283.493 59.5336L295.874 77.4167H277.708H259.543L271.923 59.5336C272.982 58.0045 273.105 56.0143 272.241 54.367C271.378 52.7197 269.672 51.6875 267.812 51.6875Z" fill="#7C4BDB"/>
</svg>
