<svg width="102" height="49" viewBox="0 0 102 49" fill="none" xmlns="http://www.w3.org/2000/svg">
<path fill-rule="evenodd" clip-rule="evenodd" d="M10 0C4.47715 0 0 4.47715 0 10V18C0 23.5228 4.47715 28 10 28H40.111L51.4712 48.5924L63.7574 28H91.8164C97.3392 28 101.816 23.5228 101.816 18V10C101.816 4.47715 97.3392 0 91.8164 0H10Z" fill="white"/>
<path d="M26.8362 7.436V20H24.3162V7.436H26.8362ZM34.852 9.884C36.04 9.884 37 10.262 37.732 11.018C38.464 11.762 38.83 12.806 38.83 14.15V20H36.31V14.492C36.31 13.7 36.112 13.094 35.716 12.674C35.32 12.242 34.78 12.026 34.096 12.026C33.4 12.026 32.848 12.242 32.44 12.674C32.044 13.094 31.846 13.7 31.846 14.492V20H29.326V10.028H31.846V11.27C32.182 10.838 32.608 10.502 33.124 10.262C33.652 10.01 34.228 9.884 34.852 9.884ZM42.5044 8.84C42.0604 8.84 41.6884 8.702 41.3884 8.426C41.1004 8.138 40.9564 7.784 40.9564 7.364C40.9564 6.944 41.1004 6.596 41.3884 6.32C41.6884 6.032 42.0604 5.888 42.5044 5.888C42.9484 5.888 43.3144 6.032 43.6024 6.32C43.9024 6.596 44.0524 6.944 44.0524 7.364C44.0524 7.784 43.9024 8.138 43.6024 8.426C43.3144 8.702 42.9484 8.84 42.5044 8.84ZM43.7464 10.028V20H41.2264V10.028H43.7464ZM45.5881 15.014C45.5881 13.982 45.7981 13.082 46.2181 12.314C46.6381 11.534 47.2201 10.934 47.9641 10.514C48.7081 10.082 49.5601 9.866 50.5201 9.866C51.7561 9.866 52.7761 10.178 53.5801 10.802C54.3961 11.414 54.9421 12.278 55.2181 13.394H52.5001C52.3561 12.962 52.1101 12.626 51.7621 12.386C51.4261 12.134 51.0061 12.008 50.5021 12.008C49.7821 12.008 49.2121 12.272 48.7921 12.8C48.3721 13.316 48.1621 14.054 48.1621 15.014C48.1621 15.962 48.3721 16.7 48.7921 17.228C49.2121 17.744 49.7821 18.002 50.5021 18.002C51.5221 18.002 52.1881 17.546 52.5001 16.634H55.2181C54.9421 17.714 54.3961 18.572 53.5801 19.208C52.7641 19.844 51.7441 20.162 50.5201 20.162C49.5601 20.162 48.7081 19.952 47.9641 19.532C47.2201 19.1 46.6381 18.5 46.2181 17.732C45.7981 16.952 45.5881 16.046 45.5881 15.014ZM58.3423 8.84C57.8983 8.84 57.5263 8.702 57.2263 8.426C56.9383 8.138 56.7943 7.784 56.7943 7.364C56.7943 6.944 56.9383 6.596 57.2263 6.32C57.5263 6.032 57.8983 5.888 58.3423 5.888C58.7863 5.888 59.1523 6.032 59.4403 6.32C59.7403 6.596 59.8903 6.944 59.8903 7.364C59.8903 7.784 59.7403 8.138 59.4403 8.426C59.1523 8.702 58.7863 8.84 58.3423 8.84ZM59.5843 10.028V20H57.0643V10.028H59.5843ZM61.426 14.978C61.426 13.97 61.624 13.076 62.02 12.296C62.428 11.516 62.974 10.916 63.658 10.496C64.354 10.076 65.128 9.866 65.98 9.866C66.724 9.866 67.372 10.016 67.924 10.316C68.488 10.616 68.938 10.994 69.274 11.45V10.028H71.812V20H69.274V18.542C68.95 19.01 68.5 19.4 67.924 19.712C67.36 20.012 66.706 20.162 65.962 20.162C65.122 20.162 64.354 19.946 63.658 19.514C62.974 19.082 62.428 18.476 62.02 17.696C61.624 16.904 61.426 15.998 61.426 14.978ZM69.274 15.014C69.274 14.402 69.154 13.88 68.914 13.448C68.674 13.004 68.35 12.668 67.942 12.44C67.534 12.2 67.096 12.08 66.628 12.08C66.16 12.08 65.728 12.194 65.332 12.422C64.936 12.65 64.612 12.986 64.36 13.43C64.12 13.862 64 14.378 64 14.978C64 15.578 64.12 16.106 64.36 16.562C64.612 17.006 64.936 17.348 65.332 17.588C65.74 17.828 66.172 17.948 66.628 17.948C67.096 17.948 67.534 17.834 67.942 17.606C68.35 17.366 68.674 17.03 68.914 16.598C69.154 16.154 69.274 15.626 69.274 15.014ZM76.7932 11.576C77.1172 11.048 77.5372 10.634 78.0532 10.334C78.5812 10.034 79.1812 9.884 79.8532 9.884V12.53H79.1872C78.3952 12.53 77.7952 12.716 77.3872 13.088C76.9912 13.46 76.7932 14.108 76.7932 15.032V20H74.2732V10.028H76.7932V11.576Z" fill="#141419"/>
</svg>
