<svg width="717" height="494" viewBox="0 0 717 494" fill="none" xmlns="http://www.w3.org/2000/svg">
<g clip-path="url(#clip0_2743_2819)">
<g filter="url(#filter0_f_2743_2819)">
<path d="M438 262C438 340.977 373.977 405 295 405C216.023 405 152 340.977 152 262C152 183.023 216.023 119 295 119C373.977 119 438 183.023 438 262Z" fill="#6C33D7" fill-opacity="0.48"/>
</g>
<path d="M300.041 461.799H194.668C168.654 461.799 163.685 467.946 174.646 472.484C185.607 477.021 133.14 474.825 124.225 482.876C115.164 490.926 138.255 494 163.247 494H364.053C384.076 494 379.107 479.363 367.122 477.46C355.138 475.557 386.56 478.192 398.544 473.947C410.528 469.703 401.906 461.799 300.041 461.799Z" fill="#99ADF9"/>
<path d="M453.788 488.584C450.719 492.829 440.489 493.854 423.097 493.414C409.944 492.975 396.206 491.951 396.206 485.803C396.206 479.656 429.674 480.388 441.366 481.705C451.45 482.876 455.542 486.096 453.788 488.584Z" fill="#C5D3FF"/>
<path d="M150.967 468.092C148.921 471.166 141.906 472.044 129.63 472.044C120.422 472.044 110.777 471.605 110.484 467.361C110.192 462.969 133.722 462.823 142.052 463.555C149.067 464.14 152.136 466.19 150.967 468.092Z" fill="#C5D3FF"/>
<path d="M665.556 458.139H613.381C611.407 458.131 609.516 457.342 608.12 455.944C606.724 454.546 605.936 452.652 605.928 450.674V396.664C605.936 394.686 606.724 392.792 608.12 391.394C609.516 389.996 611.407 389.207 613.381 389.199H665.556C667.53 389.207 669.421 389.996 670.817 391.394C672.214 392.792 673.001 394.686 673.009 396.664V450.674C673.001 452.652 672.214 454.546 670.817 455.944C669.421 457.342 667.53 458.131 665.556 458.139Z" fill="#C5DFFF"/>
<path d="M663.072 455.651H612.943C611.045 455.648 609.225 454.891 607.883 453.547C606.54 452.203 605.785 450.38 605.782 448.479V396.371C605.785 394.47 606.54 392.647 607.883 391.303C609.225 389.959 611.045 389.202 612.943 389.199H663.072C664.97 389.202 666.79 389.959 668.132 391.303C669.474 392.647 670.23 394.47 670.233 396.371V448.479C670.23 450.38 669.474 452.203 668.132 453.547C666.79 454.891 664.97 455.648 663.072 455.651Z" fill="#E1ECFF"/>
<path d="M638.519 444.088C650.142 444.088 659.564 434.651 659.564 423.01C659.564 411.37 650.142 401.933 638.519 401.933C626.896 401.933 617.474 411.37 617.474 423.01C617.474 434.651 626.896 444.088 638.519 444.088Z" fill="#C5DFFF"/>
<path d="M630.188 432.524C629.84 432.524 629.505 432.386 629.258 432.139C629.012 431.892 628.873 431.557 628.873 431.207V414.96C628.873 414.611 629.012 414.276 629.258 414.029C629.505 413.781 629.84 413.643 630.188 413.643V413.643C630.537 413.643 630.872 413.781 631.118 414.029C631.365 414.276 631.504 414.611 631.504 414.96V431.207C631.504 431.557 631.365 431.892 631.118 432.139C630.872 432.386 630.537 432.524 630.188 432.524Z" fill="#1C3177"/>
<path d="M645.388 432.524C645.039 432.524 644.704 432.386 644.458 432.139C644.211 431.892 644.072 431.557 644.072 431.207V414.96C644.072 414.611 644.211 414.276 644.458 414.029C644.704 413.781 645.039 413.643 645.388 413.643V413.643C645.736 413.643 646.071 413.781 646.318 414.029C646.564 414.276 646.703 414.611 646.703 414.96V431.207C646.703 431.557 646.564 431.892 646.318 432.139C646.071 432.386 645.736 432.524 645.388 432.524Z" fill="#1C3177"/>
<path d="M511.078 366.804C510.053 366.828 509.027 366.78 508.009 366.658C485.356 365.048 469.865 357.29 443.85 317.624C434.789 303.865 428.651 289.813 422.659 276.201C412.429 252.928 403.66 232.729 383.784 223.361C353.239 209.017 323.279 232.729 322.986 233.022C322.364 233.507 321.577 233.728 320.794 233.639C320.011 233.549 319.293 233.156 318.796 232.543C318.299 231.93 318.062 231.147 318.135 230.361C318.207 229.575 318.585 228.848 319.187 228.338C320.502 227.313 352.362 201.991 386.268 217.945C408.19 228.191 417.836 250.293 428.066 273.713C433.912 287.179 440.051 301.084 448.819 314.257C473.518 351.728 487.695 359.047 508.448 360.657C523.939 361.828 532.27 352.46 540.308 343.239C542.995 340.087 545.875 337.105 548.93 334.31C555.986 328.147 564.568 324.001 573.776 322.308C574.159 322.25 574.551 322.269 574.928 322.362C575.304 322.456 575.659 322.623 575.971 322.854C576.283 323.086 576.547 323.376 576.747 323.709C576.947 324.042 577.079 324.411 577.137 324.796C577.195 325.18 577.176 325.572 577.082 325.95C576.989 326.327 576.822 326.682 576.591 326.994C576.36 327.307 576.07 327.571 575.738 327.771C575.405 327.972 575.036 328.105 574.652 328.162C566.605 329.812 559.11 333.49 552.876 338.847C550.017 341.449 547.332 344.236 544.838 347.191C536.654 356.558 527.593 366.804 511.078 366.804Z" fill="#1C3177"/>
<path d="M596.136 312.208L608.413 301.816C608.706 301.566 609.047 301.379 609.415 301.265C609.783 301.152 610.17 301.114 610.553 301.155C610.936 301.197 611.306 301.315 611.642 301.504C611.977 301.693 612.271 301.949 612.505 302.255C612.936 302.823 613.131 303.537 613.049 304.246C612.967 304.955 612.615 305.605 612.066 306.06L599.644 317.038L596.136 312.208Z" fill="#1C3177"/>
<path d="M588.537 303.426L600.813 293.033C601.106 292.784 601.447 292.597 601.815 292.483C602.183 292.37 602.57 292.332 602.953 292.373C603.336 292.414 603.706 292.533 604.042 292.722C604.378 292.911 604.671 293.166 604.905 293.473C605.336 294.041 605.531 294.754 605.45 295.464C605.368 296.173 605.016 296.823 604.467 297.278L592.044 308.256L588.537 303.426Z" fill="#1C3177"/>
<path d="M604.759 317.624C600.94 321.987 596.839 326.094 592.483 329.919C585.029 336.359 575.383 335.188 570.999 330.212C570.707 329.919 570.56 329.626 570.268 329.333C568.235 326.747 567.282 323.472 567.609 320.197C567.936 316.922 569.518 313.901 572.022 311.769C578.014 306.207 587.952 298.303 587.952 298.303L599.936 312.208L604.759 317.624Z" fill="#E1ECFF"/>
<path d="M604.759 317.624C600.94 321.987 596.839 326.094 592.482 329.919C585.029 336.359 575.383 335.188 570.999 330.212C570.707 329.919 570.56 329.626 570.268 329.333C575.558 329.354 580.739 327.828 585.175 324.942C590.391 321.111 595.279 316.851 599.79 312.208L604.759 317.624Z" fill="#C5DFFF"/>
<path d="M381.153 429.743H380.568C370.63 429.597 344.762 410.13 338.185 401.055C331.462 391.98 325.47 380.417 333.655 372.952C335.528 371.376 337.808 370.361 340.231 370.024C344.714 369.322 349.298 370.314 353.092 372.805C360.107 377.343 379.837 400.323 385.391 410.13C390.798 419.79 390.652 429.597 381.153 429.743Z" fill="#4B2395"/>
<path d="M381.153 429.743C382.614 428.865 383.637 427.401 384.514 424.474C385.976 419.351 380.86 409.105 364.053 389.492C353.969 377.636 345.347 372.366 340.231 370.024C344.714 369.322 349.298 370.314 353.092 372.805C360.108 377.343 379.837 400.323 385.391 410.13C390.799 419.79 390.652 429.597 381.153 429.743Z" fill="#384D89"/>
<path d="M331.755 379.247C333.216 375.149 341.693 375.881 349 383.053C356.307 390.225 367.415 404.423 364.638 410.57C361.861 416.718 351.338 411.741 342.716 403.252C334.093 394.762 329.416 385.834 331.755 379.247Z" fill="#7758D1"/>
<path d="M350.169 397.542C350.052 400.198 349.353 402.797 348.123 405.153C348.123 405.153 308.81 423.889 259.558 389.492C209.429 354.509 209.283 310.891 209.283 310.452C235.005 285.276 263.942 312.94 263.942 312.94C265.486 323.872 268.742 334.492 273.588 344.409C278.119 353.484 284.695 362.706 294.049 368.853C308.137 378.021 325.046 381.813 341.693 379.538C341.693 379.538 346.37 381.002 349.146 389.931C350.102 392.346 350.453 394.959 350.169 397.542Z" fill="#E1ECFF"/>
<path d="M350.169 397.542C350.052 400.198 349.353 402.797 348.123 405.153C348.123 405.153 308.81 423.889 259.558 389.492C209.429 354.509 209.283 310.891 209.283 310.452C235.005 285.276 263.942 312.94 263.942 312.94C265.486 323.872 268.742 334.492 273.588 344.409C269.732 347.424 265.446 349.841 260.873 351.582C255.437 353.047 249.841 353.834 244.212 353.924C244.212 353.924 268.911 390.955 305.448 397.688C325.178 401.055 340.378 399.591 350.169 397.542Z" fill="#C5DFFF"/>
<path d="M295.071 405.004C294.676 405.002 294.292 404.873 293.976 404.636C293.66 404.399 293.429 404.066 293.317 403.687C293.224 403.447 293.182 403.191 293.191 402.934C293.2 402.677 293.261 402.425 293.371 402.192C293.48 401.96 293.635 401.752 293.827 401.581C294.018 401.41 294.243 401.28 294.486 401.198C294.632 401.198 302.524 398.124 304.862 391.684C306.359 387.899 306.513 383.714 305.301 379.828C305.118 379.361 305.123 378.842 305.313 378.378C305.504 377.915 305.866 377.543 306.324 377.34C306.79 377.157 307.309 377.162 307.772 377.352C308.234 377.543 308.606 377.906 308.808 378.364C310.34 383.15 310.185 388.317 308.37 393.001C305.301 401.198 296.094 404.565 295.655 404.711C295.598 404.813 295.512 404.895 295.407 404.947C295.303 404.999 295.186 405.019 295.071 405.004Z" fill="#C5DFFF"/>
<path d="M261.166 389.931C260.925 389.942 260.685 389.906 260.459 389.824C260.232 389.742 260.025 389.615 259.848 389.451C259.671 389.288 259.528 389.091 259.428 388.872C259.329 388.652 259.273 388.415 259.266 388.174C259.261 387.678 259.436 387.196 259.758 386.82C260.081 386.443 260.529 386.196 261.02 386.125C261.166 386.125 271.396 385.393 276.511 378.66C279.567 374.719 281.26 369.89 281.334 364.901C281.295 364.397 281.458 363.897 281.787 363.513C282.116 363.129 282.584 362.891 283.088 362.852C283.592 362.813 284.09 362.977 284.474 363.306C284.858 363.635 285.095 364.104 285.134 364.609C285.209 370.548 283.249 376.334 279.58 381.002C273.296 389.052 261.75 389.784 261.166 389.931Z" fill="#C5DFFF"/>
<path d="M191.892 362.265C191.278 363.674 190.492 365.001 189.553 366.217C187.924 368.334 185.821 370.038 183.415 371.194C181.762 372.047 179.987 372.639 178.154 372.95C178.154 372.95 157.547 352.898 139.571 317.183C121.595 281.615 120.279 240.631 120.279 240.631C121.794 239.808 123.355 239.075 124.956 238.436C129.687 236.557 134.826 235.951 139.863 236.679C143.588 237.145 147.174 238.392 150.386 240.339C150.386 240.339 151.555 274.297 163.539 304.888C175.523 335.626 193.061 353.776 193.061 353.776C193.432 356.659 193.029 359.59 191.892 362.265Z" fill="#E1ECFF"/>
<path d="M191.892 362.267C185.461 356.558 173.185 343.531 161.347 318.356C147.171 288.203 141.471 249.415 140.009 236.681C143.735 237.146 147.32 238.393 150.532 240.34C150.532 240.34 151.701 274.298 163.685 304.89C175.669 335.627 193.207 353.777 193.207 353.777C193.481 356.673 193.029 359.591 191.892 362.267Z" fill="#F8FBFF"/>
<path d="M183.415 371.195C181.762 372.048 179.987 372.641 178.154 372.952C178.154 372.952 157.547 352.899 139.571 317.185C121.595 281.617 120.279 240.633 120.279 240.633C121.794 239.81 123.355 239.077 124.956 238.437C125.979 251.611 130.802 294.936 151.263 328.894C165.293 352.021 176.546 364.609 183.415 371.195Z" fill="#C5DFFF"/>
<path d="M224.19 392.273C219.145 395.011 213.302 395.891 207.675 394.761C198.76 392.712 195.399 389.784 195.399 389.784C195.399 389.784 192.476 385.393 194.668 382.905L194.961 382.612C196.843 381.051 199.118 380.038 201.537 379.685C204.318 381.864 207.363 383.684 210.598 385.1C214.398 386.418 221.121 385.1 223.606 386.711C224.098 387.07 224.471 387.569 224.68 388.142C224.888 388.716 224.921 389.338 224.775 389.931C224.766 390.746 224.566 391.549 224.19 392.273Z" fill="#E1ECFF"/>
<path d="M224.19 392.273C219.145 395.011 213.302 395.891 207.675 394.761C198.76 392.712 195.399 389.784 195.399 389.784C195.399 389.784 192.476 385.393 194.668 382.905C197.299 385.393 203.583 390.809 210.891 391.687C215.593 392.264 220.364 391.66 224.775 389.931C224.766 390.746 224.566 391.549 224.19 392.273Z" fill="#C5DFFF"/>
<path d="M221.413 388.174C215.53 389.145 209.493 388.06 204.314 385.1C202.02 383.957 200.058 382.244 198.614 380.124C198.624 379.167 198.823 378.222 199.199 377.343C199.575 376.464 200.122 375.668 200.806 375.001C201.976 373.976 203.876 373.537 206.799 374.415C206.799 374.415 212.498 379.392 221.998 376.026C231.497 372.659 230.913 370.61 232.959 370.024C234.42 369.585 236.32 371.781 236.759 374.269C237.033 375.393 236.93 376.576 236.466 377.636C234.816 380.335 232.628 382.664 230.038 384.478C227.447 386.291 224.511 387.55 221.413 388.174Z" fill="#E1ECFF"/>
<path d="M221.413 388.174C215.53 389.145 209.493 388.06 204.314 385.101C202.02 383.957 200.058 382.244 198.614 380.124C198.624 379.167 198.823 378.222 199.199 377.343C199.575 376.464 200.122 375.668 200.806 375.001C204.314 378.514 211.914 384.808 220.244 383.198C226.517 381.826 232.285 378.734 236.905 374.269C237.179 375.393 237.076 376.576 236.613 377.636C234.912 380.322 232.691 382.638 230.08 384.449C227.469 386.259 224.522 387.526 221.413 388.174Z" fill="#C5DFFF"/>
<path d="M219.806 378.515C214.223 379.467 208.483 378.431 203.583 375.588C201.39 374.547 199.521 372.927 198.176 370.904C198.198 369.044 198.93 367.263 200.222 365.927C201.391 364.903 203.145 364.464 205.922 365.342C205.922 365.342 211.329 370.026 220.39 366.806C229.451 363.585 228.867 361.683 230.767 361.097C232.082 360.658 233.982 362.854 234.42 365.196C234.688 366.271 234.585 367.406 234.128 368.416C232.582 371.011 230.507 373.251 228.04 374.991C225.572 376.731 222.767 377.932 219.806 378.515Z" fill="#E1ECFF"/>
<path d="M219.806 378.515C214.223 379.467 208.483 378.431 203.583 375.588C201.39 374.547 199.521 372.927 198.176 370.904C198.198 369.044 198.93 367.263 200.222 365.927C203.437 369.294 210.744 375.295 218.636 373.685C224.567 372.335 230.021 369.401 234.42 365.196C234.688 366.271 234.585 367.406 234.128 368.416C232.582 371.011 230.507 373.251 228.04 374.991C225.572 376.731 222.767 377.932 219.806 378.515Z" fill="#C5DFFF"/>
<path d="M218.781 371.195C213.929 372.837 208.658 372.734 203.874 370.903C201.806 370.279 199.94 369.117 198.467 367.536C198.35 366.707 198.407 365.862 198.634 365.056C198.86 364.25 199.251 363.499 199.782 362.852C200.659 361.828 202.266 361.242 204.897 361.535C204.897 361.535 210.305 364.901 218.05 360.949C225.796 356.851 225.066 355.241 226.673 354.363C227.842 353.777 229.742 355.387 230.473 357.437C230.816 358.375 230.867 359.396 230.619 360.364C228.237 365.384 223.988 369.271 218.781 371.195Z" fill="#E1ECFF"/>
<path d="M218.781 371.195C213.929 372.837 208.658 372.734 203.874 370.903C201.806 370.279 199.94 369.117 198.467 367.536C198.35 366.707 198.407 365.862 198.634 365.056C198.86 364.25 199.251 363.499 199.782 362.852C203.143 365.341 210.305 369.732 217.174 367.243C222.387 365.271 226.944 361.873 230.327 357.437C230.67 358.375 230.721 359.396 230.473 360.364C229.349 362.862 227.734 365.108 225.726 366.969C223.717 368.83 221.355 370.267 218.781 371.195Z" fill="#C5DFFF"/>
<path d="M213.667 364.169C213.287 366.146 212.799 368.101 212.206 370.024C210.998 374.339 209.124 378.438 206.652 382.173C205.595 383.54 204.421 384.814 203.145 385.979C201.024 388.064 198.409 389.575 195.545 390.37C195.545 390.37 184.292 379.538 181.077 375.879C178.984 373.559 177.032 371.115 175.231 368.561C174.715 365.754 174.715 362.877 175.231 360.071C175.606 357.584 176.67 355.252 178.3 353.338C179.152 352.518 180.082 351.782 181.077 351.143C184.35 349.693 188.038 349.484 191.453 350.557C191.453 350.557 202.268 357.29 207.091 359.925C209.427 361.103 211.631 362.525 213.667 364.169Z" fill="#E1ECFF"/>
<path d="M213.667 364.169C213.287 366.146 212.799 368.101 212.206 370.024C208.259 367.768 204.452 365.276 200.806 362.559C194.462 358.364 187.874 354.552 181.076 351.143C184.35 349.693 188.038 349.484 191.453 350.557C191.453 350.557 202.268 357.29 207.091 359.925C209.427 361.103 211.631 362.525 213.667 364.169Z" fill="#F8FBFF"/>
<path d="M203.145 385.832C200.974 387.851 198.376 389.352 195.545 390.223C195.545 390.223 184.292 379.246 181.077 375.733C178.984 373.412 177.032 370.968 175.231 368.414C174.715 365.608 174.715 362.731 175.231 359.925C179.761 365.048 191.891 378.221 200.368 383.783C201.391 384.661 202.414 385.247 203.145 385.832Z" fill="#C5DFFF"/>
<path d="M161.347 348.361C160.09 348.266 158.856 347.969 157.693 347.483C157.275 347.242 156.965 346.849 156.829 346.386C156.693 345.922 156.741 345.424 156.962 344.995C157.057 344.782 157.193 344.591 157.362 344.431C157.531 344.272 157.731 344.148 157.948 344.066C158.166 343.984 158.397 343.947 158.629 343.955C158.862 343.964 159.09 344.019 159.301 344.117C159.447 344.263 163.539 346.166 168.946 342.653C174.354 339.14 175.231 334.749 175.231 334.603C175.247 334.363 175.317 334.129 175.434 333.919C175.551 333.709 175.714 333.528 175.909 333.388C176.105 333.248 176.329 333.153 176.565 333.11C176.802 333.067 177.045 333.077 177.277 333.139C177.747 333.261 178.156 333.552 178.426 333.957C178.695 334.362 178.807 334.853 178.738 335.334C178.738 335.627 177.715 341.482 170.846 346.02C167.981 347.725 164.675 348.54 161.347 348.361Z" fill="#C5DFFF"/>
<path d="M145.709 318.941C143.902 318.75 142.131 318.307 140.448 317.624C140.029 317.383 139.72 316.99 139.584 316.526C139.448 316.063 139.495 315.565 139.717 315.135C139.8 314.931 139.924 314.746 140.08 314.591C140.237 314.435 140.423 314.313 140.627 314.231C140.832 314.149 141.051 314.109 141.271 314.114C141.491 314.118 141.708 314.167 141.909 314.257C142.055 314.404 147.17 316.892 153.893 313.818C160.47 310.891 161.639 306.646 161.639 306.353C161.678 306.127 161.763 305.912 161.889 305.721C162.015 305.53 162.18 305.367 162.372 305.243C162.565 305.119 162.781 305.037 163.007 305.001C163.233 304.965 163.464 304.977 163.685 305.036C164.14 305.205 164.513 305.541 164.731 305.976C164.948 306.411 164.992 306.912 164.854 307.378C164.854 307.67 163.247 313.525 155.062 317.331C152.144 318.696 148.914 319.252 145.709 318.941Z" fill="#C5DFFF"/>
<path d="M134.602 286.008C132.238 285.96 129.945 285.194 128.025 283.812C127.663 283.485 127.433 283.036 127.379 282.55C127.325 282.065 127.451 281.576 127.733 281.177C127.858 280.971 128.028 280.795 128.231 280.664C128.434 280.533 128.664 280.451 128.904 280.422C129.144 280.394 129.386 280.421 129.614 280.501C129.842 280.581 130.048 280.713 130.218 280.885C130.364 280.885 133.579 283.373 140.74 281.909C149.801 280.007 152.286 276.494 152.432 276.347C152.559 276.146 152.726 275.973 152.923 275.84C153.12 275.708 153.343 275.618 153.577 275.576C153.811 275.535 154.051 275.543 154.282 275.6C154.513 275.657 154.729 275.762 154.917 275.908C155.279 276.235 155.509 276.684 155.563 277.17C155.617 277.655 155.491 278.144 155.209 278.543C154.917 278.982 151.701 283.227 141.471 285.569C139.216 286.054 136.901 286.202 134.602 286.008Z" fill="#C5DFFF"/>
<path d="M156.232 261.564C149.583 264.591 142.343 266.091 135.04 265.955C130.521 266 126.042 265.102 121.887 263.32C120.339 262.681 118.907 261.791 117.649 260.686C117.649 260.686 117.795 258.051 117.357 249.415C115.895 222.19 128.171 218.677 136.21 218.385C138.144 218.379 140.067 218.675 141.909 219.263C144.948 220.414 147.678 222.255 149.884 224.643C152.091 227.031 153.713 229.899 154.624 233.022C157.109 241.95 156.232 261.564 156.232 261.564Z" fill="#4B2395"/>
<path d="M138.256 235.217C129.048 240.194 125.248 236.974 125.248 236.974C125.248 236.974 123.056 244.439 122.033 259.222C121.887 260.686 121.887 262.149 121.741 263.32C120.193 262.681 118.761 261.791 117.503 260.686C117.503 260.686 117.649 258.051 117.21 249.415C115.749 222.19 128.025 218.677 136.063 218.385C137.997 218.379 139.92 218.675 141.763 219.263C144.101 223.215 146.732 230.68 138.256 235.217Z" fill="#4B2395"/>
<path d="M324.886 280.885C324.447 283.227 324.009 285.422 323.424 287.618C319.917 301.23 313.779 312.208 305.156 319.38C280.457 340.018 246.551 350.996 202.999 322.747C168.216 300.206 136.209 249.122 124.664 229.362C121.741 224.386 120.133 221.312 120.133 221.312C120.133 221.312 140.155 220.287 171.723 205.797C187.292 198.506 202.205 189.887 216.298 180.036C244.797 160.129 261.312 141.54 270.811 127.049C282.065 110.071 283.672 98.9464 283.672 98.9464C283.672 98.9464 286.449 104.069 291.272 115.34C300.809 138.611 309.007 162.411 315.825 186.622C326.493 223.508 329.416 256.148 324.886 280.885Z" fill="#E1ECFF"/>
<path d="M291.272 115.34C287.147 123.449 282.408 131.229 277.095 138.613C261.758 159.341 242.733 177.056 220.975 190.867C207.177 199.945 192.66 207.876 177.569 214.579C151.555 226.142 133.579 228.777 124.517 229.216C121.594 224.239 119.987 221.166 119.987 221.166C119.987 221.166 140.009 220.141 171.577 205.65C187.145 198.359 202.059 189.74 216.152 179.889C244.651 159.983 261.165 141.394 270.665 126.903C281.918 109.924 283.526 98.8 283.526 98.8C286.395 104.174 288.981 109.695 291.272 115.34Z" fill="#4B2395"/>
<path d="M323.424 287.618C319.917 301.23 313.779 312.208 305.156 319.38C280.457 340.018 246.551 350.996 202.999 322.747C168.216 300.206 136.209 249.122 124.664 229.362C121.741 224.386 120.133 221.312 120.133 221.312C120.133 221.312 140.155 220.287 171.723 205.797C184.146 225.118 211.621 265.077 238.659 288.642C270.08 316.16 305.887 299.913 323.424 287.618Z" fill="#C5DFFF"/>
<path d="M177.569 214.725C151.555 226.289 133.579 228.923 124.517 229.362C121.594 224.386 119.987 221.312 119.987 221.312C119.987 221.312 140.009 220.287 171.577 205.797C173.331 208.431 175.377 211.505 177.569 214.725Z" fill="#4B2395"/>
<path d="M320.793 266.687C317.14 251.611 312.171 232.583 305.886 212.383C295.802 179.596 284.403 154.274 278.118 143.297C286.887 129.977 288.495 124.561 288.495 124.561C288.495 124.561 290.687 128.66 294.487 137.442C301.919 155.652 308.312 174.271 313.632 193.209C322.109 221.897 324.447 247.366 320.793 266.687Z" fill="#F8FBFF"/>
<path d="M291.272 115.34C287.147 123.449 282.408 131.229 277.095 138.613C274.757 134.075 272.711 130.123 270.811 126.903C282.064 109.924 283.672 98.8 283.672 98.8C283.672 98.8 286.595 104.216 291.272 115.34Z" fill="#5F30B5"/>
<path d="M245.528 278.982C245.528 278.982 232.374 288.935 205.629 300.059C198.176 303.133 190.869 305.768 184.292 307.963L182.538 306.207C163.831 288.203 147.024 264.93 135.625 247.366C134.894 246.341 134.309 245.317 133.725 244.439C148.987 240.327 163.893 234.992 178.3 228.484C202.999 217.506 209.283 212.53 209.283 212.53L245.528 278.982Z" fill="#E1ECFF"/>
<path d="M241.436 278.836C241.436 278.836 229.598 288.35 204.46 298.303C196.714 301.377 188.969 304.011 182.392 306.207C163.685 288.203 146.878 264.93 135.479 247.366L137.817 246.78C151.907 242.9 165.684 237.958 179.03 231.997C201.83 221.751 208.26 218.385 208.26 218.385L241.436 278.836Z" fill="#4B2395"/>
<path d="M176.252 284.544C175.776 284.555 175.311 284.4 174.937 284.105L158.861 269.761L157.838 272.834C157.756 273.078 157.626 273.303 157.456 273.495C157.285 273.687 157.078 273.842 156.845 273.951C156.613 274.061 156.361 274.122 156.105 274.131C155.848 274.141 155.593 274.098 155.353 274.005C155.11 273.924 154.886 273.793 154.694 273.623C154.502 273.452 154.347 273.244 154.238 273.011C154.129 272.779 154.068 272.527 154.058 272.27C154.049 272.013 154.092 271.757 154.184 271.517L156.23 265.662C156.347 265.364 156.524 265.093 156.751 264.866C156.977 264.639 157.248 264.462 157.546 264.345C157.875 264.276 158.216 264.28 158.544 264.355C158.872 264.431 159.179 264.577 159.445 264.784L173.622 277.372L172.891 271.663C172.806 271.238 172.877 270.796 173.092 270.419C173.307 270.042 173.651 269.756 174.06 269.614L222.435 248.683C222.675 248.576 222.933 248.517 223.196 248.51C223.458 248.503 223.72 248.549 223.964 248.644C224.209 248.74 224.433 248.883 224.622 249.065C224.811 249.248 224.962 249.466 225.066 249.708C225.173 249.948 225.232 250.207 225.239 250.47C225.245 250.733 225.2 250.994 225.105 251.24C225.009 251.485 224.866 251.708 224.684 251.898C224.502 252.087 224.284 252.238 224.043 252.342L176.983 272.688L178.299 282.202C178.363 282.608 178.299 283.024 178.116 283.391C177.932 283.759 177.638 284.06 177.275 284.251C176.95 284.397 176.606 284.496 176.252 284.544Z" fill="white"/>
<path d="M283.672 98.9464C283.672 98.9464 281.48 114.608 264.673 136.417C255.027 149.005 240.413 163.642 218.491 178.572C182.538 203.162 154.186 213.554 137.232 218.092C131.598 219.705 125.824 220.783 119.987 221.312C119.987 221.312 83.304 158.665 89.2961 101.874C90.9037 87.0904 95.4343 74.7953 102.303 64.6957C107.184 57.4212 113.321 51.0768 120.426 45.9603C140.74 31.3233 168.07 26.2003 194.669 29.4205C243.189 35.4216 283.672 98.9464 283.672 98.9464Z" fill="#4B2395"/>
<path d="M283.672 98.9464C283.672 98.9464 282.649 105.972 277.095 117.096C273.611 123.983 269.45 130.504 264.673 136.564C255.027 149.151 240.412 163.788 218.49 178.718C179.761 205.065 149.801 215.164 133.579 219.116C129.113 220.239 124.57 221.022 119.987 221.458C119.987 221.019 120.133 187.354 174.792 144.614C229.744 101.435 283.672 98.9464 283.672 98.9464Z" fill="#5F30B5"/>
<path d="M277.096 117.096C273.611 123.983 269.45 130.504 264.673 136.564C255.027 149.151 240.413 163.788 218.491 178.718C179.761 205.065 149.801 215.164 133.579 219.116C139.717 205.065 153.163 184.28 183.415 160.568C210.784 138.885 242.884 123.989 277.096 117.096V117.096Z" fill="#4B2395"/>
<path d="M283.672 98.9464C283.672 98.9464 281.48 114.608 264.673 136.417C259.431 127.259 253.52 118.502 246.989 110.217C246.989 110.217 225.506 129.684 207.968 115.779C190.43 101.727 203.583 75.9662 203.583 75.9662C190.74 63.397 174.642 54.6766 157.108 50.7905C144.982 48.1883 132.666 46.5729 120.279 45.9603C140.594 31.3233 167.923 26.2003 194.522 29.4205C243.189 35.4216 283.672 98.9464 283.672 98.9464Z" fill="#7758D1"/>
<path d="M137.379 218.092C131.744 219.705 125.97 220.783 120.133 221.312C120.133 221.312 83.4503 158.665 89.4423 101.874C91.05 87.0904 95.5805 74.7953 102.449 64.6957C99.5622 97.6629 103.137 130.877 112.972 162.471C119.152 181.812 127.332 200.453 137.379 218.092Z" fill="#7758D1"/>
<path d="M304.279 473.069C304.3 473.998 304.251 474.928 304.133 475.85C303.549 484.486 277.096 486.096 258.681 486.974C240.559 487.852 221.414 482.73 227.99 476.728L228.283 476.436C232.959 472.484 242.02 467.946 252.105 464.287C257.935 462.128 263.889 460.319 269.935 458.871C277.827 456.968 293.903 453.163 299.164 457.115C300.262 457.986 301.159 459.084 301.795 460.335C303.588 464.332 304.438 468.69 304.279 473.069Z" fill="#4B2395"/>
<path d="M304.279 473.069C304.3 473.998 304.251 474.928 304.133 475.85C303.549 484.486 277.096 486.096 258.681 486.974C240.559 487.852 221.414 482.729 227.99 476.728C231.936 479.07 240.559 481.851 258.535 481.119C283.088 480.095 297.995 475.996 304.279 473.069Z" fill="#4B2395"/>
<path d="M301.647 460.335C300.06 461.739 298.29 462.921 296.386 463.848C289.371 467.361 268.033 471.166 255.026 468.971C249.326 467.946 249.765 466.19 251.957 464.287C257.787 462.128 263.741 460.319 269.787 458.871C277.679 456.968 293.755 453.163 299.016 457.115C300.114 457.986 301.012 459.084 301.647 460.335Z" fill="#7758D1"/>
<path d="M268.765 390.077C274.611 427.548 295.949 456.236 295.949 456.236C294.247 458.439 292.169 460.322 289.811 461.799C287.845 463.032 285.734 464.015 283.526 464.726C279.815 465.733 275.948 466.031 272.127 465.604C269.66 465.359 267.217 464.918 264.82 464.287C264.82 464.287 228.429 417.302 223.898 363.73C219.368 310.159 248.159 283.227 248.159 283.227C248.374 283.109 248.571 282.962 248.743 282.788C253.44 279.889 258.844 278.342 264.361 278.316C269.878 278.29 275.295 279.786 280.019 282.641C281.081 283.209 282.107 283.845 283.088 284.544C294.926 292.302 296.68 300.206 296.68 300.206C291.15 305.323 286.421 311.244 282.65 317.77C276.657 328.016 262.92 352.606 268.765 390.077Z" fill="#E1ECFF"/>
<path d="M268.765 390.077C274.611 427.548 295.949 456.236 295.949 456.236C294.247 458.439 292.169 460.322 289.811 461.799C279.142 447.015 253.566 402.226 254.443 359.632C255.174 320.697 275.342 293.619 283.234 284.544C295.072 292.302 296.826 300.206 296.826 300.206C291.296 305.323 286.567 311.244 282.796 317.77C276.657 328.016 262.919 352.606 268.765 390.077Z" fill="#C5DFFF"/>
<path d="M271.981 465.458C269.514 465.212 267.071 464.772 264.673 464.14C264.673 464.14 228.283 417.156 223.752 363.584C219.221 310.012 248.012 283.08 248.012 283.08C248.228 282.963 248.424 282.815 248.597 282.641C243.043 294.058 230.621 323.625 231.79 356.997C233.252 399.884 251.812 432.964 264.819 454.041C267.304 458.286 269.788 462.091 271.981 465.458Z" fill="#F8FBFF"/>
<path d="M244.213 427.401C243.963 427.415 243.714 427.368 243.485 427.267C243.256 427.165 243.055 427.01 242.897 426.816C242.528 426.456 242.307 425.97 242.28 425.454C242.253 424.939 242.421 424.432 242.751 424.035C246.417 420.667 250.823 418.21 255.612 416.863C264.235 414.228 273.735 417.156 274.173 417.302C274.67 417.467 275.084 417.818 275.329 418.282C275.574 418.745 275.631 419.286 275.488 419.79C275.323 420.288 274.973 420.703 274.51 420.948C274.047 421.194 273.508 421.251 273.004 421.108C272.858 421.108 264.235 418.473 256.781 420.668C249.328 423.01 245.674 426.67 245.674 426.816C245.496 427.025 245.27 427.187 245.016 427.289C244.761 427.391 244.485 427.43 244.213 427.401Z" fill="#C5DFFF"/>
<path d="M229.154 380.563C228.795 380.575 228.44 380.485 228.13 380.304C227.819 380.122 227.567 379.857 227.4 379.538C227.256 379.31 227.161 379.055 227.119 378.788C227.078 378.522 227.092 378.249 227.161 377.989C227.23 377.728 227.351 377.484 227.518 377.272C227.685 377.06 227.893 376.885 228.131 376.757C233.903 373.597 240.279 371.701 246.838 371.195C253.436 371.023 259.925 372.916 265.398 376.611C265.617 376.758 265.804 376.95 265.945 377.172C266.087 377.395 266.182 377.645 266.223 377.906C266.264 378.167 266.251 378.433 266.185 378.689C266.118 378.945 266 379.184 265.837 379.392C265.69 379.611 265.499 379.798 265.276 379.94C265.054 380.082 264.805 380.176 264.544 380.218C264.283 380.259 264.017 380.246 263.762 380.179C263.507 380.113 263.268 379.994 263.06 379.831C262.914 379.831 255.607 374.708 246.984 375.147C241.027 375.596 235.241 377.345 230.031 380.27C229.885 380.563 229.446 380.563 229.154 380.563Z" fill="#C5DFFF"/>
<path d="M269.204 341.915C268.954 341.928 268.705 341.882 268.476 341.781C268.248 341.679 268.046 341.524 267.889 341.33C267.743 341.183 256.928 331.377 246.113 330.059C235.59 328.742 229.16 333.279 229.16 333.426C228.728 333.722 228.2 333.841 227.684 333.76C227.168 333.678 226.702 333.401 226.383 332.987C226.087 332.555 225.968 332.026 226.05 331.509C226.131 330.992 226.407 330.525 226.821 330.206C227.114 329.913 234.567 324.497 246.697 326.107C258.681 327.717 270.081 337.963 270.666 338.402C270.866 338.57 271.029 338.777 271.145 339.011C271.262 339.245 271.329 339.5 271.343 339.761C271.357 340.022 271.316 340.283 271.225 340.528C271.134 340.772 270.993 340.996 270.812 341.183C270.359 341.579 269.8 341.834 269.204 341.915Z" fill="#C5DFFF"/>
<path d="M396.792 300.352C394.694 306.546 390.642 311.889 385.246 315.575C376.478 321.283 371.509 321.868 371.509 321.868C371.509 321.868 365.809 320.99 365.809 317.331V316.892C366.167 314.179 367.225 311.606 368.878 309.427C372.839 308.736 376.711 307.607 380.424 306.06C384.516 304.011 388.9 297.425 392.115 296.693C392.779 296.572 393.463 296.646 394.085 296.906C394.707 297.165 395.241 297.6 395.623 298.156C396.161 298.799 396.559 299.547 396.792 300.352Z" fill="#E1ECFF"/>
<path d="M396.792 300.352C394.694 306.546 390.642 311.889 385.246 315.575C376.478 321.283 371.509 321.869 371.509 321.869C371.509 321.869 365.809 320.99 365.809 317.331C369.755 317.038 379.108 315.867 385.685 310.598C389.939 307.242 393.344 302.93 395.623 298.01C396.15 298.714 396.546 299.507 396.792 300.352Z" fill="#C5DFFF"/>
<path d="M391.385 299.62C387.369 305.163 381.682 309.268 375.162 311.33C372.518 312.379 369.65 312.731 366.832 312.354C366.091 311.638 365.512 310.77 365.134 309.811C364.756 308.852 364.588 307.822 364.64 306.792C364.786 305.036 365.955 303.133 369.024 301.377C369.024 301.377 377.354 300.352 382.616 290.106C387.877 279.86 385.685 278.836 387 276.786C387.877 275.323 391.092 275.469 393.285 276.786C394.354 277.387 395.142 278.387 395.477 279.567C396.792 283.227 396.646 292.448 391.385 299.62Z" fill="#E1ECFF"/>
<path d="M391.385 299.62C387.369 305.163 381.682 309.268 375.162 311.33C372.518 312.379 369.65 312.731 366.832 312.354C366.091 311.638 365.512 310.771 365.134 309.811C364.756 308.852 364.588 307.822 364.64 306.792C370.047 306.5 381.154 305.036 386.562 296.986C390.602 290.994 392.927 284.008 393.285 276.786C394.354 277.387 395.142 278.387 395.477 279.567C396.792 283.227 396.646 292.448 391.385 299.62Z" fill="#C5DFFF"/>
<path d="M381.593 295.083C377.769 300.374 372.332 304.278 366.101 306.207C363.589 307.172 360.871 307.474 358.209 307.085C357.508 306.407 356.962 305.585 356.609 304.675C356.255 303.766 356.103 302.79 356.163 301.816C356.309 300.206 357.478 298.303 360.401 296.693C360.401 296.693 368.293 295.815 373.262 286.008C378.231 276.347 376.185 275.323 377.354 273.274C378.231 271.956 381.154 271.956 383.346 273.274C384.37 273.859 385.148 274.795 385.539 275.908C386.708 279.567 386.562 288.35 381.593 295.083Z" fill="#E1ECFF"/>
<path d="M381.593 295.083C377.769 300.374 372.332 304.278 366.101 306.207C363.589 307.172 360.871 307.474 358.209 307.085C357.508 306.407 356.962 305.585 356.609 304.675C356.255 303.766 356.103 302.79 356.163 301.816C361.278 301.523 371.801 300.206 377.062 292.594C380.841 286.875 383.058 280.264 383.493 273.42C384.516 274.006 385.294 274.941 385.685 276.055C386.327 279.338 386.296 282.719 385.592 285.99C384.889 289.261 383.528 292.355 381.593 295.083Z" fill="#C5DFFF"/>
<path d="M377.647 308.11C377.766 311.685 377.066 315.24 375.601 318.502C374.75 320.373 373.617 322.101 372.239 323.625C372.239 323.625 335.264 336.652 296.389 304.158C276.366 287.471 260.29 265.662 249.475 248.537C243.643 239.375 238.324 229.895 233.545 220.141C233.545 220.141 230.476 210.627 236.176 202.43C238.314 199.327 241.24 196.851 244.652 195.258C251.521 191.745 257.221 191.452 261.752 192.623C266.399 193.85 270.542 196.513 273.59 200.235C273.59 200.235 279.289 212.823 287.766 228.338C297.704 246.341 311.442 268.297 324.595 278.543C349.002 297.571 369.316 290.252 369.316 290.252C370.948 291.966 372.416 293.828 373.701 295.815C375.308 298.888 377.501 303.279 377.647 308.11Z" fill="#E1ECFF"/>
<path d="M287.326 228.045C282.58 235.511 275.483 241.177 267.158 244.146C261.389 246.382 255.34 247.81 249.182 248.391C243.349 239.229 238.031 229.749 233.251 219.995C233.251 219.995 227.99 203.455 244.213 194.965C262.481 185.451 273.15 199.942 273.15 199.942C273.15 199.942 278.849 212.676 287.326 228.045Z" fill="#C5DFFF"/>
<path d="M375.455 318.356C374.604 320.227 373.471 321.955 372.093 323.479C372.093 323.479 335.118 336.506 296.243 304.011C276.22 287.325 260.144 265.516 249.329 248.391C243.497 239.229 238.178 229.749 233.399 219.995C233.399 219.995 230.33 210.481 236.03 202.284C240.853 213.262 261.459 258.051 287.62 283.812C317.58 313.233 333.803 316.892 362.594 318.063C367.27 318.209 371.655 318.356 375.455 318.356Z" fill="#C5DFFF"/>
<path d="M373.261 295.668C365.807 297.864 355.431 299.474 344.616 296.107C324.448 289.813 307.933 277.079 291.711 252.635C278.411 232.436 265.55 202.577 261.458 192.477C266.105 193.703 270.248 196.367 273.296 200.088C273.296 200.088 278.996 212.676 287.472 228.191C297.41 246.195 311.148 268.151 324.301 278.396C348.708 297.425 369.023 290.106 369.023 290.106C370.622 291.81 372.042 293.674 373.261 295.668Z" fill="#F8FBFF"/>
<path d="M271.979 272.688C269.901 272.695 267.834 272.399 265.841 271.81C265.345 271.61 264.947 271.223 264.734 270.732C264.521 270.241 264.508 269.686 264.7 269.186C264.892 268.686 265.273 268.282 265.76 268.061C266.246 267.84 266.801 267.82 267.302 268.004C267.595 268.151 274.464 270.492 283.671 265.516C289.162 262.439 293.248 257.35 295.07 251.318C295.128 251.068 295.234 250.832 295.383 250.623C295.531 250.414 295.72 250.237 295.937 250.101C296.154 249.965 296.396 249.873 296.648 249.831C296.901 249.789 297.159 249.797 297.409 249.854C297.658 249.912 297.894 250.018 298.102 250.167C298.311 250.316 298.488 250.505 298.624 250.722C298.76 250.94 298.851 251.182 298.893 251.435C298.936 251.687 298.928 251.946 298.87 252.196C297.867 255.76 296.16 259.086 293.85 261.977C291.541 264.868 288.676 267.266 285.425 269.029C281.339 271.405 276.703 272.667 271.979 272.688Z" fill="#C5DFFF"/>
<path d="M299.895 305.475C299.352 305.475 298.832 305.259 298.448 304.875C298.064 304.49 297.849 303.969 297.849 303.426C297.849 302.882 298.064 302.361 298.448 301.977C298.832 301.593 299.352 301.377 299.895 301.377C300.041 301.377 309.102 301.23 314.217 294.936C319.478 288.496 318.455 279.421 318.455 279.275C318.426 279.015 318.449 278.752 318.521 278.502C318.594 278.251 318.715 278.017 318.878 277.813C319.041 277.609 319.242 277.439 319.471 277.313C319.699 277.187 319.95 277.108 320.209 277.079C320.728 277.043 321.241 277.204 321.648 277.529C322.054 277.854 322.323 278.321 322.401 278.836C322.401 279.275 323.571 289.667 317.286 297.425C311.002 305.475 300.333 305.475 299.895 305.475Z" fill="#C5DFFF"/>
<path d="M332.046 322.6C331.632 322.603 331.228 322.478 330.888 322.242C330.548 322.006 330.289 321.671 330.146 321.283C329.955 320.778 329.971 320.218 330.19 319.725C330.408 319.232 330.813 318.845 331.315 318.648C333.877 317.52 336.153 315.83 337.975 313.701C339.796 311.573 341.116 309.062 341.838 306.353C344.03 297.278 340.961 292.009 340.815 291.863C340.543 291.411 340.452 290.873 340.56 290.357C340.669 289.841 340.969 289.385 341.399 289.081C341.85 288.809 342.387 288.718 342.903 288.827C343.418 288.935 343.873 289.236 344.176 289.667C344.322 289.96 348.414 296.546 345.637 307.231C344.745 310.564 343.112 313.652 340.859 316.263C338.607 318.874 335.794 320.94 332.63 322.308C332.484 322.6 332.338 322.6 332.046 322.6Z" fill="#C5DFFF"/>
<path d="M288.491 210.481C288.189 211.982 287.749 213.452 287.175 214.872C285.129 219.848 280.307 228.045 269.345 235.217C252.392 246.195 237.339 241.511 237.339 241.511C230.313 231.473 225.847 219.864 224.332 207.7C223.017 196.429 230.47 187.647 240.116 183.402C247.277 180.328 255.608 179.743 262.33 182.67C278.26 189.842 288.491 210.481 288.491 210.481Z" fill="#4B2395"/>
<path d="M288.497 210.481C288.195 211.982 287.755 213.452 287.181 214.872C287.181 214.725 287.035 214.725 287.035 214.579C273.443 196.575 262.775 192.916 262.775 192.916C262.775 192.916 258.829 202.284 245.822 196.868C236.76 193.209 238.368 186.769 240.268 183.402C247.429 180.328 255.76 179.743 262.482 182.67C278.266 189.842 288.497 210.481 288.497 210.481Z" fill="#4B2395"/>
<path d="M110.924 133.051C109.612 132.828 108.263 133.112 107.151 133.845C106.039 134.579 105.246 135.707 104.932 137.003C103.147 144.392 101.733 151.866 100.694 159.397C99.9633 165.545 99.671 170.668 99.5249 174.181C99.4872 175.421 99.8937 176.634 100.671 177.6C101.448 178.567 102.545 179.223 103.763 179.45C104.448 179.559 105.147 179.526 105.818 179.354C106.49 179.182 107.119 178.873 107.666 178.448C108.214 178.023 108.669 177.49 109.003 176.882C109.337 176.274 109.544 175.604 109.609 174.913C110.056 168.421 110.935 161.966 112.24 155.592C113.701 148.127 114.724 142.858 115.455 139.345C115.642 137.915 115.277 136.468 114.435 135.298C113.593 134.129 112.338 133.325 110.924 133.051Z" fill="white"/>
<path d="M85.6424 148.712C85.794 148.024 86.0987 147.379 86.5338 146.825C86.9688 146.271 87.5231 145.823 88.1552 145.514C88.7874 145.204 89.4811 145.041 90.1847 145.038C90.8883 145.034 91.5837 145.189 92.219 145.492C96.6035 147.395 103.034 150.176 109.172 152.372C115.457 154.567 121.302 156.763 124.956 158.226C126.154 158.675 127.144 159.55 127.737 160.684C128.331 161.819 128.485 163.133 128.171 164.374C128 165.044 127.695 165.672 127.276 166.221C126.857 166.77 126.332 167.229 125.732 167.571C125.132 167.912 124.469 168.129 123.783 168.209C123.098 168.288 122.403 168.228 121.741 168.033C114.781 166.062 107.948 163.667 101.28 160.861C96.5511 158.881 91.9613 156.583 87.5423 153.982C86.749 153.383 86.1468 152.566 85.8094 151.63C85.4721 150.694 85.414 149.681 85.6424 148.712Z" fill="white"/>
<path d="M173.763 97.3363C172.048 97.0833 170.3 97.4843 168.866 98.4601C167.431 99.4358 166.415 100.915 166.018 102.606C164.41 109.924 162.072 122.219 161.049 131.88C160.318 139.93 159.879 146.517 159.879 151.054C159.817 152.648 160.353 154.208 161.38 155.427C162.408 156.646 163.853 157.435 165.433 157.641C166.322 157.778 167.23 157.728 168.098 157.494C168.967 157.26 169.778 156.848 170.479 156.284C171.18 155.719 171.756 155.015 172.17 154.215C172.585 153.416 172.829 152.539 172.887 151.64C173.179 145.785 174.056 136.856 175.663 126.61C177.271 116.804 178.586 109.924 179.317 105.387C179.515 104.49 179.525 103.562 179.349 102.661C179.172 101.76 178.812 100.905 178.291 100.15C177.77 99.3944 177.099 98.7546 176.32 98.2705C175.541 97.7865 174.671 97.4684 173.763 97.3363Z" fill="white"/>
<path d="M141.32 118.414C141.525 117.528 141.919 116.697 142.476 115.98C143.033 115.262 143.739 114.673 144.545 114.256C145.351 113.838 146.238 113.601 147.145 113.561C148.052 113.52 148.957 113.678 149.797 114.023C155.496 116.364 163.827 119.731 171.865 122.512C180.049 125.293 187.649 127.928 192.472 129.684C194.037 130.233 195.34 131.348 196.125 132.811C196.909 134.274 197.118 135.979 196.71 137.588C196.498 138.468 196.113 139.296 195.577 140.025C195.041 140.753 194.366 141.367 193.59 141.831C192.814 142.294 191.953 142.598 191.059 142.724C190.164 142.85 189.253 142.796 188.38 142.565C179.336 140.207 170.451 137.274 161.781 133.783C155.61 131.401 149.646 128.512 143.951 125.147C142.925 124.386 142.133 123.35 141.668 122.159C141.203 120.968 141.082 119.67 141.32 118.414Z" fill="white"/>
<path d="M668.479 377.05C673.428 378.717 677.859 381.642 681.34 385.54C686.747 391.98 687.478 402.372 687.478 402.372L717 388.613C717 388.613 702.093 394.322 697.124 384.369C692.155 374.415 708.67 358.607 708.67 358.607C708.67 358.607 690.401 373.537 683.24 371.342C676.079 369.146 674.909 360.217 674.909 360.217L668.479 377.05Z" fill="#FEC272"/>
<path d="M640.565 373.684L645.826 373.83L654.01 313.818L635.45 310.305L640.565 373.684Z" fill="#D2E9FF"/>
<path d="M653.426 373.976L665.702 317.77L683.386 326.406L656.641 375.44L653.426 373.976Z" fill="#D2E9FF"/>
<path d="M68.5433 90.3105L65.4742 97.0436L1.31543 77.2836L9.93814 51.9615L68.5433 90.3105Z" fill="#4B2395"/>
<path d="M78.1889 68.0622L72.4892 76.259L0 20.931L20.0222 0L78.1889 68.0622Z" fill="#4B2395"/>
</g>
<defs>
<filter id="filter0_f_2743_2819" x="-41.6795" y="-74.6795" width="673.359" height="673.359" filterUnits="userSpaceOnUse" color-interpolation-filters="sRGB">
<feFlood flood-opacity="0" result="BackgroundImageFix"/>
<feBlend mode="normal" in="SourceGraphic" in2="BackgroundImageFix" result="shape"/>
<feGaussianBlur stdDeviation="96.8397" result="effect1_foregroundBlur_2743_2819"/>
</filter>
<clipPath id="clip0_2743_2819">
<rect width="717" height="494" fill="white"/>
</clipPath>
</defs>
</svg>
