<svg width="68" height="88" viewBox="0 0 68 88" fill="none" xmlns="http://www.w3.org/2000/svg">
<path fill-rule="evenodd" clip-rule="evenodd" d="M15.2768 30.1363C17.866 40.0258 19.6591 44.3274 22.9751 51.5425L17.6083 58.6899C17.5205 58.8068 17.4217 58.9147 17.3133 59.0118L8.67826 66.7523L1.74451 73.0198C0.583609 74.0692 0.81616 75.9862 2.19248 76.7126L15.899 83.9462C16.8195 84.4319 17.946 84.1943 18.6042 83.3755L32.8729 65.6256L52.175 86.4685C52.7663 87.107 53.7348 87.1795 54.4103 86.6357L66.307 77.0598C67.4606 76.1312 67.4203 74.3279 66.2265 73.4544L57.0675 66.7523L48.9615 59.0017C48.8669 58.9112 48.7803 58.8124 48.7026 58.7064L42.2208 49.8526C45.3371 44.4529 46.7658 40.9767 48.8193 34.0795C49.521 31.3658 49.8672 29.4234 50.4403 25.8101C50.4593 25.6909 50.4689 25.569 50.4689 25.4482V17.1798C50.2548 13.3409 49.3736 10.164 48.0201 7.60343C41.6711 -0.841758 30.1236 -0.27844 20.7756 4.22347C17.5772 9.55763 16.0017 12.7627 15.2768 20.5598C14.8716 24.2996 14.7044 26.3966 15.2768 30.1363ZM24.6249 15.4946L27.3742 24.2634L32.873 34.0842L36.7222 29.0143L38.9217 25.6344L41.1212 21.6911L43.8706 15.4946L41.6711 13.2413L38.9217 12.1146L35.6224 11.5513H32.3231L27.9241 12.678L26.2745 13.8046L24.6249 15.4946Z" fill="#4B2395"/>
<path d="M22.9751 51.5425L23.3749 51.8428L23.5538 51.6045L23.4294 51.3338L22.9751 51.5425ZM15.2768 30.1363L14.7825 30.2119L14.7865 30.2377L14.7931 30.2629L15.2768 30.1363ZM17.6083 58.6899L17.2085 58.3897L17.2085 58.3897L17.6083 58.6899ZM17.3133 59.0118L17.6471 59.3841H17.6471L17.3133 59.0118ZM8.67826 66.7523L8.34451 66.3799L8.34297 66.3813L8.67826 66.7523ZM1.74451 73.0198L1.40923 72.6489L1.40922 72.6489L1.74451 73.0198ZM2.19248 76.7126L1.95911 77.1548H1.95911L2.19248 76.7126ZM15.899 83.9462L15.6657 84.3884L15.899 83.9462ZM18.6042 83.3755L18.9939 83.6888H18.9939L18.6042 83.3755ZM32.8729 65.6256L33.2397 65.2859L32.8461 64.8608L32.4832 65.3123L32.8729 65.6256ZM52.175 86.4685L52.5418 86.1288V86.1288L52.175 86.4685ZM54.4103 86.6357L54.0968 86.2462L54.4103 86.6357ZM66.307 77.0598L65.9935 76.6703L66.307 77.0598ZM66.2265 73.4544L65.9313 73.8579L66.2265 73.4544ZM57.0675 66.7523L56.7219 67.1136L56.7457 67.1364L56.7722 67.1558L57.0675 66.7523ZM48.9615 59.0017L48.6159 59.3631L48.9615 59.0017ZM48.7026 58.7064L49.1061 58.411L49.1061 58.411L48.7026 58.7064ZM42.2208 49.8526L41.7877 49.6026L41.6248 49.8849L41.8173 50.1479L42.2208 49.8526ZM48.8193 34.0795L49.2985 34.2222L49.3011 34.2135L49.3034 34.2047L48.8193 34.0795ZM50.4403 25.8101L50.9342 25.8885V25.8885L50.4403 25.8101ZM50.4689 17.1798H50.9689V17.1659L50.9682 17.152L50.4689 17.1798ZM48.0201 7.60343L48.4621 7.36977L48.4436 7.33469L48.4197 7.30297L48.0201 7.60343ZM20.7756 4.22347L20.5586 3.77299L20.4237 3.83795L20.3467 3.96635L20.7756 4.22347ZM15.2768 20.5598L15.7739 20.6137L15.7746 20.6061L15.2768 20.5598ZM27.3742 24.2634L26.8971 24.413L26.9127 24.4625L26.938 24.5077L27.3742 24.2634ZM24.6249 15.4946L24.2671 15.1453L24.0584 15.3591L24.1478 15.6442L24.6249 15.4946ZM32.873 34.0842L32.4368 34.3285L32.8097 34.9945L33.2713 34.3866L32.873 34.0842ZM36.7222 29.0143L37.1204 29.3167L37.1314 29.3022L37.1412 29.287L36.7222 29.0143ZM38.9217 25.6344L39.3407 25.9071L39.35 25.8928L39.3583 25.8779L38.9217 25.6344ZM41.1212 21.6911L41.5578 21.9347L41.569 21.9148L41.5782 21.8939L41.1212 21.6911ZM43.8706 15.4946L44.3276 15.6974L44.465 15.3877L44.2284 15.1453L43.8706 15.4946ZM41.6711 13.2413L42.0289 12.892L41.9565 12.8179L41.8606 12.7786L41.6711 13.2413ZM38.9217 12.1146L39.1113 11.652L39.0602 11.6311L39.0058 11.6218L38.9217 12.1146ZM35.6224 11.5513L35.7066 11.0585L35.6648 11.0513H35.6224V11.5513ZM32.3231 11.5513V11.0513H32.2601L32.1991 11.067L32.3231 11.5513ZM27.9241 12.678L27.8001 12.1936L27.7148 12.2154L27.6421 12.2651L27.9241 12.678ZM26.2745 13.8046L25.9925 13.3917L25.9514 13.4198L25.9167 13.4554L26.2745 13.8046ZM32.8729 35.2062L32.4376 35.4522L32.4442 35.4639L32.4514 35.4752L32.8729 35.2062ZM26.947 24.7203L26.5117 24.9663L26.5117 24.9663L26.947 24.7203ZM26.7511 24.2634L27.2294 24.1176V24.1176L26.7511 24.2634ZM24.0748 15.4899L23.5949 15.6305L23.5966 15.6358L24.0748 15.4899ZM23.4294 51.3338C20.1226 44.1385 18.3407 39.8647 15.7605 30.0097L14.7931 30.2629C17.3913 40.1869 19.1957 44.5163 22.5207 51.7513L23.4294 51.3338ZM18.0082 58.9901L23.3749 51.8428L22.5752 51.2423L17.2085 58.3897L18.0082 58.9901ZM17.6471 59.3841C17.7799 59.2651 17.9008 59.1331 18.0082 58.9901L17.2085 58.3897C17.1402 58.4806 17.0635 58.5643 16.9796 58.6395L17.6471 59.3841ZM9.012 67.1246L17.6471 59.3841L16.9796 58.6395L8.34452 66.3799L9.012 67.1246ZM2.0798 73.3908L9.01354 67.1232L8.34297 66.3813L1.40923 72.6489L2.0798 73.3908ZM2.42584 76.2704C1.36075 75.7083 1.1731 74.2104 2.0798 73.3908L1.40922 72.6489C-0.00587869 73.9281 0.271571 76.2642 1.95911 77.1548L2.42584 76.2704ZM16.1324 83.504L2.42584 76.2704L1.95911 77.1548L15.6657 84.3884L16.1324 83.504ZM18.2145 83.0622C17.7042 83.697 16.8381 83.8764 16.1324 83.504L15.6657 84.3884C16.8008 84.9874 18.1878 84.6916 18.9939 83.6888L18.2145 83.0622ZM32.4832 65.3123L18.2145 83.0622L18.9939 83.6888L33.2626 65.9389L32.4832 65.3123ZM52.5418 86.1288L33.2397 65.2859L32.506 65.9653L51.8081 86.8083L52.5418 86.1288ZM54.0968 86.2462C53.6271 86.6243 52.9556 86.5756 52.5418 86.1288L51.8081 86.8083C52.5769 87.6384 53.8425 87.7346 54.7238 87.0252L54.0968 86.2462ZM65.9935 76.6703L54.0968 86.2462L54.7238 87.0252L66.6205 77.4493L65.9935 76.6703ZM65.9313 73.8579C66.8592 74.5369 66.8916 75.9473 65.9935 76.6703L66.6205 77.4493C68.0295 76.3151 67.9814 74.119 66.5218 73.0509L65.9313 73.8579ZM56.7722 67.1558L65.9313 73.8579L66.5218 73.0509L57.3627 66.3487L56.7722 67.1558ZM48.6159 59.3631L56.7219 67.1136L57.413 66.3909L49.307 58.6403L48.6159 59.3631ZM48.2992 59.0017C48.3941 59.1313 48.5 59.2523 48.6159 59.3631L49.307 58.6403C49.2337 58.5702 49.1664 58.4935 49.1061 58.411L48.2992 59.0017ZM41.8173 50.1479L48.2992 59.0017L49.1061 58.411L42.6242 49.5572L41.8173 50.1479ZM48.3401 33.9369C46.2954 40.8042 44.881 44.243 41.7877 49.6026L42.6538 50.1025C45.7933 44.6627 47.2361 41.1492 49.2985 34.2222L48.3401 33.9369ZM49.9465 25.7318C49.3741 29.3406 49.0308 31.2641 48.3352 33.9544L49.3034 34.2047C50.0112 31.4674 50.3604 29.5062 50.9342 25.8885L49.9465 25.7318ZM49.9689 25.4482C49.9689 25.5426 49.9613 25.6383 49.9465 25.7318L50.9342 25.8885C50.9572 25.7435 50.9689 25.5954 50.9689 25.4482H49.9689ZM49.9689 17.1798V25.4482H50.9689V17.1798H49.9689ZM47.578 7.83709C48.8931 10.3249 49.759 13.4297 49.9697 17.2077L50.9682 17.152C50.7506 13.2521 49.8541 10.0031 48.4621 7.36977L47.578 7.83709ZM20.9925 4.67396C30.2672 0.207388 41.4918 -0.248067 47.6204 7.90389L48.4197 7.30297C41.8503 -1.43545 29.9801 -0.764269 20.5586 3.77299L20.9925 4.67396ZM15.7746 20.6061C16.1345 16.7352 16.7032 14.0291 17.5688 11.6382C18.4355 9.24393 19.6074 7.144 21.2044 4.4806L20.3467 3.96635C18.7454 6.63711 17.5303 8.8068 16.6285 11.2978C15.7254 13.7923 15.1439 16.5873 14.7789 20.5135L15.7746 20.6061ZM15.771 30.0606C15.2083 26.3846 15.3704 24.338 15.7739 20.6137L14.7797 20.506C14.3729 24.2612 14.2004 26.4086 14.7825 30.2119L15.771 30.0606ZM27.8513 24.1139L25.102 15.345L24.1478 15.6442L26.8971 24.413L27.8513 24.1139ZM33.3093 33.8399L27.8105 24.0192L26.938 24.5077L32.4368 34.3285L33.3093 33.8399ZM36.3239 28.712L32.4748 33.7819L33.2713 34.3866L37.1204 29.3167L36.3239 28.712ZM38.5026 25.3617L36.3031 28.7416L37.1412 29.287L39.3407 25.9071L38.5026 25.3617ZM40.6845 21.4476L38.485 25.3908L39.3583 25.8779L41.5578 21.9347L40.6845 21.4476ZM43.4135 15.2918L40.6641 21.4883L41.5782 21.8939L44.3276 15.6974L43.4135 15.2918ZM41.3133 13.5905L43.5128 15.8438L44.2284 15.1453L42.0289 12.892L41.3133 13.5905ZM38.7321 12.5773L41.4815 13.704L41.8606 12.7786L39.1113 11.652L38.7321 12.5773ZM35.5383 12.0442L38.8375 12.6075L39.0058 11.6218L35.7066 11.0585L35.5383 12.0442ZM32.3231 12.0513H35.6224V11.0513H32.3231V12.0513ZM28.0482 13.1623L32.4472 12.0357L32.1991 11.067L27.8001 12.1936L28.0482 13.1623ZM26.5565 14.2175L28.2061 13.0909L27.6421 12.2651L25.9925 13.3917L26.5565 14.2175ZM24.9827 15.8438L26.6323 14.1539L25.9167 13.4554L24.2671 15.1453L24.9827 15.8438ZM33.2819 65.3381L23.3841 51.255L22.566 51.8301L32.4638 65.9131L33.2819 65.3381ZM42.6422 49.5836L33.2943 34.9372L32.4514 35.4752L41.7993 50.1216L42.6422 49.5836ZM33.3082 34.9602L27.3823 24.4743L26.5117 24.9663L32.4376 35.4522L33.3082 34.9602ZM27.2294 24.1176L24.5531 15.344L23.5966 15.6358L26.2729 24.4093L27.2294 24.1176ZM24.5547 15.3494L21.2554 4.08296L20.2957 4.36399L23.595 15.6304L24.5547 15.3494ZM24.5297 15.6974C25.965 12.5503 29.9616 11.0229 34.1705 11.1017C36.2531 11.1407 38.3325 11.5762 40.0815 12.3695C41.8333 13.164 43.2211 14.3015 43.9789 15.7249L44.8616 15.2549C43.9699 13.5801 42.3795 12.3137 40.4945 11.4587C38.6068 10.6026 36.3908 10.1431 34.1892 10.1019C29.8298 10.0202 25.3034 11.591 23.6199 15.2825L24.5297 15.6974ZM43.955 15.3069C40.6904 23.6088 38.0869 27.8836 32.4823 34.894L33.2634 35.5184C38.9232 28.439 41.5804 24.0781 44.8856 15.6729L43.955 15.3069ZM44.8751 15.6975L48.4749 7.81105L47.5652 7.39581L43.9654 15.2823L44.8751 15.6975ZM27.3823 24.4743C27.3187 24.3618 27.2673 24.2421 27.2294 24.1176L26.2729 24.4093C26.332 24.6033 26.4121 24.7901 26.5117 24.9663L27.3823 24.4743Z" fill="black"/>
</svg>
