<svg width="1400" height="362" viewBox="0 0 1400 362" fill="none" xmlns="http://www.w3.org/2000/svg">
<path d="M454.443 236.289C449.806 236.289 445.535 235.13 441.63 232.811C437.847 230.493 434.797 227.442 432.478 223.659C430.16 219.754 429 215.483 429 210.846V104.5H453.162V209.748C453.162 210.358 453.345 210.907 453.711 211.395C454.199 211.761 454.748 211.944 455.358 211.944H534.065C534.675 211.944 535.225 211.761 535.713 211.395C536.201 210.907 536.445 210.358 536.445 209.748V104.5H560.789V210.846C560.789 215.483 559.63 219.754 557.311 223.659C554.993 227.442 551.881 230.493 547.976 232.811C544.194 235.13 539.984 236.289 535.347 236.289H454.443ZM628.171 236.289V128.844H574.357V104.5H706.146V128.844H652.515V236.289H628.171ZM744.912 236.289C740.275 236.289 736.004 235.13 732.099 232.811C728.316 230.493 725.265 227.442 722.947 223.659C720.628 219.754 719.469 215.483 719.469 210.846V129.943C719.469 125.306 720.628 121.096 722.947 117.313C725.265 113.408 728.316 110.296 732.099 107.978C736.004 105.659 740.275 104.5 744.912 104.5H825.815C830.452 104.5 834.662 105.659 838.445 107.978C842.35 110.296 845.462 113.408 847.78 117.313C850.099 121.096 851.258 125.306 851.258 129.943V210.846C851.258 215.483 850.099 219.754 847.78 223.659C845.462 227.442 842.35 230.493 838.445 232.811C834.662 235.13 830.452 236.289 825.815 236.289H744.912ZM745.827 211.944H824.534C825.144 211.944 825.693 211.761 826.181 211.395C826.67 210.907 826.914 210.358 826.914 209.748V131.041C826.914 130.431 826.67 129.943 826.181 129.577C825.693 129.088 825.144 128.844 824.534 128.844H745.827C745.217 128.844 744.668 129.088 744.18 129.577C743.813 129.943 743.63 130.431 743.63 131.041V209.748C743.63 210.358 743.813 210.907 744.18 211.395C744.668 211.761 745.217 211.944 745.827 211.944ZM976.48 236.289L936.76 188.881H968.426L1002.84 229.516V236.289H976.48ZM871.415 236.289V104.683H977.578C982.215 104.683 986.486 105.842 990.391 108.161C994.296 110.479 997.408 113.591 999.726 117.496C1002.04 121.279 1003.2 125.489 1003.2 130.126V165.635C1003.2 170.272 1002.04 174.543 999.726 178.448C997.408 182.353 994.296 185.465 990.391 187.783C986.486 189.98 982.215 191.078 977.578 191.078L895.576 191.261V236.289H871.415ZM897.773 166.734H976.48C977.09 166.734 977.639 166.551 978.128 166.184C978.616 165.818 978.86 165.33 978.86 164.72V131.041C978.86 130.431 978.616 129.943 978.128 129.577C977.639 129.088 977.09 128.844 976.48 128.844H897.773C897.163 128.844 896.614 129.088 896.126 129.577C895.76 129.943 895.576 130.431 895.576 131.041V164.72C895.576 165.33 895.76 165.818 896.126 166.184C896.614 166.551 897.163 166.734 897.773 166.734ZM1022.83 236.289V129.943C1022.83 125.306 1023.98 121.096 1026.3 117.313C1028.62 113.408 1031.67 110.296 1035.45 107.978C1039.36 105.659 1043.63 104.5 1048.27 104.5H1128.99C1133.63 104.5 1137.9 105.659 1141.8 107.978C1145.71 110.296 1148.82 113.408 1151.14 117.313C1153.45 121.096 1154.61 125.306 1154.61 129.943V236.289H1130.27V191.993H1046.99V236.289H1022.83ZM1046.99 167.832H1130.27V131.041C1130.27 130.431 1130.03 129.943 1129.54 129.577C1129.05 129.088 1128.5 128.844 1127.89 128.844H1049.18C1048.57 128.844 1048.02 129.088 1047.54 129.577C1047.17 129.943 1046.99 130.431 1046.99 131.041V167.832ZM1175.1 236.289V212.311H1199.08V236.289H1175.1ZM1214.38 236.289V104.5H1238.35V236.289H1214.38ZM1256.45 236.289V129.943C1256.45 125.306 1257.61 121.096 1259.93 117.313C1262.25 113.408 1265.3 110.296 1269.08 107.978C1272.99 105.659 1277.26 104.5 1281.89 104.5H1362.61C1367.25 104.5 1371.52 105.659 1375.43 107.978C1379.33 110.296 1382.44 113.408 1384.76 117.313C1387.08 121.096 1388.24 125.306 1388.24 129.943V236.289H1363.9V191.993H1280.61V236.289H1256.45ZM1280.61 167.832H1363.9V131.041C1363.9 130.431 1363.65 129.943 1363.16 129.577C1362.68 129.088 1362.13 128.844 1361.52 128.844H1282.81C1282.2 128.844 1281.65 129.088 1281.16 129.577C1280.8 129.943 1280.61 130.431 1280.61 131.041V167.832Z" fill="white"/>
<path d="M265.452 280.63C253.754 282.565 242.467 283.527 231.291 283.554C194.884 283.645 157.858 273.822 109.85 252.254V118.434L234.065 162.067L262.658 152.003L232.008 140.949L232.009 140.946L84.6731 90.2546L231.2 83.2819C236.391 83.0349 240.399 78.6297 240.152 73.4425C239.904 68.2554 235.496 64.2506 230.305 64.4976L85.3052 71.3976L234.065 19.9283L406.032 80.9616L405.975 80.9816L435.059 90.6613L462.401 81.0113L234.144 0L0 81.0113L16.0539 86.5347V216.784H34.8725V93.0094L91.031 112.331V264.305C159.84 296.589 209.852 308.163 265.452 299.671V280.63Z" fill="url(#paint0_linear_492_310)"/>
<path d="M24.6791 275.068C15.9248 275.068 8.82798 267.976 8.82798 259.227C8.82798 250.479 15.9248 243.387 24.6791 243.387C33.4335 243.387 40.5303 250.479 40.5303 259.227C40.5303 267.976 33.4335 275.068 24.6791 275.068Z" fill="url(#paint1_linear_492_310)"/>
<path d="M14.7156 287.74C22.5902 290.567 27.1261 290.479 35.5485 287.74C43.4846 314.771 46.1917 329.842 46.8708 356.531C29.088 362.561 19.5333 362.916 3.3933 356.531C3.83937 328.61 6.84562 313.687 14.7156 287.74Z" fill="url(#paint2_linear_492_310)"/>
<path fill-rule="evenodd" clip-rule="evenodd" d="M401.812 84.7414L416.954 90.1801L416.884 90.2042L425.889 93.4387L351.09 119.318V236H345.09V236H335L335 124.886L270.142 147.326L255 141.887L255.069 141.863L247.296 139.071L247.027 138.295L401.812 84.7414Z" fill="white"/>
<path fill-rule="evenodd" clip-rule="evenodd" d="M241 136.103L395.724 82.5702L410.866 88.0089L345.063 110.776V233.808H334.972V114.267L255.179 141.875L241.268 136.879L241 136.103Z" fill="white"/>
<path d="M337.5 111L337.5 236M350.5 111L350.5 236" stroke="white" stroke-width="10.0908"/>
<defs>
<linearGradient id="paint0_linear_492_310" x1="359.71" y1="-34.6281" x2="85.3547" y2="409.982" gradientUnits="userSpaceOnUse">
<stop stop-color="#0465B2"/>
<stop offset="0.340545" stop-color="#4B2395"/>
<stop offset="1" stop-color="#A3218E"/>
</linearGradient>
<linearGradient id="paint1_linear_492_310" x1="359.71" y1="-34.6281" x2="85.3547" y2="409.982" gradientUnits="userSpaceOnUse">
<stop stop-color="#0465B2"/>
<stop offset="0.340545" stop-color="#4B2395"/>
<stop offset="1" stop-color="#A3218E"/>
</linearGradient>
<linearGradient id="paint2_linear_492_310" x1="359.71" y1="-34.6281" x2="85.3547" y2="409.982" gradientUnits="userSpaceOnUse">
<stop stop-color="#0465B2"/>
<stop offset="0.340545" stop-color="#4B2395"/>
<stop offset="1" stop-color="#A3218E"/>
</linearGradient>
</defs>
</svg>
