<svg width="237" height="237" viewBox="0 0 237 237" fill="none" xmlns="http://www.w3.org/2000/svg">
<circle cx="118.5" cy="118.5" r="118.5" fill="#4B2395"/>
<path d="M86.0894 226.224V195.945C86.0894 193.623 85.6902 191.318 84.9093 189.132L75.9612 164.077L72.4163 151.417L70.3907 140.276L68.8714 109.385V65.0251C68.8714 64.2285 69.0879 63.4468 69.4978 62.7637C70.0715 61.8076 70.9871 61.1052 72.0593 60.7989L73.1155 60.4971C73.6595 60.3417 74.2226 60.2628 74.7884 60.2628H75.0957C75.6674 60.2628 76.2339 60.3719 76.7648 60.5843C77.8715 61.0269 78.757 61.8911 79.2265 62.9867L79.6011 63.8606C79.8737 64.4968 80.0475 65.1709 80.1164 65.8596L81.0253 74.9487L82.0381 97.7372V108.372L85.0766 106.346L86.0894 96.7244L85.0766 63.8077L84.1547 36.6133C84.0952 34.8563 84.5078 33.1154 85.3497 31.572L86.1055 30.1863C86.7484 29.0076 87.794 28.0996 89.0511 27.6281L89.1852 27.5778C90.4484 27.1042 91.8457 27.1364 93.0857 27.6678C94.1322 28.1163 95.004 28.8938 95.5689 29.8824L96.3322 31.2182C96.593 31.6746 96.8167 32.1511 97.0013 32.6432L97.2363 33.2699C97.9034 35.049 98.2872 36.9219 98.3735 38.82L99.7625 69.3782L101.788 101.788C102.907 101.788 103.814 100.882 103.814 99.7628V53.1731L102.801 26.8397V22.895C102.801 20.1517 103.03 17.1401 105.008 15.2396C105.283 14.9752 105.564 14.7777 105.839 14.6859C106.685 14.404 107.906 13.9424 108.856 13.5739C109.541 13.3079 110.268 13.1667 111.003 13.1667H111.305C112.359 13.1667 113.385 13.5085 114.228 14.1409C114.708 14.5011 115.118 14.947 115.436 15.4561L115.952 16.2821C116.955 17.8865 117.487 19.7404 117.487 21.6323V42.032L119.006 62.2885L120.019 74.9487L121.032 101.788H125.083V94.1923L124.07 76.9744L122.551 59.25V42.032L122.249 37.5026C122.116 35.5139 122.644 33.537 123.749 31.8786L124.085 31.3746C124.739 30.394 125.637 29.601 126.692 29.0739L126.763 29.0384C127.656 28.5916 128.642 28.359 129.641 28.359C130.64 28.359 131.625 28.5916 132.519 29.0384L132.789 29.1736C133.716 29.637 134.522 30.3097 135.144 31.1386C135.524 31.6462 135.831 32.2054 136.053 32.7995L136.513 34.0261C136.994 35.3067 137.306 36.6442 137.442 38.0051L138.216 45.7497C138.239 45.9721 138.257 46.1892 138.272 46.4122L139.262 61.2756L143.314 97.7372L144.833 109.385V111.917L148.378 113.436L152.429 115.462L155.94 117.568C156.973 118.188 157.95 118.899 158.857 119.693L160.19 120.86C161.091 121.648 161.921 122.515 162.669 123.45L164.332 125.529C165.169 126.576 165.836 127.748 166.306 129.004C166.841 130.43 167.115 131.94 167.115 133.464V146.61C167.115 148.787 166.764 150.95 166.076 153.016L166.051 153.089C165.748 153.999 165.381 154.885 164.952 155.743L158.453 168.741C157.815 170.017 157.044 171.222 156.153 172.336L149.391 180.788L147.31 183.463C146.337 184.714 145.515 186.075 144.859 187.518L143.314 190.917L141.254 197.097C140.939 198.04 140.695 199.004 140.522 199.982L139.571 205.375C139.366 206.537 139.262 207.715 139.262 208.895V225.353C139.262 228.222 137.912 230.923 135.616 232.645C134.038 233.828 132.119 234.468 130.147 234.468H113.436L99.7625 232.949L89.6343 230.923C87.536 230.324 86.0894 228.406 86.0894 226.224Z" fill="white"/>
<path d="M70.3907 140.276L72.4163 151.417L75.9612 164.077L84.9093 189.132C85.6902 191.318 86.0894 193.623 86.0894 195.945V226.224C86.0894 228.406 87.536 230.324 89.6343 230.923L99.7625 232.949L113.436 234.468H130.147C132.119 234.468 134.038 233.828 135.616 232.645C137.912 230.923 139.262 228.222 139.262 225.353V208.895C139.262 207.715 139.366 206.537 139.571 205.375L140.522 199.982C140.695 199.004 140.939 198.04 141.254 197.097L143.314 190.917L144.859 187.518C145.515 186.075 146.337 184.714 147.31 183.463L149.391 180.788L156.153 172.336C157.044 171.222 157.815 170.017 158.453 168.741L164.952 155.743C165.381 154.885 165.748 153.999 166.051 153.089L166.076 153.016C166.764 150.95 167.115 148.787 167.115 146.61V133.464C167.115 131.94 166.841 130.43 166.306 129.004C165.836 127.748 165.169 126.576 164.332 125.529L162.669 123.45C161.921 122.515 161.091 121.648 160.19 120.86L158.857 119.693C157.95 118.899 156.973 118.188 155.94 117.568L152.429 115.462L148.378 113.436L144.833 111.917M70.3907 140.276L68.8714 109.385V65.0251C68.8714 64.2285 69.0879 63.4468 69.4978 62.7637C70.0715 61.8076 70.9871 61.1052 72.0593 60.7989L73.1155 60.4971C73.6595 60.3417 74.2226 60.2628 74.7884 60.2628H75.0957C75.6674 60.2628 76.2339 60.3719 76.7648 60.5843C77.8715 61.0269 78.757 61.8911 79.2265 62.9867L79.6011 63.8606C79.8737 64.4968 80.0475 65.1709 80.1164 65.8596L81.0253 74.9487L82.0381 97.7372V108.372M70.3907 140.276L75.6684 141.088C76.4013 141.221 77.1448 141.288 77.8898 141.288H78.5566C80.046 141.288 81.5149 140.942 82.847 140.276L84.5978 139.4C85.4552 138.972 86.3418 138.604 87.2511 138.301L88.9239 137.744L90.6976 137.237C91.8758 136.9 93.0203 136.455 94.1163 135.907C95.0422 135.444 95.9303 134.909 96.7726 134.308L97.2703 133.952C98.4547 133.106 99.7269 132.39 101.065 131.817L102.597 131.16M82.0381 108.372L79.3021 111.917M82.0381 108.372L85.0766 106.346M85.0766 106.346L86.0894 96.7244L85.0766 63.8077L84.1547 36.6133C84.0952 34.8563 84.5078 33.1154 85.3497 31.572L86.1055 30.1863C86.7484 29.0076 87.794 28.0996 89.0511 27.6281L89.1852 27.5778C90.4484 27.1042 91.8457 27.1364 93.0857 27.6678C94.1322 28.1163 95.004 28.8938 95.5689 29.8824L96.3322 31.2182C96.593 31.6746 96.8167 32.1511 97.0013 32.6432L97.2363 33.2699C97.9034 35.049 98.2872 36.9219 98.3735 38.82L99.7625 69.3782L101.788 101.788M85.0766 106.346L97.2899 103.714C98.0259 103.545 98.7515 103.334 99.4633 103.083C100.305 102.787 101.075 102.324 101.788 101.788V101.788M85.0766 106.346L101.788 101.788M101.788 101.788C102.907 101.788 103.814 100.882 103.814 99.7628V53.1731L102.801 26.8397V22.895C102.801 20.1517 103.03 17.1401 105.008 15.2396C105.283 14.9752 105.564 14.7777 105.839 14.6859C106.685 14.404 107.906 13.9424 108.856 13.5739C109.541 13.3079 110.268 13.1667 111.003 13.1667H111.305C112.359 13.1667 113.385 13.5085 114.228 14.1409C114.708 14.5011 115.118 14.947 115.436 15.4561L115.952 16.2821C116.955 17.8865 117.487 19.7404 117.487 21.6323V42.032L119.006 62.2885L120.019 74.9487L121.032 101.788M101.788 101.788H121.032M121.032 101.788H125.083M125.083 101.788V94.1923L124.07 76.9744L122.551 59.25V42.032L122.249 37.5026C122.116 35.5139 122.644 33.537 123.749 31.8786L124.085 31.3746C124.739 30.394 125.637 29.601 126.692 29.0739L126.763 29.0384C127.656 28.5916 128.642 28.359 129.641 28.359C130.64 28.359 131.625 28.5916 132.519 29.0384L132.789 29.1736C133.716 29.637 134.522 30.3097 135.144 31.1386C135.524 31.6462 135.831 32.2054 136.053 32.7995L136.513 34.0261C136.994 35.3067 137.306 36.6442 137.442 38.0051L138.216 45.7497C138.239 45.9721 138.257 46.1892 138.272 46.4122L139.262 61.2756L143.314 97.7372L144.833 109.385V111.917M125.083 101.788H135.007M144.833 111.917L142.688 111.111C140.951 110.637 139.159 110.397 137.359 110.397H134.492C133.487 110.397 132.482 110.472 131.488 110.622L128.447 111.078C124.814 111.623 121.451 113.319 118.854 115.916C117.811 116.959 116.638 117.863 115.364 118.606L114.358 119.193C112.275 120.408 109.982 121.22 107.599 121.587L105.166 121.961C104.806 122.017 104.457 122.128 104.131 122.291C103.163 122.775 102.473 123.678 102.261 124.739L101.941 126.34C101.707 127.508 101.782 128.716 102.159 129.846L102.597 131.16M102.597 131.16L107.661 132.68L110.712 133.987M127.917 132.68H126.255C124.694 132.68 123.164 133.118 121.841 133.946C120.517 134.773 118.987 135.212 117.426 135.212H116.885C116.14 135.212 115.397 135.13 114.669 134.968L111.73 134.315C111.381 134.238 111.041 134.128 110.712 133.987M127.917 132.68L131.462 131.16L133.994 130.147M127.917 132.68L127.203 134.466C127.005 134.962 126.755 135.435 126.459 135.879C126.083 136.444 125.633 136.957 125.122 137.405L122.678 139.543C122.122 140.029 121.633 140.587 121.223 141.202L120.455 142.355C120.037 142.98 119.815 143.715 119.815 144.467C119.815 145.097 119.594 145.565 119.263 146.027C118.975 146.429 118.683 146.829 118.446 147.263V147.263C118.21 147.697 117.921 148.1 117.644 148.509C117.316 148.994 117.046 149.516 116.84 150.066L116.297 151.513C115.944 152.454 115.764 153.451 115.764 154.455C115.764 155.46 115.583 156.456 115.23 157.397L114.244 160.026L113.232 163.064M133.994 130.147L136.526 128.122L138.046 127.109L133.994 130.147ZM133.994 130.147H134.936C135.991 130.147 137.041 130.294 138.055 130.584C139.388 130.965 140.64 131.587 141.749 132.418L144.123 134.199L145.229 134.936C145.501 135.118 145.736 135.352 145.917 135.625C146.378 136.316 147.153 136.731 147.984 136.731H149.187M110.712 133.987L109.223 135.821C108.209 137.069 106.818 137.954 105.258 138.344C104.173 138.616 103.164 139.128 102.304 139.844L101.416 140.585C100.854 141.053 100.252 141.471 99.6171 141.834L97.0265 143.314L93.4816 145.846" stroke="#4B2395" stroke-width="2"/>
</svg>
