<svg width="248" height="248" viewBox="0 0 248 248" fill="none" xmlns="http://www.w3.org/2000/svg">
<circle cx="123.676" cy="123.676" r="123.676" fill="#4B2395"/>
<path d="M73.1364 141.773L74.5641 137.473L74.0274 135.318L73.7064 133.062C73.5627 132.053 73.4906 131.034 73.4906 130.014V116.298C73.4906 115.688 73.5514 115.076 73.6705 114.478C73.905 113.301 74.3687 112.173 75.0322 111.174L75.1296 111.027C75.8175 109.991 76.726 109.122 77.7893 108.481L77.8196 108.463C78.5081 108.048 79.254 107.738 80.033 107.543C80.6786 107.381 81.3416 107.299 82.007 107.299H84.8338C85.4993 107.299 86.1622 107.381 86.8078 107.543C87.5868 107.738 88.3327 108.048 89.0213 108.463L90.6665 109.454V108.443C90.6665 106.967 90.8467 105.497 91.2032 104.066L91.28 103.873C91.9319 102.237 93.0195 100.812 94.4237 99.7551L94.9576 99.3978C95.6699 98.9211 96.4585 98.5709 97.289 98.3624C97.8814 98.2138 98.4897 98.1386 99.1003 98.1386H100.943C101.605 98.1386 102.265 98.2042 102.914 98.3346C104.044 98.5615 105.127 98.9817 106.115 99.5768L107.306 100.294L109.989 102.449V92.0679C109.989 90.7318 110.153 89.4008 110.475 88.1046L110.735 87.0614C110.952 86.189 111.297 85.3536 111.758 84.5825L111.849 84.4305C112.393 83.5198 113.108 82.7237 113.955 82.0865C114.529 81.654 115.158 81.2994 115.824 81.0317L115.913 80.9962C116.964 80.5742 118.085 80.3573 119.217 80.3573H121.711C122.835 80.3573 123.952 80.5393 125.018 80.8961L125.475 81.049C126.239 81.3046 126.957 81.6823 127.601 82.1674C128.377 82.7512 129.032 83.4805 129.531 84.3149L130.386 85.7456L131.786 83.2849C132.279 82.42 132.942 81.6655 133.736 81.0678C134.361 80.5972 135.058 80.2309 135.799 79.9829L136.29 79.8185C137.356 79.4616 138.473 79.2797 139.597 79.2797H140.584L143.772 79.6797C144.506 79.7719 145.226 79.9581 145.912 80.234L145.987 80.2639C147.026 80.6811 147.97 81.3056 148.761 82.0998C149.388 82.7301 149.911 83.4579 150.308 84.2552L150.615 84.8716C151.082 85.8093 151.423 86.8053 151.627 87.8333C151.779 88.5949 151.856 89.3698 151.856 90.1465V111.609L160.98 116.459L164.356 118.615C166.033 119.687 167.555 120.987 168.876 122.479L169.55 123.241C170.632 124.463 171.572 125.804 172.352 127.24L173.319 129.02C174.036 130.339 174.583 131.745 174.946 133.203C175.296 134.608 175.472 136.05 175.472 137.497V145.555L175.11 149.919C174.994 151.317 174.742 152.701 174.358 154.05L172.409 160.9C171.948 162.519 171.3 164.078 170.478 165.545L166.884 171.958L160.443 182.734L150.191 195.833C149.157 197.154 148.281 198.592 147.58 200.117L146.477 202.516C145.771 204.051 145.248 205.664 144.918 207.321L143.804 212.909L142.194 219.375L141.121 227.996L140.584 233.384V239.705C140.584 240.159 140.528 240.612 140.419 241.052L140.231 241.805C140.111 242.289 139.862 242.73 139.51 243.083C139.159 243.436 138.719 243.686 138.237 243.807L135.634 244.46C134.999 244.619 134.352 244.728 133.7 244.785L128.532 245.238H112.136L106.769 244.699L97.1074 242.544L88.7837 239.933C88.6079 239.878 88.4367 239.808 88.2719 239.726C87.1078 239.141 86.3725 237.947 86.3725 236.64V236.617L86.9093 225.84L87.446 217.219L87.9828 207.52L88.5195 202.132V201.616C88.5195 198.76 87.9105 195.938 86.7334 193.338C86.1368 192.02 85.3994 190.771 84.5342 189.613L81.0051 184.89L77.0912 179.532C75.7724 177.727 74.7418 175.726 74.0365 173.602L72.9539 170.341L72.2973 167.046C72.02 165.654 71.8804 164.238 71.8804 162.819V148.788L72.1659 146.208C72.3329 144.7 72.6582 143.213 73.1364 141.773Z" fill="white"/>
<path d="M74.5641 137.473L73.1364 141.773C72.6582 143.213 72.3329 144.7 72.1659 146.208L71.8804 148.788V162.819C71.8804 164.238 72.02 165.654 72.2973 167.046L72.9539 170.341L74.0365 173.602C74.7418 175.726 75.7724 177.727 77.0912 179.532L81.0051 184.89L84.5342 189.613C85.3994 190.771 86.1368 192.02 86.7334 193.338C87.9105 195.938 88.5195 198.76 88.5195 201.616V202.132L87.9828 207.52L87.446 217.219L86.9093 225.84L86.3725 236.617V236.64C86.3725 237.947 87.1078 239.141 88.2719 239.726C88.4367 239.808 88.6079 239.878 88.7837 239.933L97.1074 242.544L106.769 244.699L112.136 245.238H128.532L133.7 244.785C134.352 244.728 134.999 244.619 135.634 244.46L138.237 243.807C138.719 243.686 139.159 243.436 139.51 243.083C139.862 242.73 140.111 242.289 140.231 241.805L140.419 241.052C140.528 240.612 140.584 240.159 140.584 239.705V233.384L141.121 227.996L142.194 219.375L143.804 212.909L144.918 207.321C145.248 205.664 145.771 204.051 146.477 202.516L147.58 200.117C148.281 198.592 149.157 197.154 150.191 195.833L160.443 182.734L166.884 171.958L170.477 165.545C171.3 164.078 171.948 162.519 172.409 160.9L174.358 154.05C174.742 152.701 174.994 151.317 175.11 149.919L175.472 145.555V137.497C175.472 136.05 175.296 134.608 174.946 133.203C174.583 131.745 174.036 130.339 173.319 129.02L172.352 127.24C171.572 125.804 170.632 124.463 169.55 123.241L168.876 122.479C167.555 120.987 166.033 119.687 164.356 118.615L160.98 116.459L151.856 111.609M74.5641 137.473L74.0274 135.318L73.7064 133.062C73.5627 132.053 73.4906 131.034 73.4906 130.014V116.298C73.4906 115.688 73.5514 115.076 73.6705 114.478C73.905 113.301 74.3687 112.173 75.0322 111.174L75.1296 111.027C75.8175 109.991 76.726 109.122 77.7893 108.481L77.8196 108.463C78.5081 108.048 79.254 107.738 80.033 107.543C80.6786 107.381 81.3416 107.299 82.007 107.299H84.8338C85.4993 107.299 86.1622 107.381 86.8078 107.543C87.5868 107.738 88.3327 108.048 89.0213 108.463L90.6665 109.454M74.5641 137.473L75.9078 141.07C76.0835 141.54 76.3574 141.967 76.7111 142.322M151.856 111.609V117.449C151.856 118.577 151.674 119.699 151.319 120.769C150.968 122.18 150.241 123.468 149.217 124.496L148.635 125.08M151.856 111.609V90.1465C151.856 89.3698 151.779 88.5949 151.627 87.8333C151.423 86.8053 151.082 85.8093 150.615 84.8716L150.308 84.2552C149.911 83.4579 149.388 82.7301 148.761 82.0998C147.97 81.3056 147.026 80.6811 145.987 80.2639L145.912 80.234C145.226 79.9581 144.506 79.7719 143.772 79.6797L140.584 79.2797H139.597C138.473 79.2797 137.356 79.4616 136.29 79.8185L135.799 79.9829C135.058 80.2309 134.361 80.5972 133.736 81.0678C132.942 81.6655 132.279 82.42 131.786 83.2849L130.386 85.7456M130.386 85.7456L130.266 86.347C129.989 87.7387 129.849 89.1546 129.849 90.5739V119.124C129.849 119.5 129.909 119.874 130.028 120.23M130.386 85.7456L129.531 84.3149C129.032 83.4805 128.377 82.7512 127.601 82.1674C126.957 81.6823 126.239 81.3046 125.475 81.049L125.018 80.8961C123.952 80.5393 122.835 80.3573 121.711 80.3573H119.217C118.085 80.3573 116.964 80.5742 115.913 80.9962L115.824 81.0317C115.158 81.2994 114.529 81.654 113.955 82.0865C113.108 82.7237 112.393 83.5198 111.849 84.4305L111.758 84.5825C111.297 85.3536 110.952 86.189 110.735 87.0614L110.475 88.1046C110.153 89.4008 109.989 90.7318 109.989 92.0679V102.449M130.922 122.925L129.849 126.696M130.922 122.925L130.028 120.23M130.922 122.925L134.143 126.158M134.143 126.158L134.793 129.096C135.07 130.344 135.695 131.487 136.595 132.391C137.104 132.902 137.692 133.327 138.335 133.65L138.675 133.821C139.93 134.451 141.314 134.779 142.718 134.779H144.878M134.143 126.158V119.99C134.143 119.077 134.27 118.169 134.52 117.291L134.78 116.376C135.066 115.37 135.603 114.454 136.34 113.714C137.013 113.039 137.834 112.53 138.737 112.227L139.42 111.999C140.191 111.741 140.998 111.609 141.811 111.609H141.868C142.793 111.609 143.709 111.786 144.567 112.131L144.851 112.245C145.577 112.537 146.237 112.973 146.79 113.528C147.641 114.383 148.205 115.483 148.403 116.675L148.525 117.412C148.598 117.853 148.635 118.3 148.635 118.748V125.08M144.878 134.779L145.513 134.3C146.505 133.554 147.29 132.566 147.796 131.431C147.997 130.979 148.152 130.507 148.258 130.024L148.357 129.575C148.542 128.736 148.635 127.879 148.635 127.02V125.08M144.878 134.779L148.635 137.473L154.003 142.322M134.143 128.852L129.849 126.696M129.849 126.696L128.239 129.391M128.239 129.391V122.747C128.239 121.794 128.086 120.847 127.785 119.943L127.529 119.169C126.952 117.434 125.693 115.989 124.062 115.171C123.631 114.954 123.172 114.783 122.704 114.665C121.754 114.427 120.763 114.403 119.803 114.596L119.619 114.633C118.93 114.771 118.269 115.028 117.666 115.391C116.516 116.084 115.624 117.135 115.126 118.385L114.82 119.153C114.465 120.223 114.283 121.345 114.283 122.473V130.751M128.239 129.391L127.702 131.546L127.034 133.334C126.409 135.007 125.55 136.582 124.481 138.012M130.028 120.23L130.386 124.541M117.504 137.473L116.048 136.012C115.59 135.552 115.209 135.021 114.919 134.44C114.501 133.6 114.283 132.673 114.283 131.734V130.751M117.504 137.473H112.136M117.504 137.473C118.93 137.831 120.394 138.012 121.864 138.012H124.481M124.481 138.012H127.078C128.202 138.012 129.319 137.83 130.386 137.473M130.386 137.473L131.604 136.862C132.222 136.551 132.811 136.186 133.363 135.77C134.237 135.112 135.012 134.334 135.667 133.457L136.29 132.623M130.386 137.473L129.119 140.676C128.686 141.772 128.164 142.83 127.558 143.84L123.945 149.866L121.886 152.622C121.113 153.656 120.435 154.758 119.858 155.915L118.723 158.195C118.269 159.107 117.879 160.05 117.558 161.018L117.23 162.005C117.055 162.533 116.843 163.047 116.595 163.545C116.129 164.48 115.79 165.472 115.586 166.497L115.357 167.647L114.82 171.419M114.283 130.751L112.713 129.362C112.33 129.023 111.982 128.645 111.675 128.234C110.921 127.225 110.433 126.042 110.255 124.793L110.066 123.463M109.989 102.449L107.306 100.294L106.115 99.5768C105.127 98.9817 104.044 98.5615 102.914 98.3346C102.265 98.2042 101.605 98.1386 100.943 98.1386H99.1003C98.4897 98.1386 97.8814 98.2138 97.289 98.3624C96.4585 98.5709 95.6699 98.9211 94.9576 99.3978L94.4237 99.7551C93.0195 100.812 91.9319 102.237 91.28 103.873L91.2032 104.066C90.8467 105.497 90.6665 106.967 90.6665 108.443V109.454M109.989 102.449V122.38C109.989 122.743 110.015 123.105 110.066 123.463M91.74 131.546L92.7327 133.207C93.136 133.882 93.7226 134.427 94.4237 134.779M91.74 131.546L91.2587 136.86C91.2218 137.268 91.1536 137.672 91.0546 138.07C90.7985 139.098 90.34 140.065 89.7063 140.913L89.0562 141.784M91.74 131.546C91.0308 129.766 90.6665 127.867 90.6665 125.95V109.454M94.4237 134.779V133.595C94.4237 132.241 94.681 130.9 95.1818 129.643L95.2464 129.481C95.4133 129.062 95.6134 128.657 95.8447 128.27L96.4254 127.299C96.8708 126.553 97.5188 125.951 98.2932 125.562C98.9253 125.245 99.6224 125.08 100.329 125.08H101.835C102.612 125.08 103.383 125.229 104.104 125.519C105.145 125.937 106.051 126.634 106.724 127.534L106.79 127.622C107.132 128.081 107.413 128.582 107.625 129.115L107.743 129.41C108.163 130.465 108.379 131.591 108.379 132.727V133.162M94.4237 134.779V139.023C94.4237 140.141 94.5603 141.254 94.8303 142.338L95.2612 144.069C95.417 144.694 95.6957 145.282 96.081 145.798L96.1215 145.852C96.7593 146.706 97.6704 147.313 98.7017 147.572C99.0688 147.664 99.4458 147.711 99.8242 147.711H101.983C102.663 147.711 103.336 147.581 103.966 147.327C105.086 146.878 106.021 146.061 106.619 145.01L107.115 144.14C107.596 143.294 107.924 142.369 108.084 141.409L108.209 140.651C108.322 139.97 108.379 139.281 108.379 138.591V133.162M108.379 133.162L108.719 132.651C109.204 131.92 109.561 131.11 109.773 130.257C109.917 129.681 109.993 129.091 110.001 128.497L110.066 123.463M76.7111 142.322V140.796C76.7111 140.019 76.7875 139.245 76.9393 138.483L77.09 137.726C77.1948 137.2 77.3689 136.691 77.6077 136.212L77.8253 135.775C78.1504 135.122 78.6394 134.566 79.2441 134.161C79.698 133.857 80.2068 133.646 80.7417 133.538L81.2661 133.433C82.1567 133.254 83.0738 133.254 83.9645 133.433L85.299 133.701C86.33 134.046 87.1823 134.788 87.6683 135.764L87.8255 136.08C87.9302 136.29 88.0199 136.507 88.0939 136.73L88.3773 137.584C88.827 138.938 89.0562 140.356 89.0562 141.784M76.7111 142.322L77.1332 146.984C77.2087 147.817 77.4757 148.631 77.9043 149.348C78.5181 150.375 79.4578 151.184 80.5656 151.629C81.2105 151.888 81.8986 152.021 82.5932 152.021H83.0487C83.8261 152.021 84.5964 151.872 85.3182 151.582L85.4607 151.525C86.4081 151.145 87.2331 150.51 87.8454 149.691C88.2903 149.095 88.6122 148.416 88.792 147.694L88.853 147.449C88.988 146.907 89.0562 146.35 89.0562 145.792V141.784" stroke="#4B2395" stroke-width="2.08736"/>
</svg>
