<svg width="65" height="65" viewBox="0 0 65 65" fill="none" xmlns="http://www.w3.org/2000/svg">
<path d="M30.324 6.38396H34.6767C35.0636 6.38396 35.257 6.57741 35.257 6.96431V58.0357C35.257 58.4227 35.0636 58.6161 34.6767 58.6161H30.324C29.9371 58.6161 29.7437 58.4227 29.7437 58.0357V6.96431C29.7437 6.57741 29.9371 6.38396 30.324 6.38396Z" fill="white"/>
<path d="M8.12528 29.7433H56.8753C57.2622 29.7433 57.4556 29.9368 57.4556 30.3237V34.6764C57.4556 35.0633 57.2622 35.2567 56.8753 35.2567H8.12528C7.73837 35.2567 7.54492 35.0633 7.54492 34.6764V30.3237C7.54492 29.9368 7.73837 29.7433 8.12528 29.7433Z" fill="white"/>
</svg>
