<svg width="45" height="45" viewBox="0 0 45 45" fill="none" xmlns="http://www.w3.org/2000/svg">
<circle cx="22.5" cy="22.5" r="22" stroke="white"/>
<path fill-rule="evenodd" clip-rule="evenodd" d="M22.5 14.9426C18.3262 14.9426 14.9426 18.3262 14.9426 22.5C14.9426 26.6738 18.3262 30.0574 22.5 30.0574C26.0736 30.0574 29.0679 27.5771 29.8552 24.244H23.6627C22.6995 24.244 21.9187 23.4632 21.9187 22.5C21.9187 21.5368 22.6995 20.756 23.6627 20.756H31.8015C32.7647 20.756 33.5455 21.5368 33.5455 22.5C33.5455 28.6002 28.6003 33.5455 22.5 33.5455C16.3998 33.5455 11.4546 28.6002 11.4546 22.5C11.4546 16.3998 16.3998 11.4545 22.5 11.4545C25.5387 11.4545 28.2936 12.6839 30.2888 14.6682C30.9718 15.3474 30.9748 16.4517 30.2956 17.1346C29.6164 17.8176 28.5121 17.8206 27.8292 17.1414C26.4609 15.7805 24.58 14.9426 22.5 14.9426Z" fill="#DDDDDD"/>
</svg>
